<svg xmlns="http://www.w3.org/2000/svg" xmlns:xlink="http://www.w3.org/1999/xlink" width="1268" zoomAndPan="magnify" viewBox="0 0 950.88 503.999982" height="672" preserveAspectRatio="xMidYMid meet" version="1.0"><defs><clipPath id="2c1f7a91e4"><path d="M 0 0.03125 L 950.761719 0.03125 L 950.761719 503.96875 L 0 503.96875 Z M 0 0.03125 " clip-rule="nonzero"/></clipPath><clipPath id="3518e5e6a3"><path d="M 0 0.03125 L 950.761719 0.03125 L 950.761719 213.164062 L 0 213.164062 Z M 0 0.03125 " clip-rule="nonzero"/></clipPath><clipPath id="34865bb942"><path d="M 0 0.03125 L 950.761719 0.03125 L 950.761719 503.96875 L 0 503.96875 Z M 0 0.03125 " clip-rule="nonzero"/></clipPath></defs><g clip-path="url(#2c1f7a91e4)"><path fill="#ffffff" d="M 0 0.03125 L 950.878906 0.03125 L 950.878906 503.96875 L 0 503.96875 Z M 0 0.03125 " fill-opacity="1" fill-rule="nonzero"/><path fill="#ffffff" d="M 0 0.03125 L 950.878906 0.03125 L 950.878906 503.96875 L 0 503.96875 Z M 0 0.03125 " fill-opacity="1" fill-rule="nonzero"/></g><g clip-path="url(#3518e5e6a3)"><path fill="#e62020" d="M 979.820312 -22.773438 C 930.230469 63.609375 839.058594 95.5625 741.347656 97.421875 C 605.148438 100.238281 470.921875 47.664062 336.582031 28.84375 C 235.152344 14.753906 100.867188 3.597656 7.890625 58.988281 C -29.640625 81.585938 -69.988281 129.203125 -59.675781 213.164062 L 979.820312 213.164062 Z M 979.820312 -22.773438 " fill-opacity="1" fill-rule="nonzero"/></g><g clip-path="url(#34865bb942)"><path fill="#e62020" d="M 1195.050781 -207.367188 C 1028.34375 83.046875 721.828125 190.460938 393.335938 196.710938 C -64.542969 206.183594 -515.789062 29.433594 -967.417969 -33.835938 C -1308.410156 -81.199219 -1759.847656 -118.707031 -2072.425781 67.511719 C -2198.59375 143.480469 -2334.234375 303.554688 -2299.566406 585.824219 L 1195.050781 585.824219 Z M 1195.050781 -207.367188 " fill-opacity="1" fill-rule="nonzero"/></g></svg>