<svg xmlns="http://www.w3.org/2000/svg" xmlns:xlink="http://www.w3.org/1999/xlink" width="1080" zoomAndPan="magnify" viewBox="0 0 810 809.999993" height="1080" preserveAspectRatio="xMidYMid meet" version="1.0"><defs><clipPath id="eadff82ae1"><path d="M 28 145.332031 L 782 145.332031 L 782 240 L 28 240 Z M 28 145.332031 " clip-rule="nonzero"/></clipPath><clipPath id="1378f927c6"><path d="M 28 570 L 782 570 L 782 664.332031 L 28 664.332031 Z M 28 570 " clip-rule="nonzero"/></clipPath></defs><g clip-path="url(#eadff82ae1)"><path fill="#000000" d="M 734.171875 145.558594 L 75.871094 145.558594 C 49.9375 145.558594 28.847656 166.632812 28.847656 192.546875 C 28.847656 218.460938 49.9375 239.535156 75.871094 239.535156 L 734.171875 239.535156 C 760.09375 239.535156 781.191406 218.460938 781.191406 192.546875 C 781.191406 166.632812 760.09375 145.558594 734.171875 145.558594 Z M 734.171875 145.558594 " fill-opacity="1" fill-rule="nonzero"/></g><path fill="#000000" d="M 734.171875 357.84375 L 75.871094 357.84375 C 49.9375 357.84375 28.847656 378.917969 28.847656 404.832031 C 28.847656 430.75 49.9375 451.824219 75.871094 451.824219 L 734.171875 451.824219 C 760.09375 451.824219 781.191406 430.75 781.191406 404.832031 C 781.191406 378.917969 760.09375 357.84375 734.171875 357.84375 Z M 734.171875 357.84375 " fill-opacity="1" fill-rule="nonzero"/><g clip-path="url(#1378f927c6)"><path fill="#000000" d="M 734.171875 570.132812 L 75.871094 570.132812 C 49.9375 570.132812 28.847656 591.207031 28.847656 617.121094 C 28.847656 643.035156 49.9375 664.109375 75.871094 664.109375 L 734.171875 664.109375 C 760.09375 664.109375 781.191406 643.035156 781.191406 617.121094 C 781.191406 591.207031 760.09375 570.132812 734.171875 570.132812 Z M 734.171875 570.132812 " fill-opacity="1" fill-rule="nonzero"/></g></svg>