<svg xmlns="http://www.w3.org/2000/svg" xmlns:xlink="http://www.w3.org/1999/xlink" width="1080" zoomAndPan="magnify" viewBox="0 0 810 449.999984" height="600" preserveAspectRatio="xMidYMid meet" version="1.0"><defs><clipPath id="b93585c234"><path d="M 0 179 L 810 179 L 810 396.617188 L 0 396.617188 Z M 0 179 " clip-rule="nonzero"/></clipPath><clipPath id="2bca40c223"><path d="M 171 12.617188 L 271 12.617188 L 271 145 L 171 145 Z M 171 12.617188 " clip-rule="nonzero"/></clipPath><clipPath id="d2e8f28a07"><path d="M 539 12.617188 L 639 12.617188 L 639 145 L 539 145 Z M 539 12.617188 " clip-rule="nonzero"/></clipPath></defs><g clip-path="url(#b93585c234)"><path fill="#ff0025" d="M 47.308594 179.316406 L 762.691406 179.316406 C 788.710938 179.316406 809.996094 200.605469 809.996094 226.625 L 809.996094 348.933594 C 809.996094 374.953125 788.710938 396.242188 762.691406 396.242188 L 47.308594 396.242188 C 21.289062 396.242188 0 374.953125 0 348.933594 L 0 226.625 C 0 200.605469 21.289062 179.316406 47.308594 179.316406 Z M 47.308594 179.316406 " fill-opacity="1" fill-rule="evenodd"/></g><path fill="#ff0025" d="M 449.035156 124.183594 L 465.757812 124.183594 C 474.933594 124.183594 483.265625 127.929688 489.300781 133.96875 C 495.339844 140.003906 499.085938 148.339844 499.085938 157.511719 L 499.085938 229.578125 C 499.085938 238.75 495.339844 247.085938 489.300781 253.121094 C 483.265625 259.160156 474.929688 262.90625 465.757812 262.90625 L 395.308594 262.90625 C 386.136719 262.90625 377.800781 259.160156 371.765625 253.121094 C 365.726562 247.085938 361.980469 238.75 361.980469 229.578125 L 361.980469 157.511719 C 361.980469 153.515625 362.722656 149.628906 364.074219 145.980469 C 365.394531 142.429688 367.292969 139.167969 369.648438 136.320312 C 369.871094 136.011719 370.117188 135.726562 370.382812 135.460938 L 370.554688 135.257812 L 370.96875 134.820312 C 379.863281 124.917969 387.390625 115.820312 394.152344 106.703125 C 400.914062 97.585938 407.015625 88.308594 413.070312 78.039062 C 416.339844 72.492188 420.742188 68.226562 425.394531 65.550781 C 430.800781 62.433594 436.648438 61.398438 441.800781 62.792969 C 444.144531 63.425781 446.261719 64.347656 448.164062 65.515625 C 454.597656 69.480469 457.789062 75.800781 458.699219 83.347656 C 459.472656 89.78125 458.5 97.125 456.511719 104.488281 C 454.699219 111.195312 452 118.03125 449.035156 124.183594 Z M 465.757812 138.179688 L 437.304688 138.179688 L 437.304688 138.152344 C 436.054688 138.152344 434.785156 137.820312 433.644531 137.113281 C 430.367188 135.089844 429.351562 130.792969 431.375 127.515625 C 435.753906 120.410156 440.40625 110.519531 443.007812 100.882812 C 444.574219 95.097656 445.363281 89.527344 444.816406 84.984375 C 444.402344 81.554688 443.1875 78.828125 440.839844 77.378906 C 440.136719 76.949219 439.261719 76.582031 438.195312 76.292969 C 436.625 75.871094 434.53125 76.367188 432.335938 77.628906 C 429.703125 79.148438 427.125 81.703125 425.09375 85.148438 C 418.855469 95.734375 412.488281 105.398438 405.359375 115.011719 C 398.230469 124.625 390.441406 134.054688 381.351562 144.164062 L 381.34375 144.160156 C 381.113281 144.414062 380.84375 144.6875 380.625 144.953125 C 379.132812 146.695312 377.941406 148.691406 377.140625 150.847656 C 376.386719 152.875 375.972656 155.121094 375.972656 157.511719 L 375.972656 229.578125 C 375.972656 234.886719 378.152344 239.722656 381.660156 243.226562 C 385.167969 246.734375 390 248.914062 395.308594 248.914062 L 465.757812 248.914062 C 471.066406 248.914062 475.898438 246.734375 479.40625 243.226562 C 482.914062 239.722656 485.09375 234.886719 485.09375 229.578125 L 485.09375 157.511719 C 485.09375 152.203125 482.914062 147.371094 479.40625 143.863281 C 475.898438 140.355469 471.066406 138.179688 465.757812 138.179688 Z M 465.757812 138.179688 " fill-opacity="1" fill-rule="nonzero"/><path fill="#ff0025" d="M 331.808594 124.183594 L 355.078125 124.183594 C 360.832031 124.183594 366.058594 126.535156 369.839844 130.316406 L 369.828125 130.332031 C 373.621094 134.128906 375.972656 139.351562 375.972656 145.082031 L 375.972656 242.011719 C 375.972656 247.765625 373.625 252.992188 369.839844 256.773438 C 366.058594 260.558594 360.832031 262.90625 355.078125 262.90625 L 331.808594 262.90625 C 326.054688 262.90625 320.828125 260.558594 317.042969 256.773438 C 313.261719 252.992188 310.910156 247.765625 310.910156 242.011719 L 310.910156 145.082031 C 310.910156 139.351562 313.265625 134.128906 317.058594 130.332031 L 317.042969 130.316406 C 320.828125 126.535156 326.054688 124.183594 331.808594 124.183594 Z M 355.078125 138.179688 L 331.808594 138.179688 C 329.917969 138.179688 328.191406 138.957031 326.9375 140.210938 L 326.910156 140.210938 C 325.675781 141.449219 324.90625 143.171875 324.90625 145.082031 L 324.90625 242.011719 C 324.90625 243.898438 325.6875 245.625 326.9375 246.878906 C 328.191406 248.132812 329.917969 248.914062 331.808594 248.914062 L 355.078125 248.914062 C 356.96875 248.914062 358.691406 248.132812 359.945312 246.878906 C 361.199219 245.625 361.980469 243.898438 361.980469 242.011719 L 361.980469 145.082031 C 361.980469 143.171875 361.210938 141.449219 359.972656 140.210938 L 359.945312 140.210938 C 358.691406 138.957031 356.96875 138.179688 355.078125 138.179688 Z M 355.078125 138.179688 " fill-opacity="1" fill-rule="nonzero"/><path fill="#fefefe" d="M 355.078125 138.179688 L 331.808594 138.179688 C 329.917969 138.179688 328.191406 138.957031 326.9375 140.210938 L 326.914062 140.210938 C 325.675781 141.449219 324.90625 143.171875 324.90625 145.082031 L 324.90625 242.011719 C 324.90625 243.898438 325.6875 245.625 326.9375 246.878906 C 328.191406 248.132812 329.917969 248.914062 331.808594 248.914062 L 355.078125 248.914062 C 356.96875 248.914062 358.691406 248.132812 359.945312 246.878906 C 361.199219 245.625 361.980469 243.898438 361.980469 242.011719 L 361.980469 145.082031 C 361.980469 143.171875 361.210938 141.449219 359.972656 140.210938 L 359.945312 140.210938 C 358.691406 138.957031 356.96875 138.179688 355.078125 138.179688 Z M 355.078125 138.179688 " fill-opacity="1" fill-rule="evenodd"/><path fill="#fefefe" d="M 375.972656 157.511719 L 375.972656 229.578125 C 375.972656 234.886719 378.152344 239.722656 381.660156 243.226562 C 385.167969 246.734375 390 248.914062 395.308594 248.914062 L 465.757812 248.914062 C 471.066406 248.914062 475.898438 246.734375 479.40625 243.226562 C 482.914062 239.722656 485.09375 234.886719 485.09375 229.578125 L 485.09375 157.511719 C 485.09375 152.203125 482.914062 147.371094 479.40625 143.863281 C 475.898438 140.355469 471.066406 138.179688 465.757812 138.179688 L 437.304688 138.179688 L 437.304688 138.152344 C 436.050781 138.152344 434.785156 137.820312 433.644531 137.113281 C 430.367188 135.089844 429.351562 130.792969 431.375 127.515625 C 435.753906 120.410156 440.40625 110.519531 443.007812 100.882812 C 444.574219 95.097656 445.363281 89.527344 444.816406 84.984375 C 444.402344 81.554688 443.1875 78.824219 440.839844 77.378906 C 440.136719 76.945312 439.261719 76.582031 438.195312 76.292969 C 436.625 75.871094 434.53125 76.367188 432.335938 77.628906 C 429.703125 79.148438 427.125 81.703125 425.09375 85.148438 C 418.855469 95.734375 412.488281 105.398438 405.359375 115.011719 C 398.230469 124.625 390.441406 134.054688 381.34375 144.160156 C 381.113281 144.414062 380.84375 144.6875 380.625 144.953125 C 379.132812 146.695312 377.941406 148.691406 377.140625 150.847656 C 376.386719 152.875 375.972656 155.121094 375.972656 157.511719 Z M 375.972656 157.511719 " fill-opacity="1" fill-rule="evenodd"/><path fill="#fefefe" d="M 53.667969 349.996094 C 53.667969 352.851562 54.4375 354.988281 55.972656 356.40625 C 57.507812 357.824219 59.445312 358.542969 61.78125 358.542969 C 64.121094 358.542969 66.054688 357.824219 67.589844 356.390625 C 69.125 354.953125 69.894531 352.800781 69.894531 349.929688 L 69.894531 329.398438 L 70.09375 329.648438 L 90.023438 354.570312 C 91.023438 355.820312 92.027344 356.804688 93.027344 357.507812 C 94.03125 358.191406 95.597656 358.542969 97.734375 358.542969 C 99.269531 358.542969 100.574219 358.257812 101.640625 357.707031 C 102.710938 357.15625 103.578125 356.488281 104.246094 355.703125 C 104.914062 354.902344 105.382812 354.101562 105.648438 353.285156 C 105.914062 352.464844 106.046875 351.765625 106.046875 351.179688 C 106.046875 349.878906 105.765625 348.695312 105.199219 347.644531 C 104.628906 346.605469 103.777344 345.488281 102.644531 344.320312 L 88.523438 329.398438 C 93.664062 328.464844 97.71875 326.210938 100.691406 322.636719 C 103.660156 319.066406 105.148438 314.644531 105.148438 309.367188 C 105.148438 306.03125 104.578125 303.007812 103.445312 300.304688 C 102.308594 297.601562 100.707031 295.28125 98.636719 293.34375 C 96.566406 291.40625 94.0625 289.90625 91.125 288.835938 C 88.1875 287.769531 84.917969 287.234375 81.3125 287.234375 L 61.78125 287.234375 C 59.644531 287.234375 57.757812 287.9375 56.121094 289.320312 C 54.488281 290.707031 53.667969 292.691406 53.667969 295.28125 Z M 69.894531 302.257812 L 80.609375 302.257812 C 82.945312 302.257812 84.917969 302.941406 86.519531 304.308594 C 88.121094 305.679688 88.921875 307.566406 88.921875 309.96875 C 88.921875 312.238281 88.207031 314.140625 86.769531 315.675781 C 85.335938 317.210938 83.28125 317.980469 80.609375 317.980469 L 69.894531 317.980469 Z M 111.15625 350.429688 C 111.15625 353.035156 111.976562 355.035156 113.609375 356.4375 C 115.246094 357.839844 117.132812 358.542969 119.269531 358.542969 L 144.707031 358.542969 C 147.246094 358.542969 149.230469 357.859375 150.664062 356.488281 C 152.101562 355.121094 152.820312 353.300781 152.820312 351.03125 C 152.820312 348.695312 152.101562 346.855469 150.664062 345.523438 C 149.230469 344.1875 147.246094 343.519531 144.707031 343.519531 L 127.382812 343.519531 L 127.382812 329.398438 L 142.703125 329.398438 C 145.242188 329.398438 147.226562 328.730469 148.664062 327.394531 C 150.097656 326.058594 150.816406 324.222656 150.816406 321.886719 C 150.816406 319.550781 150.097656 317.714844 148.664062 316.378906 C 147.226562 315.042969 145.242188 314.375 142.703125 314.375 L 127.382812 314.375 L 127.382812 302.257812 L 144.105469 302.257812 C 146.644531 302.257812 148.628906 301.589844 150.066406 300.253906 C 151.5 298.917969 152.21875 297.082031 152.21875 294.746094 C 152.21875 292.476562 151.5 290.65625 150.066406 289.289062 C 148.628906 287.917969 146.644531 287.234375 144.105469 287.234375 L 119.269531 287.234375 C 117.132812 287.234375 115.246094 287.9375 113.609375 289.339844 C 111.976562 290.738281 111.15625 292.742188 111.15625 295.347656 Z M 155.722656 322.886719 C 155.722656 327.746094 156.492188 332.351562 158.027344 336.691406 C 159.5625 341.03125 161.832031 344.820312 164.835938 348.042969 C 167.839844 351.28125 171.511719 353.835938 175.855469 355.722656 C 180.195312 357.609375 185.167969 358.542969 190.777344 358.542969 C 192.980469 358.542969 195.398438 358.339844 198.039062 357.941406 C 200.675781 357.539062 203.109375 356.855469 205.347656 355.886719 C 207.585938 354.917969 209.453125 353.667969 210.957031 352.132812 C 212.460938 350.597656 213.210938 348.726562 213.210938 346.523438 C 213.210938 345.988281 213.144531 345.304688 213.011719 344.472656 C 212.875 343.636719 212.558594 342.816406 212.058594 342.015625 C 211.558594 341.214844 210.824219 340.515625 209.855469 339.914062 C 208.886719 339.3125 207.601562 339.011719 206 339.011719 C 204.929688 339.011719 203.980469 339.179688 203.144531 339.515625 C 202.308594 339.847656 201.34375 340.230469 200.242188 340.664062 C 199.136719 341.097656 197.804688 341.484375 196.234375 341.816406 C 194.664062 342.152344 192.613281 342.316406 190.074219 342.316406 C 187.269531 342.316406 184.816406 341.800781 182.714844 340.75 C 180.609375 339.695312 178.859375 338.292969 177.457031 336.527344 C 176.054688 334.773438 174.988281 332.703125 174.25 330.316406 C 173.515625 327.945312 173.148438 325.460938 173.148438 322.871094 C 173.148438 320.332031 173.484375 317.863281 174.152344 315.460938 C 174.820312 313.039062 175.886719 310.921875 177.355469 309.066406 C 178.824219 307.214844 180.726562 305.710938 183.066406 304.578125 C 185.402344 303.425781 188.207031 302.859375 191.476562 302.859375 C 193.078125 302.859375 194.53125 303.039062 195.832031 303.410156 C 197.136719 303.777344 198.355469 304.160156 199.488281 304.558594 C 200.625 304.960938 201.691406 305.34375 202.695312 305.710938 C 203.695312 306.078125 204.664062 306.261719 205.597656 306.261719 C 206.667969 306.261719 207.636719 306.046875 208.503906 305.613281 C 209.371094 305.179688 210.105469 304.59375 210.707031 303.859375 C 211.308594 303.125 211.773438 302.308594 212.109375 301.40625 C 212.441406 300.503906 212.609375 299.550781 212.609375 298.550781 C 212.609375 296.414062 211.941406 294.628906 210.605469 293.191406 C 209.269531 291.757812 207.566406 290.589844 205.496094 289.6875 C 203.429688 288.789062 201.125 288.152344 198.585938 287.785156 C 196.050781 287.417969 193.546875 287.234375 191.078125 287.234375 C 185.734375 287.234375 180.878906 288.117188 176.503906 289.871094 C 172.132812 291.625 168.410156 294.09375 165.339844 297.25 C 162.265625 300.421875 159.898438 304.175781 158.226562 308.566406 C 156.558594 312.941406 155.722656 317.714844 155.722656 322.886719 Z M 250.164062 287.234375 C 244.890625 287.234375 240.101562 288.085938 235.792969 289.773438 C 231.488281 291.472656 227.800781 293.863281 224.726562 296.964844 C 221.65625 300.054688 219.285156 303.792969 217.617188 308.183594 C 215.949219 312.554688 215.113281 317.464844 215.113281 322.886719 C 215.113281 328.3125 215.949219 333.222656 217.617188 337.59375 C 219.285156 341.984375 221.65625 345.722656 224.726562 348.808594 C 227.800781 351.914062 231.488281 354.300781 235.792969 356.003906 C 240.101562 357.691406 244.890625 358.542969 250.164062 358.542969 C 255.441406 358.542969 260.230469 357.691406 264.539062 356.003906 C 268.84375 354.300781 272.53125 351.914062 275.605469 348.808594 C 278.675781 345.722656 281.046875 341.984375 282.714844 337.59375 C 284.382812 333.222656 285.21875 328.3125 285.21875 322.886719 C 285.21875 317.464844 284.382812 312.554688 282.714844 308.183594 C 281.046875 303.792969 278.675781 300.054688 275.605469 296.964844 C 272.53125 293.863281 268.84375 291.472656 264.539062 289.773438 C 260.230469 288.085938 255.441406 287.234375 250.164062 287.234375 Z M 250.164062 302.257812 C 253.304688 302.257812 255.992188 302.839844 258.226562 304.027344 C 260.464844 305.195312 262.285156 306.746094 263.6875 308.667969 C 265.089844 310.585938 266.121094 312.789062 266.792969 315.257812 C 267.457031 317.746094 267.792969 320.285156 267.792969 322.886719 C 267.792969 325.492188 267.457031 328.027344 266.792969 330.515625 C 266.121094 332.984375 265.089844 335.1875 263.6875 337.109375 C 262.285156 339.03125 260.464844 340.582031 258.226562 341.75 C 255.992188 342.933594 253.304688 343.519531 250.164062 343.519531 C 247.027344 343.519531 244.339844 342.933594 242.101562 341.75 C 239.867188 340.582031 238.046875 339.03125 236.644531 337.109375 C 235.242188 335.1875 234.207031 332.984375 233.539062 330.515625 C 232.875 328.027344 232.539062 325.492188 232.539062 322.886719 C 232.539062 320.285156 232.875 317.746094 233.539062 315.257812 C 234.207031 312.789062 235.242188 310.585938 236.644531 308.667969 C 238.046875 306.746094 239.867188 305.195312 242.101562 304.027344 C 244.339844 302.839844 247.027344 302.257812 250.164062 302.257812 Z M 291.730469 333.320312 C 291.394531 335.171875 291.058594 337.007812 290.726562 338.84375 C 290.394531 340.679688 290.109375 342.402344 289.875 344.019531 C 289.640625 345.621094 289.441406 347.042969 289.273438 348.242188 C 289.109375 349.460938 289.023438 350.363281 289.023438 350.964844 C 289.023438 351.816406 289.191406 352.699219 289.523438 353.617188 C 289.859375 354.535156 290.359375 355.355469 291.027344 356.070312 C 291.695312 356.804688 292.496094 357.390625 293.429688 357.859375 C 294.367188 358.308594 295.433594 358.542969 296.636719 358.542969 C 298.4375 358.542969 299.90625 358.242188 301.042969 357.65625 C 302.175781 357.054688 303.078125 356.273438 303.746094 355.289062 C 304.414062 354.300781 304.914062 353.183594 305.25 351.949219 C 305.582031 350.695312 305.851562 349.378906 306.050781 348.007812 L 310.855469 316.878906 L 311.058594 316.878906 L 321.972656 351.347656 C 322.773438 353.917969 323.84375 355.753906 325.179688 356.871094 C 326.515625 357.992188 328.417969 358.542969 330.886719 358.542969 C 333.359375 358.542969 335.261719 357.992188 336.597656 356.871094 C 337.929688 355.753906 339 353.917969 339.800781 351.347656 L 350.71875 316.878906 L 350.917969 316.878906 L 355.726562 348.007812 C 355.925781 349.378906 356.191406 350.695312 356.527344 351.949219 C 356.859375 353.183594 357.359375 354.300781 358.027344 355.289062 C 358.695312 356.273438 359.597656 357.054688 360.730469 357.65625 C 361.867188 358.242188 363.335938 358.542969 365.140625 358.542969 C 366.339844 358.542969 367.410156 358.308594 368.34375 357.859375 C 369.277344 357.390625 370.078125 356.804688 370.746094 356.070312 C 371.414062 355.355469 371.914062 354.535156 372.25 353.617188 C 372.582031 352.699219 372.75 351.816406 372.75 350.964844 C 372.75 350.363281 372.667969 349.460938 372.5 348.242188 C 372.332031 347.042969 372.132812 345.621094 371.898438 344.019531 C 371.664062 342.398438 371.382812 340.679688 371.046875 338.84375 C 370.714844 337.007812 370.378906 335.171875 370.046875 333.320312 L 363.636719 297.28125 C 363.238281 295.179688 362.652344 293.476562 361.882812 292.160156 C 361.117188 290.839844 360.230469 289.820312 359.230469 289.105469 C 358.230469 288.386719 357.175781 287.886719 356.074219 287.636719 C 354.972656 287.367188 353.921875 287.234375 352.921875 287.234375 C 350.917969 287.234375 349.25 287.550781 347.914062 288.167969 C 346.578125 288.789062 345.410156 289.773438 344.40625 291.125 C 343.40625 292.476562 342.488281 294.246094 341.652344 296.449219 C 340.820312 298.632812 339.902344 301.320312 338.898438 304.476562 L 330.988281 328.597656 L 330.789062 328.597656 L 322.875 304.476562 C 321.875 301.320312 320.957031 298.632812 320.121094 296.449219 C 319.285156 294.246094 318.367188 292.476562 317.367188 291.125 C 316.367188 289.773438 315.199219 288.789062 313.863281 288.167969 C 312.527344 287.550781 310.855469 287.234375 308.855469 287.234375 C 307.851562 287.234375 306.800781 287.367188 305.699219 287.636719 C 304.597656 287.886719 303.546875 288.386719 302.546875 289.105469 C 301.542969 289.820312 300.660156 290.839844 299.890625 292.160156 C 299.121094 293.476562 298.539062 295.179688 298.136719 297.28125 Z M 378.859375 333.320312 C 378.527344 335.171875 378.191406 337.007812 377.859375 338.84375 C 377.523438 340.679688 377.242188 342.402344 377.007812 344.019531 C 376.773438 345.621094 376.570312 347.042969 376.40625 348.242188 C 376.238281 349.460938 376.15625 350.363281 376.15625 350.964844 C 376.15625 351.816406 376.320312 352.699219 376.65625 353.617188 C 376.988281 354.535156 377.492188 355.355469 378.160156 356.070312 C 378.824219 356.804688 379.625 357.390625 380.5625 357.859375 C 381.496094 358.308594 382.566406 358.542969 383.765625 358.542969 C 385.570312 358.542969 387.039062 358.242188 388.175781 357.65625 C 389.308594 357.054688 390.210938 356.273438 390.878906 355.289062 C 391.542969 354.300781 392.046875 353.183594 392.378906 351.949219 C 392.714844 350.695312 392.980469 349.378906 393.179688 348.007812 L 397.988281 316.878906 L 398.1875 316.878906 L 409.105469 351.347656 C 409.90625 353.917969 410.972656 355.753906 412.308594 356.871094 C 413.644531 357.992188 415.546875 358.542969 418.019531 358.542969 C 420.488281 358.542969 422.390625 357.992188 423.726562 356.871094 C 425.0625 355.753906 426.132812 353.917969 426.933594 351.347656 L 437.847656 316.878906 L 438.050781 316.878906 L 442.855469 348.007812 C 443.054688 349.378906 443.324219 350.695312 443.65625 351.949219 C 443.992188 353.183594 444.492188 354.300781 445.160156 355.289062 C 445.828125 356.273438 446.726562 357.054688 447.863281 357.65625 C 448.996094 358.242188 450.46875 358.542969 452.269531 358.542969 C 453.472656 358.542969 454.539062 358.308594 455.476562 357.859375 C 456.410156 357.390625 457.210938 356.804688 457.878906 356.070312 C 458.546875 355.355469 459.046875 354.535156 459.378906 353.617188 C 459.714844 352.699219 459.882812 351.816406 459.882812 350.964844 C 459.882812 350.363281 459.796875 349.460938 459.632812 348.242188 C 459.464844 347.042969 459.265625 345.621094 459.03125 344.019531 C 458.796875 342.398438 458.511719 340.679688 458.179688 338.84375 C 457.84375 337.007812 457.511719 335.171875 457.175781 333.320312 L 450.769531 297.28125 C 450.367188 295.179688 449.78125 293.476562 449.015625 292.160156 C 448.246094 290.839844 447.363281 289.820312 446.359375 289.105469 C 445.359375 288.386719 444.308594 287.886719 443.207031 287.636719 C 442.105469 287.367188 441.054688 287.234375 440.050781 287.234375 C 438.050781 287.234375 436.378906 287.550781 435.042969 288.167969 C 433.707031 288.789062 432.539062 289.773438 431.539062 291.125 C 430.539062 292.476562 429.621094 294.246094 428.785156 296.449219 C 427.949219 298.632812 427.03125 301.320312 426.03125 304.476562 L 418.117188 328.597656 L 417.917969 328.597656 L 410.007812 304.476562 C 409.003906 301.320312 408.085938 298.632812 407.253906 296.449219 C 406.417969 294.246094 405.5 292.476562 404.5 291.125 C 403.496094 289.773438 402.328125 288.789062 400.992188 288.167969 C 399.65625 287.550781 397.988281 287.234375 395.984375 287.234375 C 394.984375 287.234375 393.933594 287.367188 392.832031 287.636719 C 391.730469 287.886719 390.675781 288.386719 389.675781 289.105469 C 388.675781 289.820312 387.789062 290.839844 387.023438 292.160156 C 386.253906 293.476562 385.667969 295.179688 385.269531 297.28125 Z M 465.492188 350.429688 C 465.492188 353.035156 466.308594 355.035156 467.945312 356.4375 C 469.578125 357.839844 471.464844 358.542969 473.601562 358.542969 L 499.039062 358.542969 C 501.578125 358.542969 503.5625 357.859375 505 356.488281 C 506.433594 355.121094 507.152344 353.300781 507.152344 351.03125 C 507.152344 348.695312 506.433594 346.855469 505 345.523438 C 503.5625 344.1875 501.578125 343.519531 499.039062 343.519531 L 481.714844 343.519531 L 481.714844 329.398438 L 497.039062 329.398438 C 499.574219 329.398438 501.558594 328.730469 502.996094 327.394531 C 504.433594 326.058594 505.148438 324.222656 505.148438 321.886719 C 505.148438 319.550781 504.433594 317.714844 502.996094 316.378906 C 501.558594 315.042969 499.574219 314.375 497.039062 314.375 L 481.714844 314.375 L 481.714844 302.257812 L 498.4375 302.257812 C 500.976562 302.257812 502.960938 301.589844 504.398438 300.253906 C 505.835938 298.917969 506.550781 297.082031 506.550781 294.746094 C 506.550781 292.476562 505.835938 290.65625 504.398438 289.289062 C 502.960938 287.917969 500.976562 287.234375 498.4375 287.234375 L 473.601562 287.234375 C 471.464844 287.234375 469.578125 287.9375 467.945312 289.339844 C 466.308594 290.738281 465.492188 292.742188 465.492188 295.347656 Z M 511.859375 350.078125 C 511.859375 352.898438 512.628906 355.019531 514.164062 356.421875 C 515.699219 357.839844 517.636719 358.542969 519.972656 358.542969 C 522.308594 358.542969 524.246094 357.839844 525.78125 356.421875 C 527.316406 355.019531 528.085938 352.898438 528.085938 350.078125 L 528.085938 316.777344 L 528.285156 316.777344 L 555.226562 349.980469 C 556.558594 351.613281 557.695312 353 558.628906 354.101562 C 559.566406 355.21875 560.433594 356.105469 561.234375 356.773438 C 562.035156 357.421875 562.835938 357.890625 563.636719 358.140625 C 564.4375 358.410156 565.371094 358.542969 566.441406 358.542969 C 568.777344 358.542969 570.714844 357.839844 572.25 356.421875 C 573.785156 355.019531 574.554688 352.898438 574.554688 350.078125 L 574.554688 295.699219 C 574.554688 292.875 573.785156 290.757812 572.25 289.355469 C 570.714844 287.9375 568.777344 287.234375 566.441406 287.234375 C 564.105469 287.234375 562.167969 287.9375 560.632812 289.355469 C 559.097656 290.757812 558.332031 292.875 558.332031 295.699219 L 558.332031 328.996094 L 558.128906 328.996094 L 531.1875 295.796875 C 529.855469 294.09375 528.71875 292.691406 527.785156 291.625 C 526.847656 290.539062 525.980469 289.671875 525.179688 289.003906 C 524.378906 288.351562 523.578125 287.886719 522.777344 287.636719 C 521.972656 287.367188 521.039062 287.234375 519.972656 287.234375 C 517.636719 287.234375 515.699219 287.9375 514.164062 289.355469 C 512.628906 290.757812 511.859375 292.875 511.859375 295.699219 Z M 598.589844 302.257812 L 607.902344 302.257812 C 613.84375 302.257812 618.300781 304.109375 621.273438 307.816406 C 624.246094 311.523438 625.730469 316.378906 625.730469 322.386719 C 625.730469 325.460938 625.363281 328.296875 624.628906 330.902344 C 623.894531 333.503906 622.757812 335.742188 621.222656 337.609375 C 619.6875 339.480469 617.75 340.933594 615.414062 341.96875 C 613.078125 343 610.339844 343.519531 607.203125 343.519531 L 598.589844 343.519531 Z M 582.367188 350.429688 C 582.367188 353.035156 583.183594 355.035156 584.820312 356.4375 C 586.453125 357.839844 588.339844 358.542969 590.476562 358.542969 L 609.90625 358.542969 C 614.3125 358.542969 618.519531 357.757812 622.527344 356.1875 C 626.53125 354.617188 630.070312 352.300781 633.140625 349.226562 C 636.214844 346.15625 638.648438 342.367188 640.453125 337.859375 C 642.253906 333.355469 643.15625 328.195312 643.15625 322.386719 C 643.15625 317.78125 642.421875 313.375 640.953125 309.167969 C 639.484375 304.960938 637.332031 301.222656 634.496094 297.949219 C 631.65625 294.679688 628.183594 292.074219 624.078125 290.140625 C 619.972656 288.203125 615.246094 287.234375 609.90625 287.234375 L 590.476562 287.234375 C 588.339844 287.234375 586.453125 287.9375 584.820312 289.339844 C 583.183594 290.738281 582.367188 292.742188 582.367188 295.347656 Z M 649.167969 350.429688 C 649.167969 353.035156 649.984375 355.035156 651.621094 356.4375 C 653.253906 357.839844 655.144531 358.542969 657.277344 358.542969 L 682.71875 358.542969 C 685.253906 358.542969 687.242188 357.859375 688.675781 356.488281 C 690.109375 355.121094 690.828125 353.300781 690.828125 351.03125 C 690.828125 348.695312 690.109375 346.855469 688.675781 345.523438 C 687.242188 344.1875 685.253906 343.519531 682.71875 343.519531 L 665.390625 343.519531 L 665.390625 329.398438 L 680.714844 329.398438 C 683.25 329.398438 685.238281 328.730469 686.671875 327.394531 C 688.109375 326.058594 688.824219 324.222656 688.824219 321.886719 C 688.824219 319.550781 688.109375 317.714844 686.671875 316.378906 C 685.238281 315.042969 683.25 314.375 680.714844 314.375 L 665.390625 314.375 L 665.390625 302.257812 L 682.117188 302.257812 C 684.652344 302.257812 686.640625 301.589844 688.074219 300.253906 C 689.511719 298.917969 690.226562 297.082031 690.226562 294.746094 C 690.226562 292.476562 689.511719 290.65625 688.074219 289.289062 C 686.640625 287.917969 684.652344 287.234375 682.117188 287.234375 L 657.277344 287.234375 C 655.144531 287.234375 653.253906 287.9375 651.621094 289.339844 C 649.984375 290.738281 649.167969 292.742188 649.167969 295.347656 Z M 711.761719 302.257812 L 721.074219 302.257812 C 727.015625 302.257812 731.472656 304.109375 734.445312 307.816406 C 737.414062 311.523438 738.902344 316.378906 738.902344 322.386719 C 738.902344 325.460938 738.535156 328.296875 737.800781 330.902344 C 737.066406 333.503906 735.929688 335.742188 734.394531 337.609375 C 732.859375 339.480469 730.921875 340.933594 728.585938 341.96875 C 726.25 343 723.511719 343.519531 720.375 343.519531 L 711.761719 343.519531 Z M 695.535156 350.429688 C 695.535156 353.035156 696.355469 355.035156 697.988281 356.4375 C 699.625 357.839844 701.511719 358.542969 703.648438 358.542969 L 723.078125 358.542969 C 727.484375 358.542969 731.691406 357.757812 735.695312 356.1875 C 739.703125 354.617188 743.242188 352.300781 746.3125 349.226562 C 749.382812 346.15625 751.820312 342.367188 753.625 337.859375 C 755.425781 333.355469 756.328125 328.195312 756.328125 322.386719 C 756.328125 317.78125 755.59375 313.375 754.125 309.167969 C 752.65625 304.960938 750.5 301.222656 747.664062 297.949219 C 744.828125 294.679688 741.355469 292.074219 737.25 290.140625 C 733.144531 288.203125 728.417969 287.234375 723.078125 287.234375 L 703.648438 287.234375 C 701.511719 287.234375 699.625 287.9375 697.988281 289.339844 C 696.355469 290.738281 695.535156 292.742188 695.535156 295.347656 Z M 695.535156 350.429688 " fill-opacity="1" fill-rule="nonzero"/><path fill="#f0c020" d="M 85.570312 201.113281 L 92.714844 219.628906 L 112.535156 220.703125 L 97.132812 233.21875 L 102.234375 252.398438 L 85.570312 241.617188 L 68.90625 252.398438 L 74.011719 233.21875 L 58.609375 220.703125 L 78.425781 219.628906 Z M 85.570312 201.113281 " fill-opacity="1" fill-rule="evenodd"/><path fill="#f0c020" d="M 161.449219 201.113281 L 168.59375 219.628906 L 188.410156 220.703125 L 173.007812 233.21875 L 178.113281 252.398438 L 161.449219 241.617188 L 144.785156 252.398438 L 149.886719 233.21875 L 134.484375 220.703125 L 154.304688 219.628906 Z M 161.449219 201.113281 " fill-opacity="1" fill-rule="evenodd"/><path fill="#f0c020" d="M 237.328125 201.113281 L 244.472656 219.628906 L 264.289062 220.703125 L 248.886719 233.21875 L 253.992188 252.398438 L 237.328125 241.617188 L 220.664062 252.398438 L 225.765625 233.21875 L 210.363281 220.703125 L 230.179688 219.628906 Z M 237.328125 201.113281 " fill-opacity="1" fill-rule="evenodd"/><path fill="#f0c020" d="M 572.671875 201.113281 L 579.816406 219.628906 L 599.632812 220.703125 L 584.234375 233.21875 L 589.335938 252.398438 L 572.671875 241.617188 L 556.007812 252.398438 L 561.109375 233.21875 L 545.710938 220.703125 L 565.527344 219.628906 Z M 572.671875 201.113281 " fill-opacity="1" fill-rule="evenodd"/><path fill="#f0c020" d="M 648.550781 201.113281 L 655.695312 219.628906 L 675.511719 220.703125 L 660.109375 233.21875 L 665.214844 252.398438 L 648.550781 241.617188 L 631.886719 252.398438 L 636.988281 233.21875 L 621.585938 220.703125 L 641.402344 219.628906 Z M 648.550781 201.113281 " fill-opacity="1" fill-rule="evenodd"/><path fill="#f0c020" d="M 724.425781 201.113281 L 731.570312 219.628906 L 751.390625 220.703125 L 735.988281 233.21875 L 741.089844 252.398438 L 724.425781 241.617188 L 707.765625 252.398438 L 712.867188 233.21875 L 697.464844 220.703125 L 717.28125 219.628906 Z M 724.425781 201.113281 " fill-opacity="1" fill-rule="evenodd"/><g clip-path="url(#2bca40c223)"><path fill="#ff0025" d="M 171.613281 28.125 L 270.515625 144.050781 L 209.714844 12.722656 Z M 171.613281 28.125 " fill-opacity="1" fill-rule="evenodd"/></g><path fill="#ff0025" d="M 155.398438 74.335938 L 195.933594 131.082031 L 128.648438 105.140625 Z M 155.398438 74.335938 " fill-opacity="1" fill-rule="evenodd"/><path fill="#ff0025" d="M 268.082031 25.695312 L 286.726562 84.0625 L 285.917969 25.695312 Z M 268.082031 25.695312 " fill-opacity="1" fill-rule="evenodd"/><g clip-path="url(#d2e8f28a07)"><path fill="#ff0025" d="M 638.382812 28.125 L 539.484375 144.050781 L 600.28125 12.722656 Z M 638.382812 28.125 " fill-opacity="1" fill-rule="evenodd"/></g><path fill="#ff0025" d="M 654.597656 74.335938 L 614.066406 131.082031 L 681.351562 105.140625 Z M 654.597656 74.335938 " fill-opacity="1" fill-rule="evenodd"/><path fill="#ff0025" d="M 541.914062 25.695312 L 523.269531 84.0625 L 524.082031 25.695312 Z M 541.914062 25.695312 " fill-opacity="1" fill-rule="evenodd"/></svg>