<svg xmlns="http://www.w3.org/2000/svg" xmlns:xlink="http://www.w3.org/1999/xlink" width="1080" zoomAndPan="magnify" viewBox="0 0 810 809.999993" height="1080" preserveAspectRatio="xMidYMid meet" version="1.0"><path fill="#000000" d="M 404.875 810 C 628.039062 810 810 628.007812 810 405.125 C 810 181.960938 628.007812 0 404.875 0 C 181.992188 0 0 181.992188 0 405.125 C 0 628.007812 181.992188 810 404.875 810 Z M 404.875 810 " fill-opacity="1" fill-rule="evenodd"/><path fill="#fe0000" d="M 646.664062 409.882812 C 650.550781 363.425781 635.25 301.363281 609.660156 262.402344 L 602.417969 251.269531 C 570.980469 202.859375 514.761719 165.015625 459.382812 149.996094 L 447.972656 147.480469 C 439.886719 146.917969 434.351562 156.652344 437.121094 163.898438 C 439.886719 171.421875 445.734375 170.582031 452.417969 172.230469 C 467.996094 176.675781 484.414062 182.800781 498.871094 190.328125 C 514.171875 198.660156 529.191406 207.863281 542.558594 219.554688 C 577.355469 249.871094 601.265625 286.066406 614.355469 330.59375 C 623.527344 361.46875 626.605469 400.148438 620.480469 431.863281 C 619.363281 438.269531 617.964844 443.835938 623.25 448.5625 C 626.855469 451.890625 633.261719 452.167969 637.429688 449.683594 C 643.554688 446.074219 642.714844 439.390625 644.113281 432.984375 Z M 399.589844 636.929688 C 445.796875 660.035156 498.375 672.285156 547.070312 653.066406 C 566.8125 645.261719 616.625 611.898438 603.566406 582.390625 C 598.558594 570.421875 552.074219 520.046875 543.742188 510.875 C 536.21875 502.789062 519.269531 481.925781 509.785156 478.878906 C 488.921875 471.355469 460.8125 496.695312 449.121094 513.671875 C 444.675781 519.519531 443.277344 536.496094 439.390625 538.425781 C 403.789062 557.082031 282.738281 414.046875 278.570312 370.921875 C 276.613281 353.382812 279.132812 353.945312 293.308594 352.824219 C 306.679688 351.425781 312.496094 345.859375 320.019531 339.453125 C 328.632812 331.648438 344.492188 320.269531 347.570312 309.136719 C 355.375 279.347656 284.417969 215.078125 266.320312 195.054688 C 259.074219 188.085938 258.515625 185.039062 243.777344 183.640625 C 233.207031 182.800781 226.242188 187.527344 220.675781 191.972656 L 194.492188 215.355469 C 179.195312 231.773438 171.671875 247.074219 166.382812 271.574219 C 157.769531 310.535156 165.542969 346.417969 176.957031 382.613281 C 208.953125 485.566406 298.84375 573.21875 388.707031 631.085938 C 392.625 633.042969 395.390625 634.691406 399.589844 636.929688 Z M 502.542969 415.449219 C 508.386719 392.90625 502.542969 363.957031 492.25 343.371094 C 477.511719 314.144531 452.730469 296.917969 422.132812 287.152344 C 398.191406 279.628906 397.910156 306.089844 409.882812 308.578125 C 428.816406 312.183594 446.324219 321.667969 459.132812 336.125 C 476.113281 355.589844 485.285156 383.421875 480.277344 409.042969 C 479.71875 411.808594 478.597656 415.726562 479.160156 418.214844 C 480.839844 424.621094 485.84375 427.386719 492.25 427.109375 C 495.015625 427.109375 497.816406 425.429688 499.773438 423.5 C 502.261719 420.734375 501.703125 419.054688 502.542969 415.449219 Z M 575.425781 409.042969 C 577.945312 367.875 567.902344 326.953125 544.550781 292.71875 C 522.566406 260.164062 490.851562 236.222656 453.847656 222.882812 C 446.324219 220.363281 431.867188 213.710938 424.339844 218.714844 C 417.375 223.160156 417.09375 234.851562 425.179688 238.738281 L 442.15625 243.464844 C 442.15625 243.464844 442.15625 243.464844 442.4375 243.464844 C 448.5625 245.707031 454.410156 247.914062 460.253906 250.710938 C 522.597656 279.101562 557.921875 343.371094 551.796875 411 C 551.234375 416.847656 549.554688 423.253906 549.277344 428.816406 C 548.714844 437.710938 560.96875 441.628906 567.375 437.710938 C 573.5 433.824219 573.777344 423.8125 574.617188 417.40625 C 574.867188 414.609375 575.148438 411.808594 575.425781 409.042969 Z M 575.425781 409.042969 " fill-opacity="1" fill-rule="evenodd"/></svg>