<svg xmlns="http://www.w3.org/2000/svg" xmlns:xlink="http://www.w3.org/1999/xlink" width="500" zoomAndPan="magnify" viewBox="0 0 375 1199.999942" height="1600" preserveAspectRatio="xMidYMid meet" version="1.0"><defs><clipPath id="0a590d3710"><path d="M 0 0 L 375 0 L 375 83.972656 L 0 83.972656 Z M 0 0 " clip-rule="nonzero"/></clipPath><clipPath id="390faf82d9"><path d="M 0 77.953125 L 375 77.953125 L 375 1200 L 0 1200 Z M 0 77.953125 " clip-rule="nonzero"/></clipPath></defs><rect x="-37.5" width="450" fill="#ffffff" y="-119.999994" height="1439.999931" fill-opacity="1"/><rect x="-37.5" width="450" fill="#ffffff" y="-119.999994" height="1439.999931" fill-opacity="1"/><g clip-path="url(#0a590d3710)"><path fill="#e62020" d="M 397.328125 -9.027344 C 377.773438 25.042969 341.816406 37.640625 303.28125 38.375 C 249.570312 39.488281 196.636719 18.753906 143.65625 11.332031 C 103.65625 5.773438 50.699219 1.375 14.03125 23.21875 C -0.769531 32.132812 -16.679688 50.910156 -12.613281 84.019531 L 397.328125 84.019531 Z M 397.328125 -9.027344 " fill-opacity="1" fill-rule="nonzero"/></g><g clip-path="url(#390faf82d9)"><path fill="#e62020" d="M 1233.882812 77.953125 L 13.085938 77.953125 C -12.832031 77.953125 -33.867188 98.988281 -33.867188 124.90625 L -33.867188 1345.703125 C -33.867188 1371.714844 -12.832031 1392.65625 13.085938 1392.65625 L 1233.882812 1392.65625 C 1259.800781 1392.65625 1280.835938 1371.621094 1280.835938 1345.703125 L 1280.835938 124.90625 C 1280.835938 98.988281 1259.800781 77.953125 1233.882812 77.953125 Z M 1233.882812 77.953125 " fill-opacity="1" fill-rule="nonzero"/></g></svg>