<svg xmlns="http://www.w3.org/2000/svg" xmlns:xlink="http://www.w3.org/1999/xlink" width="1080" zoomAndPan="magnify" viewBox="0 0 810 809.999993" height="1080" preserveAspectRatio="xMidYMid meet" version="1.0"><defs><filter x="0%" y="0%" width="100%" height="100%" id="185b544653"><feColorMatrix values="0 0 0 0 1 0 0 0 0 1 0 0 0 0 1 0 0 0 1 0" color-interpolation-filters="sRGB"/></filter><mask id="a7fd76fce8"><g filter="url(#185b544653)"><rect x="-81" width="972" fill="#000000" y="-80.999999" height="971.999992" fill-opacity="0.36"/></g></mask><clipPath id="3f69415929"><path d="M 435 0.375 L 759 0.375 L 759 539.566406 L 435 539.566406 Z M 435 0.375 " clip-rule="nonzero"/></clipPath><clipPath id="35f37ce4ad"><path d="M 0.988281 0.375 L 325 0.375 L 325 539.566406 L 0.988281 539.566406 Z M 0.988281 0.375 " clip-rule="nonzero"/></clipPath><clipPath id="d6a54a0588"><rect x="0" width="760" y="0" height="541"/></clipPath></defs><g mask="url(#a7fd76fce8)"><g transform="matrix(1, 0, 0, 1, 25, 135)"><g clip-path="url(#d6a54a0588)"><g clip-path="url(#3f69415929)"><path fill="#f72323" d="M 750.539062 119.050781 C 750.511719 118.910156 750.492188 118.773438 750.460938 118.628906 L 750.4375 118.640625 C 731.789062 50.585938 669.5625 0.375 595.671875 0.375 C 507.105469 0.375 435.058594 72.421875 435.058594 160.984375 C 435.058594 249.542969 507.105469 321.601562 595.671875 321.601562 C 614.683594 321.601562 632.851562 318.101562 649.792969 312.011719 C 648.300781 329.199219 645.1875 346.515625 640.300781 363.660156 C 630.398438 398.9375 612.433594 432.855469 588.28125 463.152344 C 564.066406 493.410156 533.15625 519.792969 497.171875 539.566406 C 537.1875 530.6875 576.496094 513.53125 611.898438 488.75 C 647.199219 463.953125 679.0625 431.816406 703.292969 393.375 C 727.640625 355.054688 745.089844 310.910156 753.386719 263.914062 C 759.890625 226.570312 760.867188 187.667969 755.667969 148.777344 C 754.890625 138.5625 753.144531 128.644531 750.539062 119.050781 " fill-opacity="1" fill-rule="nonzero"/></g><g clip-path="url(#35f37ce4ad)"><path fill="#f72323" d="M 316.480469 119.078125 C 316.445312 118.925781 316.425781 118.777344 316.390625 118.628906 L 316.367188 118.640625 C 297.71875 50.585938 235.492188 0.375 161.601562 0.375 C 73.035156 0.375 0.988281 72.421875 0.988281 160.984375 C 0.988281 249.542969 73.035156 321.601562 161.601562 321.601562 C 180.613281 321.601562 198.785156 318.101562 215.722656 312.011719 C 214.238281 329.199219 211.117188 346.515625 206.238281 363.660156 C 196.335938 398.9375 178.367188 432.855469 154.21875 463.152344 C 129.996094 493.410156 99.089844 519.792969 63.109375 539.566406 C 103.117188 530.6875 142.433594 513.53125 177.835938 488.75 C 213.136719 463.953125 244.992188 431.816406 269.230469 393.375 C 293.570312 355.054688 311.027344 310.910156 319.316406 263.914062 C 325.824219 226.5625 326.804688 187.65625 321.597656 148.753906 C 320.820312 138.5625 319.074219 128.65625 316.480469 119.078125 " fill-opacity="1" fill-rule="nonzero"/></g></g></g></g></svg>