<svg xmlns="http://www.w3.org/2000/svg" xmlns:xlink="http://www.w3.org/1999/xlink" width="1080" zoomAndPan="magnify" viewBox="0 0 810 809.999993" height="1080" preserveAspectRatio="xMidYMid meet" version="1.0"><defs><clipPath id="9f4bb8958c"><path d="M 49 48.453125 L 761 48.453125 L 761 761.703125 L 49 761.703125 Z M 49 48.453125 " clip-rule="nonzero"/></clipPath></defs><g clip-path="url(#9f4bb8958c)"><path fill="#0277b5" d="M 702.117188 48.453125 L 108.394531 48.453125 C 75.570312 48.453125 49.167969 75.214844 49.167969 107.683594 L 49.167969 702.472656 C 49.167969 735.300781 75.925781 761.703125 108.394531 761.703125 L 701.761719 761.703125 C 734.585938 761.703125 760.988281 734.941406 760.988281 702.472656 L 760.988281 107.683594 C 761.347656 75.214844 734.941406 48.453125 702.117188 48.453125 Z M 260.039062 636.820312 L 154.78125 636.820312 L 154.78125 320.695312 L 260.039062 320.695312 Z M 207.230469 282.515625 C 174.046875 282.515625 147.289062 255.757812 147.289062 222.574219 C 147.289062 189.390625 174.046875 162.628906 207.230469 162.628906 C 240.414062 162.628906 267.171875 189.390625 267.171875 222.574219 C 267.171875 255.757812 240.414062 282.515625 207.230469 282.515625 Z M 656.089844 636.820312 L 550.476562 636.820312 L 547.976562 449.144531 C 547.976562 449.144531 550.476562 399.191406 495.882812 399.546875 C 441.292969 399.90625 433.800781 449.144531 433.800781 449.144531 L 433.800781 636.820312 L 327.472656 636.820312 L 327.472656 320.695312 L 429.519531 320.695312 L 429.519531 364.222656 C 429.519531 364.222656 433.800781 349.953125 457.351562 333.183594 C 480.898438 316.414062 519.789062 312.84375 536.558594 313.558594 C 553.328125 314.273438 576.164062 311.417969 614.34375 337.820312 C 655.375 366.007812 656.445312 439.867188 656.445312 439.867188 Z M 656.089844 636.820312 " fill-opacity="1" fill-rule="nonzero"/></g></svg>