<svg xmlns="http://www.w3.org/2000/svg" xmlns:xlink="http://www.w3.org/1999/xlink" width="1080" zoomAndPan="magnify" viewBox="0 0 810 809.999993" height="1080" preserveAspectRatio="xMidYMid meet" version="1.0"><defs><clipPath id="bb4306148b"><path d="M 59.386719 379 L 770.289062 379 L 770.289062 705.757812 L 59.386719 705.757812 Z M 59.386719 379 " clip-rule="nonzero"/></clipPath><clipPath id="fb0fa59bbc"><path d="M 39.789062 201 L 710 201 L 710 488 L 39.789062 488 Z M 39.789062 201 " clip-rule="nonzero"/></clipPath><clipPath id="19fe9f9f15"><path d="M 57 103.703125 L 651 103.703125 L 651 300 L 57 300 Z M 57 103.703125 " clip-rule="nonzero"/></clipPath></defs><rect x="-81" width="972" fill="#ffffff" y="-80.999999" height="971.999992" fill-opacity="1"/><rect x="-81" width="972" fill="#ffffff" y="-80.999999" height="971.999992" fill-opacity="1"/><g clip-path="url(#bb4306148b)"><path fill="#5baab5" d="M 770.117188 473.882812 L 769.703125 478.710938 C 769.503906 479.960938 768.792969 481.054688 767.769531 481.652344 C 642.921875 555.78125 515 627.992188 386.265625 704.351562 C 384.015625 705.6875 381.390625 706.09375 378.882812 705.472656 C 279.457031 681.128906 177.769531 657.210938 76.09375 638.269531 C 67.714844 635.515625 62.40625 627.316406 60.738281 618.796875 C 59.054688 610.269531 60.371094 601.390625 62.109375 592.863281 C 63.480469 586.226562 65.21875 579.398438 69.332031 574.234375 C 72.789062 569.910156 77.59375 567.15625 82.308594 564.53125 C 93.859375 558.046875 105.40625 551.5625 113.976562 548.507812 C 228.492188 482.882812 347.167969 425.726562 462.003906 379.84375 C 533.867188 388.53125 731.160156 420.164062 766.914062 422.675781 C 767.503906 422.734375 768.003906 423.234375 768.046875 423.875 C 768.203125 425.480469 767.984375 427.351562 768.121094 428.96875 C 768.183594 429.710938 767.875 430.421875 767.292969 430.820312 C 764.382812 432.824219 760.683594 434.847656 756.996094 436.851562 L 756.996094 436.867188 C 756.789062 436.953125 756.617188 437.066406 756.414062 437.164062 C 756.347656 437.207031 756.28125 437.242188 756.214844 437.28125 C 752.320312 439.398438 748.484375 441.511719 745.691406 443.566406 C 745.671875 443.566406 745.640625 443.585938 745.625 443.597656 C 745.09375 449.851562 744.664062 456.824219 745.191406 464.132812 C 748.167969 464.648438 750.578125 465.164062 752.714844 465.699219 C 758.289062 467.058594 761.011719 466.734375 767.207031 468.578125 C 768.246094 468.898438 769.359375 469.421875 769.917969 470.433594 C 770.464844 471.453125 770.300781 472.726562 770.117188 473.882812 " fill-opacity="1" fill-rule="nonzero"/></g><path fill="#fae3d4" d="M 752.714844 465.699219 C 626.46875 542.019531 511.289062 602.335938 374.601562 681.058594 C 372.15625 682.46875 369.300781 682.839844 366.585938 682.269531 C 272.824219 662.421875 176.316406 642.484375 79.164062 622.078125 C 78.257812 621.882812 77.433594 621.398438 76.835938 620.652344 C 66.554688 607.449219 76.390625 587.546875 79.351562 586.296875 C 81.226562 585.476562 83.382812 585.59375 85.394531 585.957031 C 185.105469 604.164062 276.230469 626.335938 373.179688 644.039062 C 377.292969 644.789062 381.492188 644.523438 385.296875 642.644531 C 481.542969 594.765625 677.503906 480.707031 751.703125 439.777344 C 751.164062 446.027344 750.578125 465.164062 752.714844 465.699219 " fill-opacity="1" fill-rule="nonzero"/><path fill="#006e7d" d="M 665.121094 437.667969 C 664.660156 439.074219 499.800781 533.941406 370.285156 602.296875 C 367.90625 603.546875 365.324219 603.945312 362.804688 603.4375 C 273.136719 585.058594 150.144531 554.976562 59.839844 541.75 C 59.429688 541.667969 59.109375 541.1875 59.074219 540.578125 C 59.015625 539.804688 58.828125 539.039062 58.789062 538.238281 C 58.71875 537.097656 59.265625 535.660156 60.007812 535.660156 C 66.300781 531.898438 76.523438 529.148438 77.757812 528.625 C 78.3125 515.078125 79.585938 468.898438 78.746094 455.21875 L 58.324219 451.265625 C 57.894531 451.125 57.5625 450.703125 57.449219 450.113281 C 57.070312 448.125 57.167969 445.414062 57.21875 443.34375 C 57.242188 442.382812 57.375 441.613281 57.855469 441.300781 C 194.722656 381.570312 238.871094 375.5 375.589844 326.054688 C 376.449219 325.734375 377.351562 325.628906 378.230469 325.683594 C 469.523438 331.128906 582.75 346.035156 664.152344 355.195312 C 664.636719 355.253906 665.070312 355.625 665.273438 356.242188 C 669.40625 368.324219 671.164062 419.757812 665.121094 437.667969 " fill-opacity="1" fill-rule="nonzero"/><path fill="#fae3d4" d="M 362.390625 583.171875 C 362.019531 583.9375 361.324219 584.339844 360.667969 584.207031 C 276.5 566.96875 76.558594 529.132812 77.757812 528.625 C 78.3125 515.078125 79.585938 468.898438 78.746094 455.21875 C 164.242188 470.363281 276.332031 489.074219 358.011719 505.550781 C 359.992188 505.945312 361.792969 507.511719 362.964844 509.855469 C 367.515625 518.988281 368.1875 571.429688 362.390625 583.171875 " fill-opacity="1" fill-rule="nonzero"/><g clip-path="url(#fb0fa59bbc)"><path fill="#fdaa1e" d="M 705.347656 306.027344 C 704.878906 307.34375 485.890625 422.550781 355.386719 486.257812 C 352.996094 487.421875 350.394531 487.792969 347.855469 487.320312 C 257.507812 470.1875 133.582031 442.160156 42.601562 429.824219 C 42.1875 429.753906 41.867188 429.3125 41.828125 428.742188 C 41.773438 428.019531 41.585938 427.300781 41.546875 426.554688 C 41.472656 425.5 42.011719 424.160156 42.773438 424.160156 C 49.109375 420.648438 59.410156 418.078125 60.652344 417.601562 C 61.214844 404.972656 62.496094 361.9375 61.648438 349.183594 L 41.078125 345.496094 C 40.644531 345.375 40.300781 344.976562 40.191406 344.433594 C 39.816406 342.574219 39.90625 340.050781 39.96875 338.117188 C 39.984375 337.222656 40.117188 336.507812 40.605469 336.210938 C 178.507812 280.550781 275.882812 248.09375 413.625 202.011719 C 414.492188 201.714844 415.398438 201.617188 416.285156 201.664062 C 508.265625 206.742188 622.355469 220.628906 704.371094 229.171875 C 704.859375 229.222656 705.292969 229.566406 705.496094 230.136719 C 709.664062 241.410156 711.4375 289.339844 705.347656 306.027344 " fill-opacity="1" fill-rule="nonzero"/></g><path fill="#fae3d4" d="M 347.4375 468.429688 C 347.066406 469.144531 346.359375 469.519531 345.699219 469.398438 C 260.898438 453.320312 59.449219 418.066406 60.652344 417.601562 C 61.214844 404.972656 62.496094 361.9375 61.648438 349.183594 C 147.789062 363.296875 260.730469 380.738281 343.027344 396.089844 C 345.023438 396.460938 346.832031 397.925781 348.023438 400.101562 C 352.601562 408.617188 353.273438 457.484375 347.4375 468.429688 " fill-opacity="1" fill-rule="nonzero"/><path fill="#ff6d56" d="M 643.804688 239.449219 C 643.386719 240.394531 451.285156 323.535156 336.8125 369.5 C 334.710938 370.339844 332.433594 370.605469 330.199219 370.269531 C 250.949219 357.90625 142.246094 337.679688 62.425781 328.78125 C 62.066406 328.722656 61.785156 328.40625 61.757812 327.996094 C 61.703125 327.472656 61.542969 326.960938 61.503906 326.421875 C 61.441406 325.652344 61.917969 324.6875 62.582031 324.6875 C 68.140625 322.160156 77.179688 320.308594 78.265625 319.957031 C 78.761719 310.847656 79.886719 279.789062 79.140625 270.589844 L 61.089844 267.929688 C 60.710938 267.84375 60.414062 267.558594 60.316406 267.164062 C 59.988281 265.820312 60.066406 264 60.121094 262.605469 C 60.132812 261.964844 60.25 261.441406 60.675781 261.226562 C 181.644531 221.070312 267.0625 197.640625 387.898438 164.390625 C 388.660156 164.175781 389.457031 164.105469 390.230469 164.144531 C 470.914062 167.808594 570.996094 177.828125 642.945312 183.992188 C 643.371094 184.03125 643.757812 184.28125 643.933594 184.683594 C 647.585938 192.820312 649.140625 227.410156 643.804688 239.449219 " fill-opacity="1" fill-rule="nonzero"/><path fill="#fae3d4" d="M 329.417969 359.316406 C 329.089844 359.839844 328.480469 360.105469 327.90625 360.015625 C 253.507812 348.421875 77.207031 320.296875 78.265625 319.957031 C 78.761719 310.847656 79.886719 279.789062 79.140625 270.589844 C 154.703125 280.773438 253.773438 298.515625 325.964844 309.59375 C 327.722656 309.863281 329.308594 310.914062 330.347656 312.488281 C 334.363281 318.636719 334.542969 351.417969 329.417969 359.316406 " fill-opacity="1" fill-rule="nonzero"/><g clip-path="url(#19fe9f9f15)"><path fill="#506799" d="M 645.855469 161.324219 C 645.445312 162.269531 644.644531 162.988281 643.742188 163.34375 C 531.191406 207.957031 418.632812 252.550781 304.160156 298.519531 C 302.058594 299.363281 299.78125 299.628906 297.546875 299.285156 C 218.296875 286.925781 139.34375 270.269531 59.53125 261.375 C 59.167969 261.324219 58.882812 261.003906 58.851562 260.589844 C 58.804688 260.070312 58.636719 259.554688 58.601562 259.019531 C 58.535156 258.25 59.015625 257.285156 59.679688 257.285156 C 65.238281 254.75 74.277344 252.898438 75.363281 252.550781 C 75.859375 243.4375 76.980469 237.398438 76.238281 228.199219 L 58.195312 225.535156 C 57.8125 225.441406 57.507812 225.15625 57.414062 224.765625 C 57.082031 223.425781 57.167969 221.605469 57.214844 220.210938 C 57.230469 219.570312 57.347656 219.050781 57.777344 218.835938 C 178.75 178.667969 300.523438 137.378906 421.363281 104.132812 C 422.117188 103.917969 422.914062 103.847656 423.6875 103.886719 C 504.382812 107.546875 574.703125 113.996094 646.652344 120.160156 C 647.082031 120.191406 647.464844 120.445312 647.640625 120.859375 C 651.292969 128.984375 651.195312 149.28125 645.855469 161.324219 " fill-opacity="1" fill-rule="nonzero"/></g><path fill="#fae3d4" d="M 297.183594 285.65625 C 296.855469 286.175781 296.246094 286.445312 295.667969 286.355469 C 221.273438 274.757812 74.304688 252.894531 75.363281 252.550781 C 75.859375 243.4375 76.980469 237.398438 76.238281 228.199219 C 151.808594 238.382812 221.121094 248.976562 293.316406 260.054688 C 295.066406 260.320312 296.65625 261.375 297.703125 262.949219 C 301.710938 269.097656 302.308594 277.761719 297.183594 285.65625 " fill-opacity="1" fill-rule="nonzero"/><path fill="#fae3d4" d="M 756.996094 436.851562 L 756.996094 436.867188 C 756.789062 436.953125 756.617188 437.066406 756.414062 437.164062 C 756.628906 437.066406 756.8125 436.953125 756.996094 436.851562 " fill-opacity="1" fill-rule="nonzero"/><path fill="#d8baa0" d="M 327.484375 330.339844 C 327.410156 330.339844 327.34375 330.335938 327.273438 330.320312 L 84.042969 290.4375 C 83.359375 290.328125 82.886719 289.671875 83 288.988281 C 83.109375 288.292969 83.757812 287.828125 84.457031 287.949219 L 327.6875 327.824219 C 328.371094 327.941406 328.839844 328.589844 328.730469 329.28125 C 328.625 329.902344 328.085938 330.339844 327.484375 330.339844 " fill-opacity="1" fill-rule="nonzero"/><path fill="#d8baa0" d="M 329.675781 320.691406 C 329.613281 320.691406 329.542969 320.6875 329.476562 320.675781 C 247.960938 307.398438 165.269531 294.335938 83.699219 281.847656 C 83.007812 281.742188 82.535156 281.097656 82.644531 280.40625 C 82.75 279.722656 83.390625 279.242188 84.082031 279.351562 C 165.660156 291.839844 248.355469 304.902344 329.878906 318.179688 C 330.574219 318.292969 331.039062 318.945312 330.921875 319.632812 C 330.828125 320.253906 330.289062 320.691406 329.675781 320.691406 " fill-opacity="1" fill-rule="nonzero"/><path fill="#d8baa0" d="M 328.097656 340.269531 C 328.03125 340.269531 327.964844 340.265625 327.902344 340.257812 C 306.847656 337.007812 285.570312 333.167969 264.664062 328.847656 C 202.730469 319.523438 141.730469 309.871094 82.746094 300.539062 L 82.582031 300.515625 C 81.894531 300.40625 81.421875 299.761719 81.53125 299.066406 C 81.640625 298.382812 82.289062 297.914062 82.984375 298.023438 L 83.140625 298.039062 C 142.121094 307.378906 203.121094 317.027344 265.117188 326.363281 C 286.042969 330.679688 307.277344 334.515625 328.28125 337.757812 C 328.976562 337.867188 329.445312 338.507812 329.34375 339.203125 C 329.242188 339.824219 328.707031 340.269531 328.097656 340.269531 " fill-opacity="1" fill-rule="nonzero"/><path fill="#d8baa0" d="M 329.539062 351.085938 C 329.445312 351.085938 329.351562 351.078125 329.261719 351.058594 C 299.421875 344.457031 268.734375 339.753906 239.058594 335.210938 L 83.789062 311.402344 C 83.101562 311.296875 82.625 310.652344 82.734375 309.957031 C 82.839844 309.273438 83.476562 308.800781 84.171875 308.902344 L 239.441406 332.707031 C 269.164062 337.261719 299.890625 341.976562 329.808594 348.589844 C 330.488281 348.738281 330.921875 349.414062 330.769531 350.097656 C 330.636719 350.683594 330.117188 351.085938 329.539062 351.085938 " fill-opacity="1" fill-rule="nonzero"/><path fill="#d8baa0" d="M 345.789062 426.113281 C 345.722656 426.113281 345.65625 426.109375 345.589844 426.09375 L 63.605469 380.816406 C 62.910156 380.703125 62.441406 380.058594 62.550781 379.367188 C 62.660156 378.679688 63.3125 378.203125 63.996094 378.324219 L 345.996094 423.597656 C 346.679688 423.707031 347.144531 424.359375 347.035156 425.046875 C 346.9375 425.667969 346.398438 426.113281 345.789062 426.113281 " fill-opacity="1" fill-rule="nonzero"/><path fill="#d8baa0" d="M 194.113281 414.660156 C 194.042969 414.660156 193.96875 414.65625 193.898438 414.648438 L 63.011719 392.570312 C 62.320312 392.457031 61.855469 391.804688 61.976562 391.121094 C 62.09375 390.425781 62.742188 389.96875 63.433594 390.078125 L 194.324219 412.152344 C 195.007812 412.269531 195.472656 412.921875 195.359375 413.605469 C 195.253906 414.222656 194.71875 414.660156 194.113281 414.660156 " fill-opacity="1" fill-rule="nonzero"/><path fill="#d8baa0" d="M 346.171875 439.15625 C 346.105469 439.15625 346.03125 439.152344 345.960938 439.136719 L 205.496094 415.753906 C 204.800781 415.636719 204.339844 414.988281 204.449219 414.300781 C 204.570312 413.617188 205.222656 413.140625 205.90625 413.265625 L 346.375 436.648438 C 347.070312 436.761719 347.53125 437.40625 347.421875 438.101562 C 347.316406 438.71875 346.78125 439.15625 346.171875 439.15625 " fill-opacity="1" fill-rule="nonzero"/><path fill="#ff6d56" d="M 266.648438 400.007812 C 259.632812 406.625 250.78125 413.441406 245.609375 420.402344 C 244.273438 422.203125 242.875 424.191406 240.828125 424.84375 C 239.402344 425.300781 237.875 425.023438 236.398438 424.753906 C 204.679688 418.789062 174.570312 411.28125 142.648438 408.203125 C 141.039062 408.046875 140.480469 405.828125 141.808594 404.824219 C 151.179688 397.71875 160.789062 391.261719 169.421875 385.730469 C 203.84375 391.660156 233.617188 396.292969 266.648438 400.007812 " fill-opacity="1" fill-rule="nonzero"/><path fill="#d8baa0" d="M 302.699219 444.445312 C 302.636719 444.445312 302.578125 444.441406 302.523438 444.429688 C 222.757812 433.148438 142.230469 419.324219 63.171875 403.335938 C 62.488281 403.195312 62.046875 402.527344 62.1875 401.84375 C 62.320312 401.160156 62.988281 400.714844 63.675781 400.855469 C 142.6875 416.832031 223.167969 430.652344 302.875 441.925781 C 303.566406 442.027344 304.050781 442.667969 303.949219 443.363281 C 303.863281 443.988281 303.324219 444.445312 302.699219 444.445312 " fill-opacity="1" fill-rule="nonzero"/><path fill="#d8baa0" d="M 346.550781 452.53125 C 346.503906 452.53125 346.445312 452.527344 346.394531 452.523438 C 334.144531 450.949219 321.785156 448.898438 309.667969 446.425781 C 308.976562 446.285156 308.535156 445.613281 308.675781 444.933594 C 308.816406 444.246094 309.488281 443.808594 310.171875 443.945312 C 322.230469 446.40625 334.53125 448.445312 346.714844 450.019531 C 347.40625 450.105469 347.898438 450.742188 347.8125 451.429688 C 347.726562 452.066406 347.183594 452.53125 346.550781 452.53125 " fill-opacity="1" fill-rule="nonzero"/><path fill="#d8baa0" d="M 345.625 461.722656 C 345.550781 461.722656 345.480469 461.707031 345.40625 461.699219 L 62.054688 412.300781 C 61.363281 412.179688 60.910156 411.523438 61.023438 410.839844 C 61.144531 410.148438 61.785156 409.691406 62.488281 409.808594 L 345.839844 459.210938 C 346.53125 459.328125 346.992188 459.988281 346.871094 460.671875 C 346.761719 461.285156 346.226562 461.722656 345.625 461.722656 " fill-opacity="1" fill-rule="nonzero"/><path fill="#d8baa0" d="M 358.585938 513.429688 C 358.535156 513.429688 358.472656 513.421875 358.410156 513.417969 C 266.179688 500.742188 173.140625 484.617188 81.859375 465.492188 C 81.179688 465.347656 80.742188 464.683594 80.886719 464.003906 C 81.027344 463.316406 81.703125 462.882812 82.382812 463.019531 C 173.59375 482.132812 266.585938 498.246094 358.757812 510.917969 C 359.445312 511.007812 359.9375 511.644531 359.835938 512.339844 C 359.75 512.96875 359.210938 513.429688 358.585938 513.429688 " fill-opacity="1" fill-rule="nonzero"/><path fill="#d8baa0" d="M 234.792969 513.390625 C 234.710938 513.390625 234.636719 513.378906 234.546875 513.363281 C 184.46875 503.5625 133.460938 495.300781 82.933594 488.800781 C 82.246094 488.714844 81.753906 488.078125 81.847656 487.382812 C 81.933594 486.695312 82.554688 486.21875 83.257812 486.296875 C 133.832031 492.800781 184.902344 501.074219 235.035156 510.886719 C 235.71875 511.023438 236.171875 511.683594 236.035156 512.363281 C 235.914062 512.96875 235.386719 513.390625 234.792969 513.390625 " fill-opacity="1" fill-rule="nonzero"/><path fill="#d8baa0" d="M 361.914062 534.617188 C 361.84375 534.617188 361.765625 534.605469 361.695312 534.597656 L 247.21875 514.769531 C 246.53125 514.644531 246.070312 513.992188 246.191406 513.308594 C 246.308594 512.625 246.964844 512.164062 247.652344 512.277344 L 362.128906 532.109375 C 362.8125 532.226562 363.28125 532.882812 363.152344 533.566406 C 363.050781 534.179688 362.519531 534.617188 361.914062 534.617188 " fill-opacity="1" fill-rule="nonzero"/><path fill="#d8baa0" d="M 361.84375 547.507812 C 361.777344 547.507812 361.714844 547.503906 361.644531 547.488281 C 269.296875 533.394531 175.78125 517.988281 83.714844 501.707031 C 83.03125 501.582031 82.570312 500.929688 82.6875 500.246094 C 82.8125 499.550781 83.46875 499.085938 84.152344 499.21875 C 176.207031 515.5 269.695312 530.902344 362.027344 544.996094 C 362.71875 545.097656 363.199219 545.746094 363.089844 546.4375 C 362.996094 547.0625 362.457031 547.507812 361.84375 547.507812 " fill-opacity="1" fill-rule="nonzero"/><path fill="#d8baa0" d="M 187.453125 530.742188 C 187.386719 530.742188 187.316406 530.738281 187.25 530.726562 C 151.597656 525.089844 115.546875 518.644531 80.085938 511.570312 C 79.40625 511.433594 78.960938 510.773438 79.09375 510.082031 C 79.230469 509.398438 79.890625 508.945312 80.585938 509.089844 C 116.007812 516.160156 152.027344 522.597656 187.644531 528.230469 C 188.335938 528.339844 188.804688 528.984375 188.699219 529.679688 C 188.597656 530.296875 188.058594 530.742188 187.453125 530.742188 " fill-opacity="1" fill-rule="nonzero"/><path fill="#d8baa0" d="M 361.136719 557.148438 C 361.0625 557.148438 360.992188 557.144531 360.921875 557.128906 C 308.757812 548.140625 255.78125 539.664062 203.453125 531.960938 C 202.761719 531.859375 202.292969 531.214844 202.386719 530.53125 C 202.488281 529.835938 203.128906 529.34375 203.824219 529.460938 C 256.167969 537.167969 309.171875 545.640625 361.347656 554.640625 C 362.039062 554.765625 362.5 555.414062 362.378906 556.101562 C 362.277344 556.71875 361.742188 557.148438 361.136719 557.148438 " fill-opacity="1" fill-rule="nonzero"/><path fill="#d8baa0" d="M 359.921875 570.382812 C 359.859375 570.382812 359.792969 570.375 359.726562 570.363281 C 266.960938 556.03125 173.105469 540.050781 80.78125 522.875 C 80.089844 522.742188 79.640625 522.082031 79.761719 521.398438 C 79.898438 520.710938 80.554688 520.261719 81.242188 520.390625 C 173.542969 537.5625 267.375 553.539062 360.117188 567.871094 C 360.800781 567.972656 361.277344 568.621094 361.171875 569.308594 C 361.074219 569.9375 360.535156 570.382812 359.921875 570.382812 " fill-opacity="1" fill-rule="nonzero"/><path fill="#d8baa0" d="M 345.25 415.203125 C 345.175781 415.203125 345.105469 415.199219 345.035156 415.1875 C 251.773438 399.289062 157.066406 384.152344 63.546875 370.203125 C 62.855469 370.097656 62.382812 369.457031 62.488281 368.765625 C 62.59375 368.074219 63.234375 367.601562 63.917969 367.703125 C 157.460938 381.660156 252.175781 396.792969 345.457031 412.699219 C 346.148438 412.8125 346.609375 413.46875 346.488281 414.15625 C 346.390625 414.769531 345.847656 415.203125 345.25 415.203125 " fill-opacity="1" fill-rule="nonzero"/><path fill="#fdaa1e" d="M 249.738281 388.09375 C 242.667969 391.769531 236.433594 397.292969 231.6875 404.039062 C 230.859375 405.21875 231.402344 406.949219 232.722656 407.300781 C 244.230469 410.378906 290.960938 419.449219 305.128906 421.085938 C 306.738281 421.265625 308.429688 421.441406 309.914062 420.742188 C 311.222656 420.125 312.199219 418.902344 313.125 417.726562 C 316.589844 413.304688 321.957031 405.3125 325.425781 400.894531 C 299.785156 397.167969 274.210938 392.875 249.738281 388.09375 " fill-opacity="1" fill-rule="nonzero"/><path fill="#fdaa1e" d="M 282.078125 512.019531 C 272.261719 521.734375 264.664062 534.03125 260.117188 547.546875 C 259.851562 548.339844 260.453125 549.179688 261.226562 549.121094 C 269.277344 548.472656 277.289062 547.308594 285.207031 545.636719 C 286.433594 545.378906 287.710938 545.84375 288.476562 546.914062 C 292.453125 552.460938 297.746094 556.90625 303.699219 559.710938 C 304.296875 559.988281 304.988281 559.648438 305.207031 558.984375 C 310.054688 544.550781 317.636719 531.199219 327.34375 520 C 311.386719 518.480469 295.535156 515.78125 282.078125 512.019531 " fill-opacity="1" fill-rule="nonzero"/><path fill="#d8baa0" d="M 290.921875 395.253906 C 290.855469 395.253906 290.792969 395.25 290.722656 395.234375 L 63.386719 358.707031 C 62.703125 358.597656 62.230469 357.953125 62.339844 357.257812 C 62.449219 356.574219 63.09375 356.097656 63.796875 356.214844 L 291.125 392.742188 C 291.8125 392.855469 292.28125 393.503906 292.171875 394.191406 C 292.078125 394.816406 291.53125 395.253906 290.921875 395.253906 " fill-opacity="1" fill-rule="nonzero"/><path fill="#d8baa0" d="M 341.953125 405.484375 C 341.878906 405.484375 341.800781 405.480469 341.71875 405.464844 C 327.167969 402.761719 312.429688 399.757812 297.921875 396.550781 C 297.242188 396.398438 296.808594 395.726562 296.960938 395.046875 C 297.109375 394.367188 297.785156 393.9375 298.464844 394.085938 C 312.945312 397.289062 327.660156 400.28125 342.1875 402.980469 C 342.871094 403.105469 343.328125 403.765625 343.195312 404.449219 C 343.078125 405.058594 342.550781 405.484375 341.953125 405.484375 " fill-opacity="1" fill-rule="nonzero"/><path fill="#d8baa0" d="M 359.960938 524.476562 C 359.910156 524.476562 359.859375 524.476562 359.8125 524.472656 C 309.265625 518.507812 258.386719 508.726562 209.175781 499.265625 C 167.179688 491.203125 123.761719 482.855469 80.761719 476.917969 C 80.074219 476.828125 79.582031 476.191406 79.683594 475.503906 C 79.773438 474.808594 80.410156 474.3125 81.109375 474.421875 C 124.171875 480.359375 167.628906 488.714844 209.652344 496.792969 C 258.820312 506.238281 309.65625 516.007812 360.109375 521.957031 C 360.796875 522.039062 361.292969 522.671875 361.210938 523.359375 C 361.136719 524 360.59375 524.476562 359.960938 524.476562 " fill-opacity="1" fill-rule="nonzero"/><path fill="#d67b04" d="M 361.128906 387.804688 C 360.621094 387.804688 360.140625 387.5 359.945312 386.996094 C 359.695312 386.339844 360.027344 385.613281 360.679688 385.359375 C 430.234375 358.679688 496.941406 326.902344 561.441406 296.183594 C 603.839844 275.992188 647.671875 255.109375 691.941406 235.851562 C 692.578125 235.574219 693.324219 235.867188 693.601562 236.503906 C 693.878906 237.144531 693.589844 237.890625 692.949219 238.171875 C 648.722656 257.414062 604.910156 278.277344 562.53125 298.464844 C 497.984375 329.207031 431.234375 361 361.582031 387.722656 C 361.429688 387.78125 361.277344 387.804688 361.128906 387.804688 " fill-opacity="1" fill-rule="nonzero"/><path fill="#d67b04" d="M 361.136719 473.425781 C 360.679688 473.425781 360.234375 473.175781 360.007812 472.738281 C 359.691406 472.109375 359.941406 471.355469 360.5625 471.035156 C 417.988281 441.882812 475.175781 412.695312 530.476562 384.46875 C 585.726562 356.265625 642.855469 327.101562 700.226562 297.980469 C 700.855469 297.65625 701.613281 297.914062 701.929688 298.53125 C 702.246094 299.15625 701.996094 299.917969 701.378906 300.230469 C 644.007812 329.355469 586.871094 358.511719 531.628906 386.71875 C 476.320312 414.945312 419.132812 444.132812 361.710938 473.289062 C 361.523438 473.382812 361.324219 473.425781 361.136719 473.425781 " fill-opacity="1" fill-rule="nonzero"/><path fill="#fae3d4" d="M 374.585938 501.453125 C 374.125 501.453125 373.679688 501.203125 373.457031 500.753906 C 373.140625 500.136719 373.394531 499.371094 374.019531 499.0625 L 645.371094 362.992188 C 645.996094 362.683594 646.753906 362.9375 647.0625 363.558594 C 647.375 364.183594 647.125 364.941406 646.503906 365.253906 L 375.152344 501.320312 C 374.972656 501.410156 374.777344 501.453125 374.585938 501.453125 " fill-opacity="1" fill-rule="nonzero"/><path fill="#fae3d4" d="M 375.019531 584.027344 C 374.5625 584.027344 374.125 583.777344 373.894531 583.351562 C 373.570312 582.734375 373.800781 581.96875 374.425781 581.640625 C 468.167969 532.289062 562.625 480.972656 655.1875 429.117188 C 655.804688 428.777344 656.566406 428.992188 656.914062 429.601562 C 657.257812 430.207031 657.039062 430.984375 656.429688 431.320312 C 563.847656 483.191406 469.363281 534.515625 375.605469 583.878906 C 375.417969 583.980469 375.214844 584.027344 375.019531 584.027344 " fill-opacity="1" fill-rule="nonzero"/><path fill="#fae3d4" d="M 309.707031 256.523438 C 309.203125 256.523438 308.726562 256.214844 308.535156 255.722656 C 308.28125 255.070312 308.601562 254.339844 309.246094 254.082031 L 633.480469 126.902344 C 634.132812 126.652344 634.871094 126.964844 635.121094 127.621094 C 635.375 128.265625 635.054688 129.003906 634.402344 129.253906 L 310.175781 256.433594 C 310.023438 256.496094 309.859375 256.523438 309.707031 256.523438 " fill-opacity="1" fill-rule="nonzero"/><path fill="#fae3d4" d="M 343.730469 310.265625 C 343.246094 310.265625 342.777344 309.980469 342.570312 309.496094 C 342.296875 308.859375 342.589844 308.113281 343.230469 307.84375 C 436.175781 267.957031 531.160156 229.636719 625.5625 193.964844 C 626.207031 193.71875 626.941406 194.046875 627.1875 194.703125 C 627.4375 195.351562 627.105469 196.085938 626.453125 196.328125 C 532.09375 231.988281 437.136719 270.292969 344.230469 310.164062 C 344.0625 310.234375 343.898438 310.265625 343.730469 310.265625 " fill-opacity="1" fill-rule="nonzero"/><path fill="#00464f" d="M 639.453125 404.074219 C 639.316406 403.394531 638.648438 402.953125 637.960938 403.089844 C 628.480469 405.027344 618.777344 406.101562 609.136719 406.265625 C 608.441406 406.273438 607.878906 406.851562 607.898438 407.546875 C 607.910156 408.242188 608.472656 408.789062 609.160156 408.789062 C 609.160156 408.789062 609.171875 408.789062 609.179688 408.789062 C 616.667969 408.660156 624.179688 407.992188 631.609375 406.804688 C 619.84375 413.949219 607.671875 420.414062 595.230469 426.113281 C 594.628906 423.414062 593.757812 420.78125 592.601562 418.277344 C 592.3125 417.640625 591.566406 417.359375 590.929688 417.65625 C 590.296875 417.945312 590.011719 418.699219 590.308594 419.328125 C 591.441406 421.808594 592.289062 424.460938 592.855469 427.1875 C 591.523438 427.785156 590.183594 428.371094 588.839844 428.945312 C 588.5 426.792969 587.957031 424.664062 587.207031 422.625 C 586.960938 421.972656 586.230469 421.636719 585.578125 421.878906 C 584.925781 422.121094 584.589844 422.847656 584.832031 423.503906 C 585.597656 425.589844 586.144531 427.777344 586.453125 429.996094 C 584.082031 431.007812 581.699219 431.992188 579.308594 432.945312 C 578.65625 433.203125 578.335938 433.9375 578.597656 434.585938 C 578.792969 435.078125 579.273438 435.378906 579.773438 435.378906 C 579.929688 435.378906 580.089844 435.351562 580.242188 435.292969 C 582.40625 434.421875 584.566406 433.53125 586.714844 432.621094 C 586.804688 434.152344 586.792969 435.691406 586.660156 437.21875 C 586.597656 437.910156 587.113281 438.53125 587.808594 438.585938 C 587.84375 438.597656 587.875 438.597656 587.917969 438.597656 C 588.566406 438.597656 589.121094 438.097656 589.179688 437.441406 C 589.351562 435.488281 589.34375 433.519531 589.179688 431.5625 C 590.550781 430.96875 591.921875 430.367188 593.296875 429.753906 C 593.675781 432.503906 593.777344 435.304688 593.542969 438.042969 C 593.480469 438.742188 594 439.355469 594.695312 439.417969 C 594.726562 439.417969 594.765625 439.417969 594.804688 439.417969 C 595.449219 439.417969 596.007812 438.921875 596.058594 438.261719 C 596.335938 435.046875 596.203125 431.824219 595.714844 428.675781 C 608.121094 423.015625 620.273438 416.609375 632.015625 409.523438 C 627.179688 415.8125 622.695312 422.445312 618.65625 429.320312 C 618.304688 429.921875 618.507812 430.699219 619.113281 431.050781 C 619.304688 431.167969 619.523438 431.222656 619.742188 431.222656 C 620.179688 431.222656 620.601562 430.996094 620.835938 430.597656 C 626.015625 421.777344 631.929688 413.363281 638.398438 405.578125 C 638.421875 405.574219 638.441406 405.570312 638.46875 405.5625 C 639.148438 405.429688 639.589844 404.757812 639.453125 404.074219 " fill-opacity="1" fill-rule="nonzero"/><path fill="#00464f" d="M 463.15625 494.3125 C 462.804688 493.707031 462.03125 493.503906 461.429688 493.855469 C 458.832031 495.363281 456.226562 496.847656 453.613281 498.335938 C 452.566406 493.480469 451.003906 488.746094 448.898438 484.269531 C 448.605469 483.636719 447.851562 483.367188 447.222656 483.664062 C 446.589844 483.957031 446.316406 484.707031 446.613281 485.339844 C 448.746094 489.886719 450.3125 494.691406 451.316406 499.632812 C 448.914062 500.976562 446.511719 502.328125 444.097656 503.65625 C 443.339844 500.75 442.332031 497.921875 441.078125 495.246094 C 440.777344 494.617188 440.027344 494.339844 439.398438 494.640625 C 438.761719 494.9375 438.492188 495.6875 438.785156 496.316406 C 440.0625 499.042969 441.082031 501.933594 441.808594 504.902344 C 425.816406 513.648438 409.53125 521.910156 393.15625 529.578125 C 401.132812 522.546875 408.878906 515.101562 416.207031 507.320312 C 416.6875 506.8125 416.664062 506.015625 416.160156 505.539062 C 415.648438 505.054688 414.847656 505.082031 414.367188 505.59375 C 405.542969 514.953125 396.128906 523.878906 386.402344 532.101562 C 386.292969 532.136719 386.179688 532.164062 386.070312 532.199219 C 385.398438 532.398438 385.023438 533.101562 385.222656 533.769531 C 385.390625 534.316406 385.890625 534.667969 386.433594 534.667969 C 386.554688 534.667969 386.679688 534.65625 386.796875 534.617188 C 398.386719 531.128906 410.652344 531.058594 422.269531 534.414062 C 422.945312 534.597656 423.644531 534.21875 423.839844 533.542969 C 424.035156 532.878906 423.648438 532.175781 422.976562 531.984375 C 415.070312 529.703125 406.886719 528.953125 398.796875 529.71875 C 413.460938 522.742188 428.023438 515.304688 442.359375 507.480469 C 442.730469 509.445312 442.992188 511.4375 443.109375 513.429688 C 443.144531 514.101562 443.703125 514.621094 444.367188 514.621094 C 444.386719 514.621094 444.414062 514.621094 444.4375 514.621094 C 445.136719 514.582031 445.664062 513.984375 445.632812 513.285156 C 445.496094 510.917969 445.179688 508.546875 444.695312 506.210938 C 447.070312 504.90625 449.421875 503.589844 451.777344 502.269531 C 452.5 506.804688 452.773438 511.425781 452.507812 516.058594 C 452.46875 516.757812 453.007812 517.347656 453.707031 517.390625 C 453.730469 517.394531 453.753906 517.394531 453.777344 517.394531 C 454.445312 517.394531 454.996094 516.875 455.035156 516.199219 C 455.328125 511.082031 454.992188 505.957031 454.125 500.953125 C 456.996094 499.328125 459.855469 497.691406 462.699219 496.039062 C 463.300781 495.6875 463.507812 494.914062 463.15625 494.3125 " fill-opacity="1" fill-rule="nonzero"/><path fill="#00464f" d="M 526.515625 467.785156 C 525.589844 468.226562 523.429688 468.292969 521.777344 467.253906 C 520.382812 466.382812 519.671875 464.929688 519.671875 462.941406 C 519.671875 459.457031 521.257812 456.25 523.605469 454.945312 C 524.316406 454.558594 525.0625 454.363281 525.839844 454.363281 C 526.863281 454.363281 527.941406 454.703125 529.03125 455.382812 C 530.21875 456.136719 531.226562 458.25 531.3125 460.191406 C 531.445312 463.242188 529.472656 466.367188 526.515625 467.785156 Z M 561.410156 442.835938 C 561.074219 442.214844 560.300781 442.003906 559.691406 442.34375 C 550.898438 447.25 541.816406 451.816406 532.691406 455.925781 C 532.132812 454.84375 531.371094 453.875 530.371094 453.246094 C 527.675781 451.558594 524.84375 451.378906 522.382812 452.738281 C 519.25 454.460938 517.148438 458.566406 517.148438 462.941406 C 517.148438 463.191406 517.175781 463.414062 517.195312 463.65625 L 486.4375 479.152344 C 485.8125 479.464844 485.566406 480.226562 485.875 480.847656 C 486.097656 481.292969 486.546875 481.542969 487.007812 481.542969 C 487.195312 481.542969 487.390625 481.5 487.578125 481.40625 L 517.746094 466.203125 C 518.394531 467.796875 519.472656 468.792969 520.425781 469.398438 C 521.800781 470.257812 523.398438 470.613281 524.824219 470.613281 C 525.902344 470.613281 526.886719 470.414062 527.613281 470.0625 C 531.519531 468.1875 534.015625 464.175781 533.839844 460.082031 C 533.816406 459.527344 533.726562 458.917969 533.582031 458.300781 C 542.824219 454.140625 552.023438 449.511719 560.929688 444.550781 C 561.539062 444.207031 561.75 443.441406 561.410156 442.835938 " fill-opacity="1" fill-rule="nonzero"/><path fill="#fae3d4" d="M 525.589844 330.8125 C 477.433594 352.9375 427.171875 374.117188 376.484375 395.347656 C 375.175781 395.902344 374.390625 397.296875 374.5625 398.75 C 376.132812 412.359375 377.574219 426.253906 374.5625 441.085938 C 374.003906 443.84375 376.777344 446.054688 379.238281 444.84375 L 521.277344 378.320312 C 523.90625 377.015625 526.644531 375.621094 528.335938 373.15625 C 529.917969 370.867188 530.347656 367.953125 530.691406 365.15625 C 531.847656 355.558594 531.523438 342.457031 530.082031 333.304688 C 529.738281 331.160156 527.515625 329.933594 525.589844 330.8125 " fill-opacity="1" fill-rule="nonzero"/><path fill="#fae3d4" d="M 338.707031 154.617188 C 334.777344 153.621094 335.046875 147.285156 338.933594 146.105469 C 356.820312 140.683594 390.503906 128.527344 405.605469 126.058594 C 416.835938 124.21875 492.742188 130.890625 526.703125 135.550781 C 528.742188 135.835938 531.15625 136.375 531.390625 139.121094 C 531.539062 140.792969 530.632812 142.371094 529.285156 143.207031 C 517.367188 150.589844 466.710938 168.65625 456.691406 168.144531 C 446.375 167.605469 374.957031 163.808594 338.707031 154.617188 " fill-opacity="1" fill-rule="nonzero"/><path fill="#fae3d4" d="M 418.519531 184.527344 C 418.46875 184.527344 418.410156 184.527344 418.347656 184.519531 C 376.488281 178.902344 332.410156 172.796875 294.15625 165.375 C 293.46875 165.242188 293.023438 164.574219 293.15625 163.890625 C 293.289062 163.207031 293.957031 162.761719 294.640625 162.894531 C 332.828125 170.304688 376.859375 176.398438 418.691406 182.015625 C 419.378906 182.109375 419.863281 182.746094 419.777344 183.4375 C 419.6875 184.066406 419.148438 184.527344 418.519531 184.527344 " fill-opacity="1" fill-rule="nonzero"/></svg>