<svg xmlns="http://www.w3.org/2000/svg" xmlns:xlink="http://www.w3.org/1999/xlink" width="1080" zoomAndPan="magnify" viewBox="0 0 810 809.999993" height="1080" preserveAspectRatio="xMidYMid meet" version="1.0"><defs><clipPath id="0eb9626eed"><path d="M 493 21.597656 L 744 21.597656 L 744 281 L 493 281 Z M 493 21.597656 " clip-rule="nonzero"/></clipPath></defs><rect x="-81" width="972" fill="#ffffff" y="-80.999999" height="971.999992" fill-opacity="1"/><rect x="-81" width="972" fill="#ffffff" y="-80.999999" height="971.999992" fill-opacity="1"/><path fill="#f57669" d="M 86.863281 393.378906 C 82.109375 390.269531 77.40625 387.078125 72.683594 383.925781 L 68.855469 388.3125 C 72.605469 392.566406 76.402344 396.800781 80.121094 401.085938 C 94.785156 417.96875 109.363281 434.355469 126.65625 448.644531 C 131.601562 452.734375 136.6875 456.667969 141.871094 460.457031 C 152.597656 468.292969 163.472656 475.945312 174.21875 483.753906 C 179.613281 487.648438 185 491.558594 190.386719 495.457031 C 192.996094 497.347656 195.605469 499.230469 198.207031 501.121094 L 198.40625 501.265625 C 199.195312 501.953125 200.625 501.601562 201.613281 500.484375 C 202.59375 499.34375 202.753906 497.875 201.972656 497.1875 L 201.796875 497.015625 C 199.570312 494.683594 197.359375 492.355469 195.140625 490.023438 C 190.554688 485.207031 185.957031 480.394531 181.378906 475.570312 C 172.203125 465.964844 163.160156 456.214844 153.960938 446.632812 C 149.515625 441.996094 144.929688 437.488281 140.210938 433.132812 C 123.734375 417.910156 105.550781 405.65625 86.863281 393.378906 " fill-opacity="1" fill-rule="nonzero"/><path fill="#f0413d" d="M 115.191406 438.535156 C 111.980469 435.535156 108.863281 432.464844 105.796875 429.34375 L 110.714844 421.023438 L 115.191406 424.941406 L 115.191406 438.535156 M 91.234375 413.730469 C 91.234375 413.730469 91.226562 413.722656 91.226562 413.722656 C 91.226562 413.722656 91.234375 413.722656 91.234375 413.730469 M 91.164062 413.652344 C 87.460938 409.511719 83.800781 405.316406 80.121094 401.085938 C 83.800781 405.316406 87.460938 409.511719 91.164062 413.652344 " fill-opacity="1" fill-rule="nonzero"/><path fill="#a4c0e8" d="M 114.449219 412.207031 C 105.480469 405.691406 96.230469 399.539062 86.863281 393.378906 C 82.109375 390.269531 77.40625 387.078125 72.683594 383.925781 L 68.855469 388.3125 C 72.605469 392.566406 76.402344 396.800781 80.121094 401.085938 C 87.476562 409.550781 94.804688 417.894531 102.472656 425.90625 L 114.449219 412.207031 " fill-opacity="1" fill-rule="nonzero"/><path fill="#6e9ad8" d="M 92.9375 415.621094 C 88.625 410.84375 84.382812 405.984375 80.121094 401.085938 C 77.398438 397.949219 74.640625 394.847656 71.878906 391.734375 C 72.757812 391.003906 73.578125 390.195312 74.3125 389.328125 L 96.3125 408.546875 L 94.730469 411.847656 C 93.597656 410.699219 92.441406 409.558594 91.21875 408.507812 C 90.652344 408.019531 89.902344 407.285156 89.113281 407.222656 C 89.058594 407.222656 89 407.214844 88.945312 407.214844 C 87.507812 407.214844 89.097656 409.074219 89.3125 409.34375 C 90.636719 411.027344 92.1875 412.480469 93.742188 413.9375 L 92.9375 415.621094 " fill-opacity="1" fill-rule="nonzero"/><path fill="#4bc3cb" d="M 31.074219 347.164062 C 34.265625 346.957031 38.078125 347.539062 41.46875 348.144531 C 48.691406 349.445312 55.738281 351.878906 62.0625 355.597656 C 67.664062 358.890625 74.359375 363.75 76.691406 370.125 C 78.300781 374.519531 79.242188 378.722656 77.71875 383.28125 C 74.175781 393.953125 60.851562 400.023438 51.234375 393.085938 C 46.863281 389.933594 43.925781 385.960938 43.113281 380.597656 C 42.300781 375.246094 43.152344 369.820312 42.53125 364.445312 C 41.710938 357.375 37.886719 351.496094 31.902344 347.5625 L 31.074219 347.164062 " fill-opacity="1" fill-rule="nonzero"/><path fill="#4bc3cb" d="M 41.308594 359.234375 C 41.300781 359.21875 41.300781 359.210938 41.292969 359.203125 C 40.496094 357 39.363281 354.964844 37.949219 353.121094 C 37.957031 353.136719 37.976562 353.148438 37.984375 353.164062 C 39.394531 354.996094 40.519531 357.03125 41.308594 359.234375 " fill-opacity="1" fill-rule="nonzero"/><path fill="#16b1af" d="M 60.363281 396.035156 C 59.390625 396.035156 58.417969 395.949219 57.453125 395.765625 C 54.820312 394.105469 52.441406 392.03125 50.398438 389.679688 C 48.253906 387.195312 46.527344 384.355469 45.425781 381.269531 C 44.238281 377.925781 43.785156 374.359375 43.511719 370.851562 C 43.28125 367.84375 43.464844 364.761719 42.53125 361.859375 C 42.21875 360.933594 41.804688 360.054688 41.308594 359.234375 C 40.519531 357.03125 39.394531 354.996094 37.984375 353.164062 C 38.269531 353.425781 38.566406 353.695312 38.84375 353.984375 C 40.199219 355.378906 41.382812 356.902344 42.355469 358.539062 C 42.816406 359.457031 43.226562 360.40625 43.550781 361.394531 C 44.175781 363.300781 44.527344 365.25 44.414062 367.257812 C 44.316406 368.949219 44.125 370.625 44.222656 372.308594 L 44.285156 372.445312 C 44.359375 373.203125 44.949219 373.699219 45.484375 373.699219 C 45.914062 373.699219 46.304688 373.386719 46.402344 372.667969 C 46.457031 372.175781 46.457031 371.695312 46.417969 371.199219 C 46.402344 370.953125 46.386719 370.707031 46.375 370.457031 C 46.578125 371.289062 46.785156 372.101562 47.023438 372.925781 C 49.632812 381.972656 56.160156 390.96875 64.753906 395.445312 C 63.324219 395.828125 61.847656 396.035156 60.363281 396.035156 " fill-opacity="1" fill-rule="nonzero"/><path fill="#16b1af" d="M 69.40625 393.476562 C 66.179688 392.46875 63.179688 390.636719 60.644531 388.371094 C 55.578125 383.855469 53.277344 377.535156 51.277344 371.234375 C 49.441406 365.496094 47.605469 360.023438 43.664062 355.371094 C 40.609375 351.773438 36.667969 348.734375 32.191406 347.125 C 32.246094 347.125 32.300781 347.125 32.355469 347.125 C 32.621094 347.125 32.882812 347.132812 33.148438 347.140625 C 36.164062 347.664062 39.042969 348.664062 41.683594 350.425781 C 47.039062 353.992188 50.957031 360.054688 53.613281 365.800781 C 54.851562 368.488281 55.585938 371.367188 57.054688 373.953125 C 58.578125 376.640625 60.355469 379.097656 62.519531 381.316406 C 65.863281 384.761719 69.972656 387.371094 74.398438 389.222656 C 72.980469 390.921875 71.28125 392.367188 69.40625 393.476562 " fill-opacity="1" fill-rule="nonzero"/><path fill="#16b1af" d="M 78.246094 381.222656 C 77.742188 380.972656 77.257812 380.703125 76.785156 380.40625 C 77.152344 379.648438 77.296875 378.652344 77.257812 378.046875 C 77.152344 376.480469 76.761719 374.957031 76.332031 373.464844 C 76.027344 372.421875 75.699219 371.359375 75.300781 370.339844 C 75.890625 370.683594 76.492188 371.015625 77.113281 371.3125 C 78.222656 374.625 78.859375 377.847656 78.246094 381.222656 M 73.683594 378.132812 C 72.597656 377.207031 71.582031 376.195312 70.617188 375.132812 C 66.683594 370.800781 63.578125 365.734375 60.070312 361.070312 C 58.105469 358.445312 56.007812 355.914062 53.636719 353.648438 C 52.167969 352.238281 50.558594 351.015625 48.867188 349.90625 C 51.746094 350.769531 54.5625 351.820312 57.285156 353.089844 C 60.269531 355.84375 62.957031 358.96875 65.488281 361.9375 C 66.753906 363.421875 68.121094 364.820312 69.582031 366.109375 C 69.804688 367.441406 70.90625 369.351562 71.191406 369.925781 C 71.886719 371.265625 72.597656 372.636719 73.058594 374.082031 C 73.480469 375.40625 73.664062 376.617188 73.683594 378 C 73.683594 378.046875 73.683594 378.085938 73.683594 378.132812 " fill-opacity="1" fill-rule="nonzero"/><path fill="#a5e1e1" d="M 46.375 370.457031 C 45.800781 368.105469 45.316406 365.71875 44.566406 363.414062 C 44.007812 361.691406 43.265625 360.0625 42.355469 358.539062 C 42.117188 358.054688 41.859375 357.582031 41.605469 357.113281 C 41.046875 356.121094 40.417969 354.972656 40.304688 353.832031 C 40.273438 353.503906 40.410156 353.378906 40.625 353.378906 C 41.160156 353.378906 42.179688 354.128906 42.347656 354.261719 C 43.136719 354.933594 43.6875 355.875 44.175781 356.769531 C 45.148438 358.554688 45.921875 360.660156 46.28125 362.664062 C 46.625 364.625 46.457031 366.667969 46.386719 368.648438 C 46.359375 369.253906 46.351562 369.859375 46.375 370.457031 " fill-opacity="1" fill-rule="nonzero"/><path fill="#8bd8ce" d="M 45.484375 373.699219 C 44.949219 373.699219 44.359375 373.203125 44.285156 372.445312 L 44.222656 372.308594 C 44.125 370.625 44.316406 368.949219 44.414062 367.257812 C 44.527344 365.25 44.175781 363.300781 43.550781 361.394531 C 43.226562 360.40625 42.816406 359.457031 42.355469 358.539062 C 43.265625 360.0625 44.007812 361.691406 44.566406 363.414062 C 45.316406 365.71875 45.800781 368.105469 46.375 370.457031 C 46.386719 370.707031 46.402344 370.953125 46.417969 371.199219 C 46.457031 371.695312 46.457031 372.175781 46.402344 372.667969 C 46.304688 373.386719 45.914062 373.699219 45.484375 373.699219 " fill-opacity="1" fill-rule="nonzero"/><path fill="#a5e1e1" d="M 75.445312 381.484375 C 75.183594 381.484375 74.894531 381.40625 74.574219 381.207031 C 73.539062 380.566406 73.683594 379.195312 73.683594 378.132812 C 74.664062 378.972656 75.691406 379.746094 76.785156 380.40625 C 76.484375 381.023438 76.042969 381.484375 75.445312 381.484375 M 75.300781 370.339844 C 74.734375 369.996094 74.183594 369.636719 73.648438 369.277344 C 72.230469 368.304688 70.875 367.25 69.582031 366.109375 C 69.453125 365.34375 69.621094 364.769531 70.410156 364.769531 C 70.507812 364.769531 70.609375 364.777344 70.730469 364.792969 C 72.421875 365.058594 73.5 366.78125 74.273438 368.136719 C 74.679688 368.839844 75.015625 369.582031 75.300781 370.339844 " fill-opacity="1" fill-rule="nonzero"/><path fill="#8bd8ce" d="M 76.785156 380.40625 C 75.691406 379.746094 74.664062 378.972656 73.683594 378.132812 C 73.683594 378.085938 73.683594 378.046875 73.683594 378 C 73.664062 376.617188 73.480469 375.40625 73.058594 374.082031 C 72.597656 372.636719 71.886719 371.265625 71.191406 369.925781 C 70.90625 369.351562 69.804688 367.441406 69.582031 366.109375 C 70.875 367.25 72.230469 368.304688 73.648438 369.277344 C 74.183594 369.636719 74.734375 369.996094 75.300781 370.339844 C 75.699219 371.359375 76.027344 372.421875 76.332031 373.464844 C 76.761719 374.957031 77.152344 376.480469 77.257812 378.046875 C 77.296875 378.652344 77.152344 379.648438 76.785156 380.40625 " fill-opacity="1" fill-rule="nonzero"/><path fill="#b4c7eb" d="M 93.742188 413.9375 C 92.1875 412.480469 90.636719 411.027344 89.3125 409.34375 C 89.097656 409.074219 87.507812 407.214844 88.945312 407.214844 C 89 407.214844 89.058594 407.222656 89.113281 407.222656 C 89.902344 407.285156 90.652344 408.019531 91.21875 408.507812 C 92.441406 409.558594 93.597656 410.699219 94.730469 411.847656 L 93.742188 413.9375 " fill-opacity="1" fill-rule="nonzero"/><path fill="#abe1bf" d="M 601.984375 281.671875 L 473.402344 203.136719 L 583.371094 23.144531 L 711.957031 101.671875 L 601.984375 281.671875 " fill-opacity="1" fill-rule="nonzero"/><path fill="#7fa58d" d="M 583.992188 47.085938 C 582.988281 47.085938 581.964844 46.816406 581.039062 46.25 C 578.359375 44.613281 577.523438 41.121094 579.148438 38.445312 C 580.21875 36.691406 582.085938 35.726562 584 35.726562 C 585.015625 35.726562 586.035156 35.996094 586.960938 36.5625 C 589.632812 38.199219 590.472656 41.6875 588.835938 44.367188 C 587.765625 46.121094 585.90625 47.085938 583.992188 47.085938 " fill-opacity="1" fill-rule="nonzero"/><path fill="#7fa58d" d="M 597.875 55.597656 C 596.976562 53.890625 596.96875 51.761719 598.050781 49.984375 C 599.121094 48.234375 600.988281 47.269531 602.902344 47.269531 C 603.375 47.269531 603.851562 47.335938 604.324219 47.453125 L 597.875 55.597656 " fill-opacity="1" fill-rule="nonzero"/><path fill="#ffffff" d="M 589.058594 41.78125 C 587.433594 44.453125 583.929688 45.300781 581.253906 43.671875 C 578.582031 42.027344 577.738281 38.535156 579.371094 35.863281 C 581.007812 33.1875 584.496094 32.34375 587.175781 33.980469 C 589.847656 35.613281 590.695312 39.101562 589.058594 41.78125 " fill-opacity="1" fill-rule="nonzero"/><path fill="#ffffff" d="M 607.960938 53.324219 C 606.328125 56.007812 602.832031 56.84375 600.160156 55.207031 C 597.484375 53.574219 596.640625 50.078125 598.265625 47.40625 C 599.902344 44.734375 603.398438 43.878906 606.078125 45.523438 C 608.753906 47.160156 609.597656 50.644531 607.960938 53.324219 " fill-opacity="1" fill-rule="nonzero"/><path fill="#ffffff" d="M 626.855469 64.871094 C 625.222656 67.542969 621.734375 68.386719 619.054688 66.753906 C 616.378906 65.117188 615.535156 61.628906 617.171875 58.941406 C 618.804688 56.269531 622.300781 55.433594 624.972656 57.066406 C 627.648438 58.695312 628.492188 62.195312 626.855469 64.871094 " fill-opacity="1" fill-rule="nonzero"/><path fill="#ffffff" d="M 645.761719 76.414062 C 644.125 79.085938 640.636719 79.933594 637.957031 78.296875 C 635.28125 76.660156 634.4375 73.167969 636.066406 70.496094 C 637.699219 67.820312 641.195312 66.976562 643.875 68.601562 C 646.550781 70.238281 647.394531 73.734375 645.761719 76.414062 " fill-opacity="1" fill-rule="nonzero"/><path fill="#ffffff" d="M 664.65625 87.949219 C 663.019531 90.628906 659.53125 91.476562 656.851562 89.832031 C 654.179688 88.207031 653.339844 84.703125 654.96875 82.03125 C 656.605469 79.359375 660.097656 78.511719 662.773438 80.15625 C 665.453125 81.78125 666.289062 85.277344 664.65625 87.949219 " fill-opacity="1" fill-rule="nonzero"/><path fill="#ffffff" d="M 683.558594 99.496094 C 681.921875 102.167969 678.425781 103.011719 675.753906 101.378906 C 673.082031 99.742188 672.234375 96.253906 673.871094 93.574219 C 675.5 90.902344 678.992188 90.054688 681.675781 91.691406 C 684.347656 93.328125 685.183594 96.8125 683.558594 99.496094 " fill-opacity="1" fill-rule="nonzero"/><path fill="#ffffff" d="M 702.460938 111.039062 C 700.824219 113.710938 697.328125 114.558594 694.648438 112.921875 C 691.976562 111.285156 691.136719 107.792969 692.765625 105.117188 C 694.402344 102.445312 697.894531 101.609375 700.570312 103.234375 C 703.25 104.871094 704.089844 108.359375 702.460938 111.039062 " fill-opacity="1" fill-rule="nonzero"/><path fill="#e9e9e9" d="M 602.566406 274.777344 L 479.273438 199.484375 L 573.125 45.851562 L 696.421875 121.15625 L 602.566406 274.777344 " fill-opacity="1" fill-rule="nonzero"/><path fill="#d6d5d5" d="M 548.796875 95.265625 L 542.941406 95.265625 L 573.125 45.851562 L 579.890625 49.984375 C 568.585938 64.390625 558.234375 79.542969 548.796875 95.265625 " fill-opacity="1" fill-rule="nonzero"/><path fill="#bdbcbc" d="M 567.804688 59.238281 L 686.941406 131.996094 L 687.242188 131.503906 L 568.105469 58.742188 " fill-opacity="1" fill-rule="nonzero"/><path fill="#bdbcbc" d="M 560.351562 71.425781 L 679.488281 144.195312 L 679.792969 143.699219 L 560.652344 70.941406 " fill-opacity="1" fill-rule="nonzero"/><path fill="#bdbcbc" d="M 552.898438 83.632812 L 672.035156 156.394531 L 672.339844 155.898438 L 553.199219 83.140625 " fill-opacity="1" fill-rule="nonzero"/><path fill="#bdbcbc" d="M 545.445312 95.832031 L 664.589844 168.589844 L 664.886719 168.097656 L 545.75 95.335938 " fill-opacity="1" fill-rule="nonzero"/><path fill="#bdbcbc" d="M 537.992188 108.03125 L 657.128906 180.78125 L 657.433594 180.289062 L 538.296875 107.535156 " fill-opacity="1" fill-rule="nonzero"/><path fill="#bdbcbc" d="M 530.546875 120.222656 L 649.675781 192.988281 L 649.980469 192.492188 L 530.84375 119.734375 " fill-opacity="1" fill-rule="nonzero"/><path fill="#bdbcbc" d="M 523.09375 132.417969 L 642.234375 205.1875 L 642.535156 204.691406 L 523.398438 131.925781 L 523.09375 132.417969 " fill-opacity="1" fill-rule="nonzero"/><path fill="#bdbcbc" d="M 515.644531 144.625 L 634.78125 217.378906 L 635.082031 216.882812 L 515.945312 144.132812 L 515.644531 144.625 " fill-opacity="1" fill-rule="nonzero"/><path fill="#bdbcbc" d="M 508.191406 156.816406 L 627.328125 229.574219 L 627.632812 229.089844 L 508.492188 156.320312 L 508.191406 156.816406 " fill-opacity="1" fill-rule="nonzero"/><path fill="#bdbcbc" d="M 500.738281 169.015625 L 619.875 241.773438 L 620.179688 241.277344 L 501.039062 168.519531 L 500.738281 169.015625 " fill-opacity="1" fill-rule="nonzero"/><path fill="#bdbcbc" d="M 493.285156 181.203125 L 612.421875 253.972656 L 612.726562 253.476562 L 493.589844 180.71875 L 493.285156 181.203125 " fill-opacity="1" fill-rule="nonzero"/><path fill="#bdbcbc" d="M 485.839844 193.410156 L 604.96875 266.171875 L 605.273438 265.675781 L 486.136719 192.917969 L 485.839844 193.410156 " fill-opacity="1" fill-rule="nonzero"/><path fill="#a7a5a6" d="M 645.800781 433.699219 L 656.394531 417.425781 L 633.128906 402.273438 L 622.53125 418.558594 L 645.800781 433.699219 " fill-opacity="1" fill-rule="nonzero"/><path fill="#a7a5a6" d="M 626.769531 412.054688 L 631.757812 404.390625 L 626.769531 412.054688 " fill-opacity="1" fill-rule="nonzero"/><path fill="#727071" d="M 650.042969 427.167969 C 648.984375 422.226562 646.085938 417.679688 641.585938 414.746094 C 638.332031 412.628906 634.628906 411.617188 630.949219 411.617188 C 629.539062 411.617188 628.140625 411.761719 626.769531 412.054688 L 631.757812 404.390625 L 655.023438 419.53125 L 650.042969 427.167969 " fill-opacity="1" fill-rule="nonzero"/><path fill="#a14990" d="M 656.921875 420.761719 L 629.855469 403.152344 L 642.511719 383.703125 L 669.578125 401.316406 L 656.921875 420.761719 " fill-opacity="1" fill-rule="nonzero"/><path fill="#742c71" d="M 656.921875 420.761719 L 655.023438 419.53125 L 631.757812 404.390625 L 629.855469 403.152344 L 633.105469 398.167969 C 634.605469 401.453125 636.992188 404.355469 640.175781 406.441406 C 643.453125 408.570312 647.179688 409.582031 650.875 409.582031 C 655.964844 409.582031 661.007812 407.652344 664.765625 404.0625 C 665.554688 404.40625 666.355469 404.730469 667.152344 405.050781 L 656.921875 420.761719 " fill-opacity="1" fill-rule="nonzero"/><path fill="#54b5df" d="M 764.28125 374.015625 C 740.003906 411.332031 690.050781 421.894531 652.734375 397.59375 C 615.414062 373.316406 604.859375 323.378906 629.148438 286.066406 C 653.4375 248.753906 703.378906 238.199219 740.6875 262.476562 C 778.015625 286.769531 788.578125 336.703125 764.28125 374.015625 " fill-opacity="1" fill-rule="nonzero"/><path fill="#a14990" d="M 750.558594 365.082031 C 731.210938 394.808594 691.410156 403.214844 661.671875 383.871094 C 631.941406 364.515625 623.53125 324.738281 642.871094 295.003906 C 662.222656 265.277344 702.019531 256.851562 731.75 276.214844 C 761.5 295.5625 769.910156 335.347656 750.558594 365.082031 " fill-opacity="1" fill-rule="nonzero"/><path fill="#ffffff" d="M 744.628906 361.226562 C 727.402344 387.683594 691.992188 395.167969 665.523438 377.949219 C 639.066406 360.734375 631.574219 325.320312 648.800781 298.855469 C 666.027344 272.394531 701.445312 264.910156 727.90625 282.125 C 754.371094 299.351562 761.859375 334.765625 744.628906 361.226562 " fill-opacity="1" fill-rule="nonzero"/><path fill="#bdbcbd" d="M 696.644531 387.203125 C 685.960938 387.203125 675.15625 384.214844 665.523438 377.949219 C 648.703125 367.003906 639.550781 348.703125 639.535156 330.027344 C 639.527344 319.320312 642.527344 308.5 648.800781 298.855469 C 659.753906 282.03125 678.066406 272.878906 696.753906 272.878906 C 699.039062 272.878906 701.328125 273.015625 703.609375 273.285156 C 700.539062 273.421875 697.464844 273.796875 694.433594 274.4375 C 679.816406 277.53125 666.878906 286.394531 658.726562 298.921875 C 650.570312 311.445312 647.691406 326.875 650.785156 341.484375 C 653.875 356.089844 662.753906 369.03125 675.273438 377.191406 L 675.5625 377.375 C 684.5625 383.222656 695.054688 386.34375 705.675781 386.488281 C 702.699219 386.964844 699.675781 387.203125 696.644531 387.203125 " fill-opacity="1" fill-rule="nonzero"/><path fill="#54b5df" d="M 696.652344 410.660156 C 696.644531 410.660156 696.644531 410.660156 696.644531 410.660156 C 696.644531 410.660156 696.644531 410.660156 696.652344 410.660156 M 696.660156 410.660156 C 723.007812 410.652344 748.84375 397.742188 764.28125 374.015625 C 773.132812 360.421875 777.359375 345.160156 777.351562 330.066406 C 777.359375 345.160156 773.132812 360.421875 764.28125 374.015625 C 748.84375 397.75 723.015625 410.660156 696.660156 410.660156 M 729.414062 256.339844 C 727.164062 255.34375 724.882812 254.449219 722.582031 253.675781 C 722.582031 253.675781 722.582031 253.675781 722.582031 253.667969 C 724.882812 254.449219 727.164062 255.34375 729.414062 256.339844 " fill-opacity="1" fill-rule="nonzero"/><path fill="#4b4b8c" d="M 652.734375 397.59375 C 651.167969 396.578125 649.660156 395.519531 648.195312 394.410156 C 649.660156 395.519531 651.167969 396.578125 652.734375 397.59375 " fill-opacity="1" fill-rule="nonzero"/><path fill="#2299cc" d="M 696.652344 410.660156 C 696.644531 410.660156 696.644531 410.660156 696.644531 410.660156 C 681.5625 410.660156 666.3125 406.429688 652.734375 397.59375 C 651.167969 396.578125 649.660156 395.519531 648.195312 394.410156 C 641.5625 389.421875 635.914062 383.566406 631.277344 377.121094 C 635.378906 381.492188 640.023438 385.433594 645.226562 388.824219 C 658.121094 397.210938 672.761719 401.207031 687.308594 401.207031 C 712.984375 401.207031 738.351562 388.753906 753.160156 366 C 776.363281 330.371094 765.976562 281.265625 730.332031 258.082031 C 727.816406 256.4375 725.226562 254.984375 722.582031 253.675781 C 724.882812 254.449219 727.164062 255.34375 729.414062 256.339844 C 733.269531 258.066406 737.042969 260.105469 740.6875 262.476562 C 764.417969 277.921875 777.335938 303.730469 777.351562 330.066406 C 777.359375 345.160156 773.132812 360.421875 764.28125 374.015625 C 748.84375 397.742188 723.007812 410.652344 696.660156 410.660156 C 696.652344 410.660156 696.652344 410.660156 696.652344 410.660156 " fill-opacity="1" fill-rule="nonzero"/><path fill="#f35b54" d="M 515.242188 623.175781 C 541.066406 635.511719 618.996094 505.078125 642.824219 431.019531 L 626.1875 420.195312 C 568.097656 471.960938 480.382812 596.011719 502.109375 614.625 L 515.242188 623.175781 " fill-opacity="1" fill-rule="nonzero"/><path fill="#9f3a34" d="M 642.632812 431.632812 C 642.695312 431.425781 642.757812 431.21875 642.824219 431.019531 C 642.757812 431.21875 642.695312 431.425781 642.632812 431.632812 M 642.824219 431.019531 L 634.46875 425.578125 L 642.824219 431.019531 " fill-opacity="1" fill-rule="nonzero"/><path fill="#ef2e33" d="M 619.996094 486.761719 L 619.996094 467.925781 C 623.203125 459.941406 626.171875 451.875 628.890625 443.753906 C 630.910156 437.738281 632.753906 431.664062 634.46875 425.578125 L 642.824219 431.019531 C 642.757812 431.21875 642.695312 431.425781 642.632812 431.632812 C 637.316406 448.011719 629.386719 467.097656 619.996094 486.761719 " fill-opacity="1" fill-rule="nonzero"/><path fill="#f36075" d="M 245.21875 265.347656 L 98.027344 313.144531 L 29.628906 102.566406 L 176.820312 54.769531 L 245.21875 265.347656 " fill-opacity="1" fill-rule="nonzero"/><path fill="#ef2f4b" d="M 96.933594 309.777344 L 95.960938 306.769531 L 115.191406 300.523438 L 115.191406 303.84375 L 96.933594 309.777344 M 184.402344 95.265625 L 180.4375 95.265625 L 168.195312 57.570312 L 171.777344 56.414062 L 184.402344 95.265625 " fill-opacity="1" fill-rule="nonzero"/><path fill="#6fd1f2" d="M 234.519531 261.773438 L 93.628906 307.519531 L 27.304688 103.316406 L 168.195312 57.570312 L 234.519531 261.773438 " fill-opacity="1" fill-rule="nonzero"/><path fill="#6fd1f2" d="M 147.050781 64.4375 L 150.714844 63.25 L 147.050781 64.4375 " fill-opacity="1" fill-rule="nonzero"/><path fill="#7c5e7c" d="M 147.050781 64.4375 L 150.714844 63.25 L 168.195312 57.570312 L 147.050781 64.4375 " fill-opacity="1" fill-rule="nonzero"/><path fill="#30bceb" d="M 93.628906 307.519531 L 91.363281 300.523438 C 99.359375 299.835938 107.347656 298.816406 115.191406 297.164062 L 115.191406 300.523438 L 95.960938 306.769531 L 95.953125 306.769531 L 93.628906 307.519531 M 180.4375 95.265625 L 163.066406 95.265625 C 158.070312 84.789062 152.691406 74.515625 147.050781 64.4375 L 168.195312 57.570312 L 180.4375 95.265625 " fill-opacity="1" fill-rule="nonzero"/><path fill="#30bceb" d="M 102.6875 295.042969 C 100.898438 295.042969 99.238281 293.910156 98.664062 292.113281 C 97.9375 289.890625 99.152344 287.503906 101.386719 286.785156 C 101.816406 286.640625 102.253906 286.578125 102.6875 286.578125 C 104.472656 286.578125 106.132812 287.71875 106.714844 289.507812 C 107.441406 291.722656 106.222656 294.117188 103.996094 294.835938 C 103.5625 294.980469 103.117188 295.042969 102.6875 295.042969 " fill-opacity="1" fill-rule="nonzero"/><path fill="#30bceb" d="M 97.386719 278.742188 C 95.601562 278.742188 93.949219 277.609375 93.367188 275.824219 C 92.648438 273.597656 93.859375 271.203125 96.085938 270.488281 C 96.519531 270.34375 96.957031 270.277344 97.394531 270.277344 C 99.183594 270.277344 100.84375 271.421875 101.425781 273.207031 C 102.144531 275.425781 100.929688 277.820312 98.703125 278.535156 C 98.265625 278.679688 97.828125 278.742188 97.386719 278.742188 " fill-opacity="1" fill-rule="nonzero"/><path fill="#30bceb" d="M 92.097656 262.445312 C 90.308594 262.445312 88.660156 261.3125 88.066406 259.523438 C 87.351562 257.300781 88.570312 254.90625 90.796875 254.1875 C 91.226562 254.042969 91.667969 253.980469 92.105469 253.980469 C 93.886719 253.980469 95.542969 255.113281 96.128906 256.90625 C 96.851562 259.125 95.632812 261.519531 93.40625 262.238281 C 92.976562 262.382812 92.535156 262.445312 92.097656 262.445312 " fill-opacity="1" fill-rule="nonzero"/><path fill="#30bceb" d="M 86.816406 246.144531 C 85.027344 246.144531 83.359375 245.011719 82.777344 243.21875 C 82.050781 241 83.273438 238.613281 85.5 237.886719 C 85.929688 237.746094 86.367188 237.679688 86.808594 237.679688 C 88.59375 237.679688 90.253906 238.8125 90.835938 240.609375 C 91.554688 242.828125 90.34375 245.21875 88.117188 245.945312 C 87.683594 246.082031 87.246094 246.144531 86.816406 246.144531 " fill-opacity="1" fill-rule="nonzero"/><path fill="#30bceb" d="M 81.507812 229.847656 C 79.730469 229.847656 78.0625 228.714844 77.480469 226.917969 C 76.761719 224.699219 77.984375 222.308594 80.207031 221.589844 C 80.640625 221.445312 81.078125 221.382812 81.515625 221.382812 C 83.296875 221.382812 84.957031 222.523438 85.539062 224.300781 C 86.257812 226.535156 85.042969 228.921875 82.816406 229.640625 C 82.386719 229.78125 81.949219 229.847656 81.507812 229.847656 " fill-opacity="1" fill-rule="nonzero"/><path fill="#30bceb" d="M 76.21875 213.546875 C 74.433594 213.546875 72.773438 212.414062 72.191406 210.621094 C 71.464844 208.402344 72.683594 206.015625 74.910156 205.289062 C 75.347656 205.148438 75.789062 205.082031 76.21875 205.082031 C 78.007812 205.082031 79.667969 206.214844 80.25 208.003906 C 80.964844 210.230469 79.753906 212.621094 77.527344 213.339844 C 77.089844 213.484375 76.648438 213.546875 76.21875 213.546875 " fill-opacity="1" fill-rule="nonzero"/><path fill="#30bceb" d="M 70.929688 197.257812 C 69.140625 197.257812 67.480469 196.117188 66.898438 194.328125 C 66.179688 192.101562 67.394531 189.71875 69.621094 188.992188 C 70.050781 188.855469 70.5 188.785156 70.929688 188.785156 C 72.714844 188.785156 74.367188 189.917969 74.949219 191.703125 C 75.675781 193.9375 74.464844 196.324219 72.230469 197.042969 C 71.796875 197.183594 71.359375 197.257812 70.929688 197.257812 " fill-opacity="1" fill-rule="nonzero"/><path fill="#30bceb" d="M 65.628906 180.949219 C 63.84375 180.949219 62.183594 179.816406 61.601562 178.023438 C 60.875 175.804688 62.105469 173.410156 64.320312 172.691406 C 64.761719 172.546875 65.199219 172.484375 65.640625 172.484375 C 67.417969 172.484375 69.078125 173.625 69.660156 175.414062 C 70.378906 177.640625 69.164062 180.023438 66.9375 180.742188 C 66.5 180.886719 66.0625 180.949219 65.628906 180.949219 " fill-opacity="1" fill-rule="nonzero"/><path fill="#30bceb" d="M 60.332031 164.660156 C 58.546875 164.660156 56.894531 163.519531 56.3125 161.730469 C 55.585938 159.503906 56.804688 157.121094 59.03125 156.394531 C 59.460938 156.25 59.910156 156.1875 60.339844 156.1875 C 62.128906 156.1875 63.78125 157.320312 64.363281 159.113281 C 65.089844 161.339844 63.875 163.726562 61.648438 164.441406 C 61.210938 164.585938 60.769531 164.660156 60.332031 164.660156 " fill-opacity="1" fill-rule="nonzero"/><path fill="#30bceb" d="M 55.042969 148.351562 C 53.253906 148.351562 51.59375 147.21875 51.011719 145.429688 C 50.292969 143.207031 51.515625 140.8125 53.734375 140.09375 C 54.171875 139.949219 54.613281 139.886719 55.042969 139.886719 C 56.828125 139.886719 58.488281 141.027344 59.070312 142.816406 C 59.796875 145.03125 58.578125 147.425781 56.351562 148.152344 C 55.921875 148.289062 55.472656 148.351562 55.042969 148.351562 " fill-opacity="1" fill-rule="nonzero"/><path fill="#30bceb" d="M 49.753906 132.058594 C 47.964844 132.058594 46.304688 130.917969 45.722656 129.132812 C 44.996094 126.90625 46.21875 124.519531 48.445312 123.789062 C 48.875 123.652344 49.3125 123.585938 49.742188 123.585938 C 51.53125 123.585938 53.199219 124.730469 53.78125 126.515625 C 54.5 128.742188 53.285156 131.128906 51.0625 131.84375 C 50.621094 131.988281 50.183594 132.058594 49.753906 132.058594 " fill-opacity="1" fill-rule="nonzero"/><path fill="#30bceb" d="M 44.453125 115.761719 C 42.667969 115.761719 41.007812 114.621094 40.425781 112.832031 C 39.707031 110.609375 40.925781 108.214844 43.152344 107.496094 C 43.585938 107.351562 44.023438 107.289062 44.460938 107.289062 C 46.25 107.289062 47.902344 108.421875 48.484375 110.214844 C 49.203125 112.433594 47.988281 114.828125 45.761719 115.554688 C 45.332031 115.691406 44.886719 115.761719 44.453125 115.761719 " fill-opacity="1" fill-rule="nonzero"/><path fill="#ffffff" d="M 104.417969 290.257812 C 105.136719 292.472656 103.921875 294.859375 101.695312 295.585938 C 99.46875 296.304688 97.085938 295.089844 96.359375 292.863281 C 95.640625 290.640625 96.851562 288.253906 99.078125 287.527344 C 101.304688 286.808594 103.691406 288.023438 104.417969 290.257812 " fill-opacity="1" fill-rule="nonzero"/><path fill="#ffffff" d="M 99.121094 273.949219 C 99.84375 276.175781 98.625 278.558594 96.398438 279.285156 C 94.171875 280.003906 91.785156 278.792969 91.070312 276.574219 C 90.34375 274.339844 91.5625 271.953125 93.789062 271.238281 C 96.015625 270.511719 98.402344 271.730469 99.121094 273.949219 " fill-opacity="1" fill-rule="nonzero"/><path fill="#ffffff" d="M 93.828125 257.648438 C 94.546875 259.875 93.335938 262.261719 91.109375 262.988281 C 88.882812 263.714844 86.488281 262.492188 85.769531 260.265625 C 85.050781 258.039062 86.265625 255.65625 88.492188 254.929688 C 90.710938 254.210938 93.101562 255.433594 93.828125 257.648438 " fill-opacity="1" fill-rule="nonzero"/><path fill="#ffffff" d="M 88.53125 241.351562 C 89.257812 243.578125 88.035156 245.96875 85.816406 246.6875 C 83.582031 247.414062 81.199219 246.195312 80.480469 243.96875 C 79.753906 241.742188 80.976562 239.355469 83.199219 238.636719 C 85.425781 237.914062 87.8125 239.132812 88.53125 241.351562 " fill-opacity="1" fill-rule="nonzero"/><path fill="#ffffff" d="M 83.242188 225.050781 C 83.960938 227.277344 82.746094 229.671875 80.519531 230.390625 C 78.292969 231.113281 75.898438 229.894531 75.183594 227.667969 C 74.464844 225.441406 75.675781 223.058594 77.902344 222.339844 C 80.128906 221.613281 82.515625 222.824219 83.242188 225.050781 " fill-opacity="1" fill-rule="nonzero"/><path fill="#ffffff" d="M 77.941406 208.753906 C 78.667969 210.988281 77.449219 213.363281 75.230469 214.089844 C 73.003906 214.816406 70.617188 213.59375 69.890625 211.371094 C 69.164062 209.144531 70.386719 206.757812 72.605469 206.039062 C 74.839844 205.3125 77.222656 206.535156 77.941406 208.753906 " fill-opacity="1" fill-rule="nonzero"/><path fill="#ffffff" d="M 72.652344 192.453125 C 73.371094 194.679688 72.15625 197.066406 69.929688 197.792969 C 67.714844 198.507812 65.320312 197.296875 64.601562 195.070312 C 63.875 192.851562 65.089844 190.460938 67.3125 189.734375 C 69.539062 189.015625 71.933594 190.234375 72.652344 192.453125 " fill-opacity="1" fill-rule="nonzero"/><path fill="#ffffff" d="M 67.355469 176.15625 C 68.082031 178.378906 66.859375 180.773438 64.640625 181.492188 C 62.414062 182.210938 60.03125 180.996094 59.304688 178.773438 C 58.578125 176.546875 59.796875 174.160156 62.015625 173.441406 C 64.25 172.714844 66.636719 173.9375 67.355469 176.15625 " fill-opacity="1" fill-rule="nonzero"/><path fill="#ffffff" d="M 62.0625 159.863281 C 62.78125 162.082031 61.570312 164.46875 59.34375 165.191406 C 57.125 165.910156 54.730469 164.699219 54.011719 162.472656 C 53.285156 160.246094 54.507812 157.859375 56.726562 157.144531 C 58.953125 156.417969 61.339844 157.628906 62.0625 159.863281 " fill-opacity="1" fill-rule="nonzero"/><path fill="#ffffff" d="M 56.765625 143.566406 C 57.492188 145.78125 56.277344 148.167969 54.054688 148.894531 C 51.828125 149.621094 49.441406 148.398438 48.714844 146.171875 C 47.988281 143.957031 49.210938 141.5625 51.425781 140.84375 C 53.660156 140.117188 56.046875 141.339844 56.765625 143.566406 " fill-opacity="1" fill-rule="nonzero"/><path fill="#ffffff" d="M 51.476562 127.265625 C 52.203125 129.484375 50.980469 131.867188 48.753906 132.59375 C 46.527344 133.3125 44.144531 132.101562 43.425781 129.875 C 42.699219 127.65625 43.917969 125.261719 46.144531 124.539062 C 48.363281 123.820312 50.75 125.039062 51.476562 127.265625 " fill-opacity="1" fill-rule="nonzero"/><path fill="#ffffff" d="M 46.183594 110.957031 C 46.902344 113.183594 45.691406 115.570312 43.464844 116.296875 C 41.238281 117.023438 38.851562 115.800781 38.125 113.574219 C 37.410156 111.347656 38.621094 108.964844 40.847656 108.246094 C 43.074219 107.519531 45.460938 108.742188 46.183594 110.957031 " fill-opacity="1" fill-rule="nonzero"/><path fill="#a51850" d="M 100.386719 291.566406 C 100.769531 292.746094 100.125 294.023438 98.9375 294.414062 L 86.28125 298.511719 C 85.09375 298.902344 83.824219 298.25 83.433594 297.0625 C 83.042969 295.871094 83.695312 294.597656 84.882812 294.214844 L 97.539062 290.105469 C 98.730469 289.714844 99.996094 290.375 100.386719 291.566406 " fill-opacity="1" fill-rule="nonzero"/><path fill="#a51850" d="M 95.089844 275.257812 C 95.480469 276.445312 94.828125 277.722656 93.636719 278.113281 L 80.992188 282.214844 C 79.800781 282.605469 78.523438 281.949219 78.140625 280.761719 C 77.75 279.574219 78.40625 278.304688 79.59375 277.914062 L 92.242188 273.804688 C 93.429688 273.421875 94.707031 274.070312 95.089844 275.257812 " fill-opacity="1" fill-rule="nonzero"/><path fill="#a51850" d="M 89.800781 258.964844 C 90.183594 260.148438 89.535156 261.421875 88.347656 261.804688 L 75.691406 265.914062 C 74.503906 266.304688 73.234375 265.652344 72.84375 264.464844 C 72.453125 263.273438 73.105469 261.996094 74.296875 261.613281 L 86.953125 257.507812 C 88.140625 257.125 89.410156 257.769531 89.800781 258.964844 " fill-opacity="1" fill-rule="nonzero"/><path fill="#a51850" d="M 84.5 242.660156 C 84.890625 243.847656 84.238281 245.125 83.050781 245.507812 L 70.402344 249.617188 C 69.214844 250.007812 67.9375 249.359375 67.554688 248.164062 C 67.164062 246.984375 67.816406 245.707031 69.007812 245.316406 L 81.652344 241.207031 C 82.84375 240.824219 84.117188 241.46875 84.5 242.660156 " fill-opacity="1" fill-rule="nonzero"/><path fill="#a51850" d="M 79.210938 226.359375 C 79.601562 227.558594 78.949219 228.832031 77.757812 229.214844 L 65.105469 233.316406 C 63.914062 233.707031 62.648438 233.0625 62.253906 231.863281 C 61.863281 230.675781 62.519531 229.40625 63.707031 229.015625 L 76.363281 224.910156 C 77.550781 224.527344 78.820312 225.179688 79.210938 226.359375 " fill-opacity="1" fill-rule="nonzero"/><path fill="#a51850" d="M 73.921875 210.0625 C 74.304688 211.25 73.648438 212.527344 72.46875 212.917969 L 59.8125 217.027344 C 58.625 217.410156 57.347656 216.753906 56.964844 215.574219 C 56.574219 214.386719 57.230469 213.101562 58.417969 212.71875 L 71.066406 208.609375 C 72.261719 208.226562 73.53125 208.871094 73.921875 210.0625 " fill-opacity="1" fill-rule="nonzero"/><path fill="#a51850" d="M 68.621094 193.769531 C 69.007812 194.949219 68.359375 196.234375 67.171875 196.617188 L 54.515625 200.726562 C 53.328125 201.109375 52.058594 200.457031 51.667969 199.273438 C 51.285156 198.078125 51.929688 196.800781 53.121094 196.417969 L 65.773438 192.308594 C 66.964844 191.925781 68.238281 192.582031 68.621094 193.769531 " fill-opacity="1" fill-rule="nonzero"/><path fill="#a51850" d="M 63.332031 177.472656 C 63.714844 178.652344 63.070312 179.929688 61.878906 180.320312 L 49.226562 184.429688 C 48.042969 184.8125 46.761719 184.164062 46.375 182.976562 C 45.984375 181.789062 46.640625 180.503906 47.828125 180.121094 L 60.476562 176.011719 C 61.671875 175.628906 62.941406 176.28125 63.332031 177.472656 " fill-opacity="1" fill-rule="nonzero"/><path fill="#a51850" d="M 58.035156 161.171875 C 58.417969 162.359375 57.769531 163.628906 56.582031 164.019531 L 43.933594 168.128906 C 42.738281 168.511719 41.460938 167.867188 41.078125 166.667969 C 40.695312 165.488281 41.34375 164.210938 42.53125 163.820312 L 55.1875 159.71875 C 56.375 159.328125 57.652344 159.984375 58.035156 161.171875 " fill-opacity="1" fill-rule="nonzero"/><path fill="#a51850" d="M 52.746094 144.863281 C 53.128906 146.0625 52.480469 147.332031 51.292969 147.722656 L 38.636719 151.828125 C 37.457031 152.210938 36.171875 151.566406 35.789062 150.378906 C 35.398438 149.1875 36.050781 147.914062 37.242188 147.53125 L 49.886719 143.414062 C 51.085938 143.03125 52.351562 143.675781 52.746094 144.863281 " fill-opacity="1" fill-rule="nonzero"/><path fill="#a51850" d="M 47.445312 128.574219 C 47.835938 129.761719 47.183594 131.039062 45.992188 131.421875 L 33.347656 135.53125 C 32.15625 135.921875 30.882812 135.269531 30.492188 134.078125 C 30.105469 132.890625 30.753906 131.605469 31.941406 131.222656 L 44.597656 127.113281 C 45.785156 126.730469 47.0625 127.386719 47.445312 128.574219 " fill-opacity="1" fill-rule="nonzero"/><path fill="#a51850" d="M 42.15625 112.273438 C 42.546875 113.464844 41.890625 114.742188 40.703125 115.125 L 28.046875 119.230469 C 26.867188 119.621094 25.582031 118.96875 25.199219 117.78125 C 24.816406 116.589844 25.464844 115.316406 26.652344 114.921875 L 39.308594 110.824219 C 40.496094 110.433594 41.765625 111.085938 42.15625 112.273438 " fill-opacity="1" fill-rule="nonzero"/><path fill="#ffffff" d="M 220.992188 254.617188 L 156.847656 275.449219 L 136.980469 214.28125 L 201.132812 193.449219 L 220.992188 254.617188 " fill-opacity="1" fill-rule="nonzero"/><path fill="#a51850" d="M 144.800781 219.269531 L 197.734375 202.074219 C 198.054688 201.980469 198.230469 201.636719 198.117188 201.316406 C 198.023438 201 197.679688 200.824219 197.359375 200.925781 L 144.433594 218.117188 C 144.113281 218.222656 143.9375 218.566406 144.042969 218.886719 C 144.144531 219.195312 144.488281 219.371094 144.800781 219.269531 " fill-opacity="1" fill-rule="nonzero"/><path fill="#a51850" d="M 147.417969 227.316406 L 200.351562 210.132812 C 200.664062 210.03125 200.839844 209.695312 200.734375 209.375 C 200.632812 209.054688 200.296875 208.878906 199.976562 208.984375 L 147.042969 226.167969 C 146.722656 226.273438 146.546875 226.617188 146.652344 226.933594 C 146.753906 227.246094 147.097656 227.421875 147.417969 227.316406 " fill-opacity="1" fill-rule="nonzero"/><path fill="#a51850" d="M 150.035156 235.375 L 202.96875 218.183594 C 203.289062 218.078125 203.457031 217.742188 203.359375 217.425781 C 203.257812 217.105469 202.914062 216.929688 202.59375 217.035156 L 149.660156 234.226562 C 149.339844 234.324219 149.171875 234.664062 149.269531 234.984375 C 149.371094 235.304688 149.714844 235.480469 150.035156 235.375 " fill-opacity="1" fill-rule="nonzero"/><path fill="#a51850" d="M 152.652344 243.425781 L 205.585938 226.242188 C 205.898438 226.136719 206.074219 225.800781 205.96875 225.484375 C 205.867188 225.164062 205.53125 224.988281 205.210938 225.09375 L 152.277344 242.277344 C 151.957031 242.378906 151.78125 242.722656 151.886719 243.042969 C 151.988281 243.351562 152.332031 243.527344 152.652344 243.425781 " fill-opacity="1" fill-rule="nonzero"/><path fill="#a51850" d="M 155.261719 251.484375 L 208.195312 234.289062 C 208.515625 234.1875 208.683594 233.851562 208.578125 233.53125 C 208.484375 233.214844 208.140625 233.039062 207.820312 233.140625 L 154.886719 250.328125 C 154.566406 250.429688 154.398438 250.773438 154.503906 251.09375 C 154.605469 251.410156 154.941406 251.585938 155.261719 251.484375 " fill-opacity="1" fill-rule="nonzero"/><path fill="#a51850" d="M 157.878906 259.53125 L 210.8125 242.347656 C 211.132812 242.246094 211.308594 241.902344 211.203125 241.582031 C 211.101562 241.269531 210.757812 241.09375 210.445312 241.199219 L 157.511719 258.382812 C 157.191406 258.488281 157.015625 258.832031 157.121094 259.148438 C 157.222656 259.460938 157.566406 259.636719 157.878906 259.53125 " fill-opacity="1" fill-rule="nonzero"/><path fill="#a51850" d="M 160.496094 267.589844 L 213.429688 250.40625 C 213.742188 250.300781 213.917969 249.960938 213.8125 249.640625 C 213.710938 249.328125 213.375 249.152344 213.054688 249.257812 L 160.121094 266.441406 C 159.800781 266.546875 159.632812 266.878906 159.738281 267.199219 C 159.839844 267.519531 160.175781 267.695312 160.496094 267.589844 " fill-opacity="1" fill-rule="nonzero"/><path fill="#57c265" d="M 115.191406 719.035156 L 619.996094 719.035156 L 619.996094 95.265625 L 115.191406 95.265625 Z M 115.191406 719.035156 " fill-opacity="1" fill-rule="nonzero"/><path fill="#ffffff" d="M 586.105469 677.171875 L 586.105469 671.003906 L 155.238281 671.003906 L 155.238281 143.308594 L 579.9375 143.308594 L 579.9375 677.171875 L 586.105469 677.171875 L 586.105469 671.003906 L 586.105469 677.171875 L 592.265625 677.171875 L 592.265625 130.976562 L 142.910156 130.976562 L 142.910156 683.332031 L 592.265625 683.332031 L 592.265625 677.171875 L 586.105469 677.171875 " fill-opacity="1" fill-rule="nonzero"/><path fill="#918f8f" d="M 239.898438 144.945312 L 251.257812 150.992188 C 259.535156 143.757812 269.667969 137.875 281.40625 136.855469 C 281.40625 136.855469 285.050781 79.167969 301.976562 42.300781 L 301.71875 42.164062 C 280.597656 76.796875 234.773438 112.042969 234.773438 112.042969 C 240.488281 122.359375 241.285156 134.046875 239.898438 144.945312 " fill-opacity="1" fill-rule="nonzero"/><path fill="#595657" d="M 245.5 147.921875 L 239.898438 144.945312 C 240.28125 141.984375 240.488281 138.96875 240.488281 135.9375 C 240.488281 127.800781 238.9375 119.558594 234.773438 112.042969 C 234.773438 112.042969 280.597656 76.796875 301.71875 42.164062 L 301.75 42.1875 L 273.226562 95.800781 C 272.101562 95.21875 270.894531 94.9375 269.707031 94.9375 C 266.953125 94.9375 264.296875 96.421875 262.917969 99.023438 C 260.929688 102.742188 262.320312 107.351562 266.003906 109.378906 L 245.5 147.921875 M 247.054688 106.394531 C 243.917969 107.925781 241.308594 110.773438 238.238281 112.441406 C 239.921875 115.707031 240.980469 119.183594 241.691406 122.765625 C 241.675781 121.480469 241.675781 120.195312 241.714844 118.914062 C 241.789062 116.3125 242.140625 113.964844 243.496094 111.683594 C 244.589844 109.851562 245.867188 108.160156 247.054688 106.394531 " fill-opacity="1" fill-rule="nonzero"/><path fill="#656263" d="M 269.699219 110.328125 C 268.476562 110.328125 267.242188 110.035156 266.09375 109.425781 C 266.0625 109.410156 266.027344 109.394531 266.003906 109.378906 L 273.226562 95.800781 C 273.257812 95.816406 273.289062 95.832031 273.320312 95.847656 C 277.0625 97.835938 278.492188 102.492188 276.488281 106.242188 C 275.109375 108.84375 272.453125 110.328125 269.699219 110.328125 " fill-opacity="1" fill-rule="nonzero"/><path fill="#444041" d="M 266.003906 109.378906 C 262.320312 107.351562 260.929688 102.742188 262.917969 99.023438 C 264.296875 96.421875 266.953125 94.9375 269.707031 94.9375 C 270.894531 94.9375 272.101562 95.21875 273.226562 95.800781 L 266.003906 109.378906 " fill-opacity="1" fill-rule="nonzero"/><path fill="#eae363" d="M 228.941406 220.800781 L 251.285156 151 L 239.90625 144.945312 L 194.496094 202.472656 L 63.4375 477.523438 C 62.359375 479.550781 63.859375 482.445312 66.78125 484.007812 C 69.699219 485.558594 72.941406 485.183594 74.023438 483.15625 L 228.941406 220.800781 " fill-opacity="1" fill-rule="nonzero"/><path fill="#eae363" d="M 70.402344 484.96875 C 69.90625 484.96875 69.398438 484.902344 68.878906 484.792969 C 69.398438 484.902344 69.90625 484.960938 70.402344 484.960938 C 70.832031 484.960938 71.25 484.917969 71.632812 484.832031 C 71.25 484.917969 70.832031 484.96875 70.402344 484.96875 M 68.863281 484.785156 C 68.863281 484.785156 68.863281 484.785156 68.855469 484.785156 C 68.863281 484.785156 68.863281 484.785156 68.863281 484.785156 " fill-opacity="1" fill-rule="nonzero"/><path fill="#52b648" d="M 251.285156 151 L 251.257812 150.984375 L 251.285156 151 M 246.625 148.519531 L 245.632812 147.992188 L 246.625 148.519531 " fill-opacity="1" fill-rule="nonzero"/><path fill="#837e37" d="M 251.257812 150.984375 L 246.625 148.519531 L 245.632812 147.992188 L 251.257812 150.984375 " fill-opacity="1" fill-rule="nonzero"/><path fill="#d8d030" d="M 70.402344 484.960938 C 69.90625 484.960938 69.398438 484.902344 68.878906 484.792969 C 68.871094 484.785156 68.871094 484.785156 68.863281 484.785156 C 68.863281 484.785156 68.863281 484.785156 68.855469 484.785156 C 68.183594 484.632812 67.488281 484.375 66.820312 484.027344 L 245.632812 147.992188 L 246.625 148.519531 L 251.257812 150.984375 L 251.285156 151 L 228.941406 220.800781 L 155.238281 345.617188 L 142.910156 366.484375 L 115.191406 413.4375 L 110.714844 421.023438 L 105.796875 429.34375 L 74.023438 483.15625 C 73.5625 484.027344 72.699219 484.59375 71.632812 484.832031 C 71.25 484.917969 70.832031 484.960938 70.402344 484.960938 M 85.835938 458.519531 C 85.683594 458.519531 85.371094 458.984375 85.132812 459.492188 C 82.027344 466.140625 78.949219 473.503906 73.347656 478.488281 C 72.589844 479.167969 71.855469 479.867188 71.015625 480.445312 C 70.578125 480.746094 69.921875 481.664062 70.1875 482.230469 C 70.339844 482.550781 70.609375 482.667969 70.929688 482.667969 C 71.550781 482.667969 72.339844 482.222656 72.707031 481.992188 C 74.113281 481.074219 74.75 479.4375 75.523438 478.019531 C 76.914062 475.449219 78.589844 473.046875 80.113281 470.558594 C 81.628906 468.070312 83.027344 465.492188 84.367188 462.914062 C 84.957031 461.773438 85.585938 460.609375 85.84375 459.324219 C 85.960938 458.742188 85.9375 458.519531 85.835938 458.519531 M 242.722656 166.574219 C 241.589844 166.574219 241.277344 169.40625 241.015625 170.117188 C 240.246094 172.140625 239.617188 174.199219 239.105469 176.304688 C 238.03125 180.726562 236.890625 185.089844 235.523438 189.4375 C 233.296875 196.515625 230.976562 203.558594 228.503906 210.554688 C 228.113281 211.679688 227.457031 212.710938 227.082031 213.859375 C 226.921875 214.363281 226.5625 215.152344 226.667969 215.6875 C 226.753906 216.15625 226.980469 216.339844 227.25 216.339844 C 227.769531 216.339844 228.4375 215.6875 228.636719 215.238281 C 229.285156 213.796875 229.875 212.328125 230.347656 210.804688 C 231.03125 208.578125 231.621094 206.320312 232.148438 204.054688 C 233.21875 199.492188 234.367188 194.984375 235.804688 190.523438 C 237.128906 186.421875 238.574219 182.378906 240.074219 178.339844 C 240.902344 176.105469 241.75 173.863281 242.386719 171.574219 C 242.714844 170.378906 243.289062 169.222656 243.335938 167.960938 C 243.359375 167.5 243.398438 166.597656 242.746094 166.574219 C 242.738281 166.574219 242.730469 166.574219 242.722656 166.574219 " fill-opacity="1" fill-rule="nonzero"/><path fill="#c22435" d="M 275.292969 93.269531 L 302.316406 42.484375 C 302.453125 42.226562 302.351562 41.902344 302.09375 41.757812 C 301.832031 41.621094 301.511719 41.726562 301.367188 41.980469 L 274.351562 92.769531 C 274.214844 93.023438 274.3125 93.351562 274.574219 93.488281 C 274.835938 93.628906 275.15625 93.527344 275.292969 93.269531 " fill-opacity="1" fill-rule="nonzero"/><path fill="#ffffff" d="M 277.996094 103.417969 C 276.003906 107.167969 271.34375 108.597656 267.59375 106.601562 C 263.84375 104.609375 262.421875 99.949219 264.417969 96.191406 C 266.410156 92.449219 271.0625 91.023438 274.820312 93.015625 C 278.570312 95.011719 279.992188 99.679688 277.996094 103.417969 " fill-opacity="1" fill-rule="nonzero"/><path fill="#acabab" d="M 241.691406 122.765625 C 240.980469 119.183594 239.921875 115.707031 238.238281 112.441406 C 241.308594 110.773438 243.917969 107.925781 247.054688 106.394531 C 245.867188 108.160156 244.589844 109.851562 243.496094 111.683594 C 242.140625 113.964844 241.789062 116.3125 241.714844 118.914062 C 241.675781 120.195312 241.675781 121.480469 241.691406 122.765625 " fill-opacity="1" fill-rule="nonzero"/><path fill="#c8c7c7" d="M 274.636719 135.691406 C 276.226562 130.402344 278.117188 125.261719 279.378906 119.855469 C 280.097656 116.796875 280.742188 113.734375 281.554688 110.710938 C 282.058594 108.828125 282.761719 107.007812 283.351562 105.160156 C 282.554688 111.75 281.316406 118.273438 280.613281 124.863281 C 280.511719 125.835938 280.34375 133.402344 279.832031 133.578125 C 277.988281 134.253906 276.234375 134.71875 274.636719 135.691406 " fill-opacity="1" fill-rule="nonzero"/><path fill="#ebe691" d="M 70.929688 482.667969 C 70.609375 482.667969 70.339844 482.550781 70.1875 482.230469 C 69.921875 481.664062 70.578125 480.746094 71.015625 480.445312 C 71.855469 479.867188 72.589844 479.167969 73.347656 478.488281 C 78.949219 473.503906 82.027344 466.140625 85.132812 459.492188 C 85.371094 458.984375 85.683594 458.519531 85.835938 458.519531 C 85.9375 458.519531 85.960938 458.742188 85.84375 459.324219 C 85.585938 460.609375 84.957031 461.773438 84.367188 462.914062 C 83.027344 465.492188 81.628906 468.070312 80.113281 470.558594 C 78.589844 473.046875 76.914062 475.449219 75.523438 478.019531 C 74.75 479.4375 74.113281 481.074219 72.707031 481.992188 C 72.339844 482.222656 71.550781 482.667969 70.929688 482.667969 " fill-opacity="1" fill-rule="nonzero"/><path fill="#ebe691" d="M 227.25 216.339844 C 226.980469 216.339844 226.753906 216.15625 226.667969 215.6875 C 226.5625 215.152344 226.921875 214.363281 227.082031 213.859375 C 227.457031 212.710938 228.113281 211.679688 228.503906 210.554688 C 230.976562 203.558594 233.296875 196.515625 235.523438 189.4375 C 236.890625 185.089844 238.03125 180.726562 239.105469 176.304688 C 239.617188 174.199219 240.246094 172.140625 241.015625 170.117188 C 241.277344 169.40625 241.589844 166.574219 242.722656 166.574219 C 242.730469 166.574219 242.738281 166.574219 242.746094 166.574219 C 243.398438 166.597656 243.359375 167.5 243.335938 167.960938 C 243.289062 169.222656 242.714844 170.378906 242.386719 171.574219 C 241.75 173.863281 240.902344 176.105469 240.074219 178.339844 C 238.574219 182.378906 237.128906 186.421875 235.804688 190.523438 C 234.367188 194.984375 233.21875 199.492188 232.148438 204.054688 C 231.621094 206.320312 231.03125 208.578125 230.347656 210.804688 C 229.875 212.328125 229.285156 213.796875 228.636719 215.238281 C 228.4375 215.6875 227.769531 216.339844 227.25 216.339844 " fill-opacity="1" fill-rule="nonzero"/><path fill="#f35b54" d="M 560.445312 385.234375 C 559.050781 385.425781 557.667969 385.808594 556.328125 386.421875 C 554.757812 387.148438 553.375 388.136719 552.203125 389.304688 L 558.675781 403.351562 L 567.019531 399.507812 L 560.445312 385.234375 " fill-opacity="1" fill-rule="nonzero"/><path fill="#ef2e33" d="M 556.910156 399.515625 L 552.203125 389.304688 C 553.320312 388.195312 554.628906 387.246094 556.121094 386.535156 L 561.195312 397.542969 L 556.910156 399.515625 " fill-opacity="1" fill-rule="nonzero"/><path fill="#57c6bb" d="M 553.949219 400.886719 L 629.339844 564.460938 L 643.941406 557.726562 L 568.554688 394.152344 L 553.949219 400.886719 " fill-opacity="1" fill-rule="nonzero"/><path fill="#1eb399" d="M 636.433594 561.1875 L 575.453125 428.875 L 582.964844 425.417969 L 575.628906 409.503906 L 643.941406 557.726562 L 636.582031 561.117188 L 636.433594 561.1875 M 567.4375 411.472656 L 561.042969 397.617188 L 568.554688 394.152344 L 574.945312 408.011719 L 567.4375 411.472656 " fill-opacity="1" fill-rule="nonzero"/><path fill="#eae363" d="M 646.726562 582.042969 L 646.023438 582.371094 L 629.339844 564.460938 L 643.941406 557.726562 L 646.726562 582.042969 " fill-opacity="1" fill-rule="nonzero"/><path fill="#eae363" d="M 646.023438 582.371094 L 629.339844 564.460938 L 646.023438 582.371094 L 646.320312 582.234375 L 646.023438 582.371094 " fill-opacity="1" fill-rule="nonzero"/><path fill="#49be60" d="M 629.339844 564.460938 L 636.433594 561.1875 L 629.339844 564.460938 " fill-opacity="1" fill-rule="nonzero"/><path fill="#0ba94d" d="M 636.433594 561.1875 L 636.582031 561.117188 L 636.433594 561.1875 " fill-opacity="1" fill-rule="nonzero"/><path fill="#e9de09" d="M 646.023438 582.371094 L 629.339844 564.460938 L 636.582031 561.117188 L 646.320312 582.234375 L 646.023438 582.371094 " fill-opacity="1" fill-rule="nonzero"/><path fill="#eae363" d="M 560.34375 414.746094 L 568.363281 432.144531 L 582.964844 425.417969 L 574.945312 408.011719 L 560.34375 414.746094 " fill-opacity="1" fill-rule="nonzero"/><path fill="#52b768" d="M 568.363281 432.144531 L 560.34375 414.746094 L 568.363281 432.144531 L 575.453125 428.875 L 568.363281 432.144531 M 560.34375 414.746094 L 567.4375 411.472656 L 560.34375 414.746094 " fill-opacity="1" fill-rule="nonzero"/><path fill="#d8d030" d="M 568.363281 432.144531 L 560.34375 414.746094 L 567.4375 411.472656 L 575.453125 428.875 L 568.363281 432.144531 " fill-opacity="1" fill-rule="nonzero"/><path fill="#eae363" d="M 575.382812 412.582031 C 578.375 412.273438 580.699219 417.042969 581.855469 419.148438 C 583.671875 422.460938 585.316406 425.914062 587 429.296875 C 592.5 440.28125 597.054688 451.714844 602.050781 462.921875 C 602.824219 464.648438 605.472656 463.417969 604.707031 461.703125 C 599.191406 449.328125 594.160156 436.730469 587.933594 424.683594 C 585.421875 419.8125 581.902344 408.976562 574.914062 409.695312 C 573.027344 409.886719 573.523438 412.773438 575.382812 412.582031 " fill-opacity="1" fill-rule="nonzero"/><path fill="#2a5f6f" d="M 624.6875 634.140625 C 624.6875 634.140625 595.832031 656.582031 576.828125 664.894531 C 557.804688 673.199219 521.738281 679.128906 521.738281 679.128906 L 508.933594 684.726562 L 517.582031 704.511719 L 519.960938 703.476562 L 536.085938 740.367188 L 533.707031 741.410156 L 545.484375 768.335938 L 558.300781 762.746094 C 558.300781 762.746094 588.347656 743.046875 607.363281 734.742188 C 626.371094 726.429688 661.238281 717.75 661.238281 717.75 L 674.046875 712.148438 L 637.492188 628.539062 L 624.6875 634.140625 " fill-opacity="1" fill-rule="nonzero"/><path fill="#54b5df" d="M 622.730469 637.914062 C 622.730469 637.914062 595.578125 659.039062 577.6875 666.863281 C 559.792969 674.683594 525.839844 680.269531 525.839844 680.269531 L 513.785156 685.542969 L 521.921875 704.15625 L 524.15625 703.179688 L 539.339844 737.910156 L 537.097656 738.882812 L 548.191406 764.238281 L 560.246094 758.964844 C 560.246094 758.964844 588.53125 740.429688 606.429688 732.613281 C 624.328125 724.792969 657.144531 716.617188 657.144531 716.617188 L 669.195312 711.34375 L 634.789062 632.648438 L 622.730469 637.914062 " fill-opacity="1" fill-rule="nonzero"/><path fill="#e9e9e9" d="M 613.929688 664.128906 L 520.445312 704.992188 L 535.566406 739.570312 L 629.050781 698.707031 C 637.867188 694.851562 641.890625 684.585938 638.035156 675.769531 L 636.871094 673.105469 C 633.015625 664.296875 622.746094 660.273438 613.929688 664.128906 " fill-opacity="1" fill-rule="nonzero"/><path fill="#afc8d5" d="M 532.820312 733.296875 L 535.566406 739.570312 L 629.050781 698.707031 C 634.222656 696.449219 637.742188 691.980469 638.992188 686.890625 L 532.820312 733.296875 " fill-opacity="1" fill-rule="nonzero"/><path fill="#3b689e" d="M 534.289062 736.640625 L 535.566406 739.570312 L 629.050781 698.707031 C 632.484375 697.207031 635.171875 694.742188 636.964844 691.765625 L 534.289062 736.640625 " fill-opacity="1" fill-rule="nonzero"/><path fill="#54b5df" d="M 577.136719 692.53125 C 578.230469 695.027344 577.089844 697.929688 574.601562 699.023438 C 572.097656 700.117188 569.191406 698.976562 568.097656 696.480469 C 567.011719 693.980469 568.144531 691.078125 570.644531 689.984375 C 573.140625 688.890625 576.054688 690.035156 577.136719 692.53125 " fill-opacity="1" fill-rule="nonzero"/><path fill="#254a6e" d="M 575.246094 692.300781 L 573.125 693.222656 L 572.199219 691.101562 C 571.984375 690.609375 571.410156 690.382812 570.914062 690.601562 C 570.421875 690.816406 570.195312 691.390625 570.410156 691.882812 L 571.335938 694 L 569.214844 694.933594 C 568.726562 695.148438 568.496094 695.722656 568.71875 696.207031 C 568.929688 696.703125 569.503906 696.925781 569.996094 696.710938 L 572.121094 695.785156 L 573.046875 697.90625 C 573.261719 698.402344 573.835938 698.625 574.328125 698.410156 C 574.824219 698.195312 575.046875 697.621094 574.832031 697.125 L 573.90625 695.011719 L 576.019531 694.078125 C 576.515625 693.863281 576.746094 693.289062 576.523438 692.792969 C 576.316406 692.308594 575.734375 692.082031 575.246094 692.300781 " fill-opacity="1" fill-rule="nonzero"/><path fill="#3aa6d5" d="M 548.191406 764.238281 L 546.355469 760.039062 C 547.71875 758.921875 549.109375 757.839844 550.488281 756.761719 C 555.707031 752.683594 560.75 748.410156 566.046875 744.433594 C 569.039062 742.195312 572.097656 740.03125 575.191406 737.933594 C 578.566406 735.644531 581.511719 733.808594 584.414062 732.132812 C 587.617188 730.289062 590.894531 728.679688 594.316406 727.289062 C 595.945312 726.636719 597.597656 726.054688 599.265625 725.503906 C 600.078125 725.222656 600.910156 724.976562 601.730469 724.722656 C 601.882812 724.683594 602.011719 724.640625 602.121094 724.609375 C 602.664062 724.464844 603.207031 724.316406 603.75 724.171875 C 610.738281 722.328125 617.863281 721.011719 624.878906 719.25 C 637.191406 716.144531 649.414062 708.894531 652.917969 695.832031 C 656.460938 682.621094 651.160156 668.683594 641.632812 659.238281 C 636.488281 654.132812 630.433594 650.246094 623.164062 649.050781 C 622.117188 648.875 621.082031 648.796875 620.058594 648.796875 C 613.660156 648.796875 607.753906 651.929688 602.375 655.21875 C 596.28125 658.933594 591.621094 661.964844 584.863281 665.398438 C 578.023438 668.867188 570.914062 671.804688 563.628906 674.195312 C 557.726562 676.144531 550.34375 677.621094 543.242188 678.894531 C 536.613281 680.085938 529.949219 681.097656 523.207031 681.449219 L 523.128906 681.449219 L 525.839844 680.269531 C 525.839844 680.269531 559.792969 674.683594 577.6875 666.863281 C 595.578125 659.039062 622.730469 637.914062 622.730469 637.914062 L 634.789062 632.648438 L 669.195312 711.34375 L 657.144531 716.617188 C 657.144531 716.617188 624.328125 724.792969 606.429688 732.613281 C 588.53125 740.429688 560.246094 758.964844 560.246094 758.964844 L 548.191406 764.238281 M 602.097656 724.617188 C 602.410156 724.523438 602.566406 724.472656 602.566406 724.472656 C 602.566406 724.472656 602.425781 724.523438 602.121094 724.609375 C 602.113281 724.609375 602.105469 724.617188 602.097656 724.617188 " fill-opacity="1" fill-rule="nonzero"/><g clip-path="url(#0eb9626eed)"><path fill="#cd8ccc" d="M 612.144531 280.425781 L 493.964844 186.972656 L 624.824219 21.542969 L 743.003906 114.996094 L 612.144531 280.425781 " fill-opacity="1" fill-rule="nonzero"/></g><path fill="#986795" d="M 623.242188 45.417969 C 622.003906 45.417969 620.769531 45.019531 619.722656 44.199219 C 617.265625 42.253906 616.851562 38.679688 618.789062 36.222656 C 619.90625 34.808594 621.574219 34.066406 623.242188 34.066406 C 624.480469 34.066406 625.722656 34.464844 626.769531 35.289062 C 629.226562 37.234375 629.648438 40.808594 627.703125 43.265625 C 626.578125 44.683594 624.917969 45.417969 623.242188 45.417969 " fill-opacity="1" fill-rule="nonzero"/><path fill="#986795" d="M 640.613281 59.15625 C 639.375 59.15625 638.140625 58.757812 637.09375 57.9375 C 634.636719 55.992188 634.222656 52.417969 636.167969 49.957031 C 637.285156 48.546875 638.945312 47.804688 640.613281 47.804688 C 641.851562 47.804688 643.09375 48.203125 644.140625 49.035156 C 646.597656 50.972656 647.011719 54.546875 645.074219 57.003906 C 643.949219 58.414062 642.289062 59.15625 640.613281 59.15625 " fill-opacity="1" fill-rule="nonzero"/><path fill="#986795" d="M 657.976562 72.894531 C 656.746094 72.894531 655.503906 72.496094 654.464844 71.675781 C 652.007812 69.726562 651.59375 66.152344 653.53125 63.695312 C 654.65625 62.277344 656.316406 61.542969 657.992188 61.542969 C 659.222656 61.542969 660.464844 61.941406 661.511719 62.761719 C 663.96875 64.710938 664.382812 68.277344 662.445312 70.734375 C 661.320312 72.152344 659.660156 72.894531 657.976562 72.894531 " fill-opacity="1" fill-rule="nonzero"/><path fill="#986795" d="M 675.347656 86.625 C 674.117188 86.625 672.875 86.226562 671.835938 85.40625 C 669.371094 83.464844 668.964844 79.890625 670.902344 77.433594 C 672.019531 76.015625 673.6875 75.28125 675.363281 75.28125 C 676.589844 75.28125 677.835938 75.679688 678.882812 76.5 C 681.339844 78.449219 681.753906 82.015625 679.808594 84.472656 C 678.691406 85.890625 677.023438 86.625 675.347656 86.625 " fill-opacity="1" fill-rule="nonzero"/><path fill="#986795" d="M 692.71875 100.363281 C 691.488281 100.363281 690.242188 99.964844 689.207031 99.144531 C 686.742188 97.195312 686.328125 93.628906 688.273438 91.164062 C 689.390625 89.753906 691.050781 89.011719 692.726562 89.011719 C 693.960938 89.011719 695.207031 89.410156 696.246094 90.238281 C 698.710938 92.1875 699.125 95.753906 697.179688 98.210938 C 696.0625 99.621094 694.394531 100.363281 692.71875 100.363281 " fill-opacity="1" fill-rule="nonzero"/><path fill="#986795" d="M 710.089844 114.101562 C 708.859375 114.101562 707.613281 113.703125 706.578125 112.882812 C 704.113281 110.933594 703.703125 107.359375 705.644531 104.902344 C 706.769531 103.492188 708.429688 102.75 710.105469 102.75 C 711.332031 102.75 712.578125 103.148438 713.625 103.976562 C 716.082031 105.917969 716.496094 109.492188 714.546875 111.941406 C 713.429688 113.359375 711.765625 114.101562 710.089844 114.101562 " fill-opacity="1" fill-rule="nonzero"/><path fill="#986795" d="M 727.460938 127.839844 C 726.222656 127.839844 724.984375 127.441406 723.941406 126.621094 C 721.484375 124.671875 721.074219 121.097656 723.023438 118.632812 C 724.140625 117.222656 725.792969 116.488281 727.46875 116.488281 C 728.703125 116.488281 729.949219 116.886719 730.984375 117.707031 C 733.445312 119.65625 733.867188 123.222656 731.917969 125.6875 C 730.800781 127.097656 729.132812 127.839844 727.460938 127.839844 " fill-opacity="1" fill-rule="nonzero"/><path fill="#ffffff" d="M 628.230469 40.726562 C 626.28125 43.1875 622.714844 43.609375 620.25 41.660156 C 617.792969 39.714844 617.378906 36.148438 619.324219 33.691406 C 621.273438 31.226562 624.839844 30.8125 627.296875 32.757812 C 629.753906 34.695312 630.175781 38.261719 628.230469 40.726562 " fill-opacity="1" fill-rule="nonzero"/><path fill="#ffffff" d="M 645.601562 54.464844 C 643.652344 56.921875 640.085938 57.339844 637.621094 55.390625 C 635.164062 53.453125 634.75 49.878906 636.695312 47.421875 C 638.632812 44.964844 642.210938 44.542969 644.667969 46.488281 C 647.125 48.433594 647.546875 52.007812 645.601562 54.464844 " fill-opacity="1" fill-rule="nonzero"/><path fill="#ffffff" d="M 662.972656 68.195312 C 661.023438 70.660156 657.449219 71.078125 654.992188 69.136719 C 652.535156 67.191406 652.121094 63.617188 654.058594 61.160156 C 656.003906 58.703125 659.570312 58.289062 662.039062 60.226562 C 664.496094 62.171875 664.917969 65.746094 662.972656 68.195312 " fill-opacity="1" fill-rule="nonzero"/><path fill="#ffffff" d="M 680.332031 81.941406 C 678.394531 84.398438 674.820312 84.816406 672.363281 82.867188 C 669.90625 80.921875 669.488281 77.355469 671.429688 74.898438 C 673.375 72.433594 676.941406 72.019531 679.410156 73.964844 C 681.867188 75.910156 682.289062 79.476562 680.332031 81.941406 " fill-opacity="1" fill-rule="nonzero"/><path fill="#ffffff" d="M 697.703125 95.671875 C 695.757812 98.136719 692.191406 98.542969 689.734375 96.597656 C 687.277344 94.660156 686.859375 91.09375 688.808594 88.628906 C 690.746094 86.171875 694.3125 85.75 696.777344 87.703125 C 699.238281 89.648438 699.652344 93.214844 697.703125 95.671875 " fill-opacity="1" fill-rule="nonzero"/><path fill="#ffffff" d="M 715.074219 109.402344 C 713.136719 111.867188 709.5625 112.28125 707.105469 110.34375 C 704.648438 108.398438 704.230469 104.824219 706.179688 102.367188 C 708.117188 99.910156 711.691406 99.496094 714.148438 101.441406 C 716.605469 103.378906 717.023438 106.953125 715.074219 109.402344 " fill-opacity="1" fill-rule="nonzero"/><path fill="#ffffff" d="M 732.445312 123.148438 C 730.5 125.605469 726.933594 126.019531 724.476562 124.074219 C 722.007812 122.128906 721.59375 118.5625 723.542969 116.097656 C 725.488281 113.648438 729.054688 113.230469 731.519531 115.179688 C 733.976562 117.125 734.394531 120.691406 732.445312 123.148438 " fill-opacity="1" fill-rule="nonzero"/><path fill="#e9e9e9" d="M 613.546875 273.652344 L 500.226562 184.046875 L 611.910156 42.851562 L 725.234375 132.460938 L 613.546875 273.652344 " fill-opacity="1" fill-rule="nonzero"/><path fill="#bc7fba" d="M 725.234375 132.460938 L 711.941406 121.945312 L 725.234375 132.460938 " fill-opacity="1" fill-rule="nonzero"/><path fill="#d6d5d5" d="M 613.546875 273.652344 L 500.226562 184.046875 L 509.003906 172.957031 C 520.667969 182.441406 530.929688 193.5625 542.667969 202.984375 C 555.945312 213.644531 572.453125 222.226562 589.746094 223.160156 C 590.886719 223.226562 592.011719 223.257812 593.136719 223.257812 C 620.355469 223.257812 644.277344 205.433594 663.027344 187.246094 C 682.6875 168.175781 697.546875 145.175781 711.941406 121.945312 L 725.234375 132.460938 L 613.546875 273.652344 " fill-opacity="1" fill-rule="nonzero"/><path fill="#bdbcbc" d="M 605.019531 55.496094 L 714.515625 142.089844 L 714.875 141.632812 L 605.378906 55.039062 " fill-opacity="1" fill-rule="nonzero"/><path fill="#bdbcbc" d="M 596.152344 66.703125 L 705.652344 153.289062 L 706.011719 152.84375 L 596.511719 66.25 " fill-opacity="1" fill-rule="nonzero"/><path fill="#bdbcbc" d="M 587.289062 77.914062 L 696.777344 164.507812 L 697.136719 164.050781 L 587.648438 77.460938 " fill-opacity="1" fill-rule="nonzero"/><path fill="#bdbcbc" d="M 578.421875 89.132812 L 687.914062 175.714844 L 688.273438 175.261719 L 578.78125 88.675781 " fill-opacity="1" fill-rule="nonzero"/><path fill="#bdbcbc" d="M 569.550781 100.339844 L 679.042969 186.925781 L 679.398438 186.46875 L 569.910156 99.878906 " fill-opacity="1" fill-rule="nonzero"/><path fill="#bdbcbc" d="M 560.675781 111.542969 L 670.183594 198.132812 L 670.542969 197.679688 L 561.035156 111.09375 " fill-opacity="1" fill-rule="nonzero"/><path fill="#bdbcbc" d="M 551.8125 122.757812 L 661.3125 209.34375 L 661.671875 208.886719 L 552.171875 122.304688 " fill-opacity="1" fill-rule="nonzero"/><path fill="#bdbcbc" d="M 542.949219 133.96875 L 652.4375 220.550781 L 652.804688 220.105469 L 543.308594 133.511719 " fill-opacity="1" fill-rule="nonzero"/><path fill="#bdbcbc" d="M 534.082031 145.175781 L 643.574219 231.761719 L 643.933594 231.308594 L 534.441406 144.722656 " fill-opacity="1" fill-rule="nonzero"/><path fill="#bdbcbc" d="M 525.210938 156.386719 L 634.707031 242.976562 L 635.066406 242.523438 L 525.570312 155.9375 " fill-opacity="1" fill-rule="nonzero"/><path fill="#bdbcbc" d="M 516.34375 167.59375 L 625.84375 254.1875 L 626.203125 253.734375 L 516.703125 167.148438 " fill-opacity="1" fill-rule="nonzero"/><path fill="#bdbcbc" d="M 507.472656 178.8125 L 616.972656 265.398438 L 617.328125 264.941406 L 507.832031 178.355469 " fill-opacity="1" fill-rule="nonzero"/><path fill="#cd8ccc" d="M 318.789062 650.773438 L 213.292969 787.957031 L 21.226562 640.273438 L 126.726562 503.101562 L 318.789062 650.773438 " fill-opacity="1" fill-rule="nonzero"/><path fill="#986795" d="M 42.15625 648.316406 C 40.765625 648.316406 39.371094 647.878906 38.183594 646.96875 C 35.324219 644.773438 34.800781 640.671875 36.984375 637.824219 C 38.277344 636.15625 40.207031 635.28125 42.171875 635.28125 C 43.550781 635.28125 44.949219 635.71875 46.136719 636.628906 C 48.992188 638.824219 49.527344 642.914062 47.328125 645.769531 C 46.042969 647.445312 44.109375 648.316406 42.15625 648.316406 " fill-opacity="1" fill-rule="nonzero"/><path fill="#986795" d="M 57.667969 628.15625 C 56.277344 628.15625 54.875 627.71875 53.695312 626.808594 C 50.835938 624.605469 50.300781 620.519531 52.503906 617.664062 C 53.78125 615.996094 55.71875 615.121094 57.675781 615.121094 C 59.0625 615.121094 60.460938 615.558594 61.640625 616.46875 C 64.496094 618.664062 65.03125 622.761719 62.839844 625.609375 C 61.554688 627.285156 59.621094 628.15625 57.667969 628.15625 " fill-opacity="1" fill-rule="nonzero"/><path fill="#986795" d="M 73.164062 607.996094 C 71.773438 607.996094 70.378906 607.558594 69.199219 606.640625 C 66.339844 604.445312 65.804688 600.351562 68.007812 597.496094 C 69.292969 595.828125 71.222656 594.953125 73.179688 594.953125 C 74.566406 594.953125 75.964844 595.398438 77.144531 596.308594 C 80 598.5 80.542969 602.59375 78.339844 605.449219 C 77.058594 607.117188 75.125 607.996094 73.164062 607.996094 " fill-opacity="1" fill-rule="nonzero"/><path fill="#986795" d="M 88.675781 587.835938 C 87.285156 587.835938 85.890625 587.386719 84.699219 586.480469 C 81.851562 584.292969 81.316406 580.199219 83.511719 577.335938 C 84.796875 575.667969 86.726562 574.800781 88.683594 574.800781 C 90.070312 574.800781 91.46875 575.238281 92.65625 576.148438 C 95.503906 578.339844 96.046875 582.433594 93.851562 585.289062 C 92.570312 586.957031 90.628906 587.835938 88.675781 587.835938 " fill-opacity="1" fill-rule="nonzero"/><path fill="#986795" d="M 104.1875 567.675781 C 102.796875 567.675781 101.394531 567.234375 100.203125 566.328125 C 97.355469 564.125 96.820312 560.03125 99.015625 557.183594 C 100.300781 555.515625 102.230469 554.640625 104.195312 554.640625 C 105.574219 554.640625 106.980469 555.078125 108.160156 555.988281 C 111.007812 558.179688 111.550781 562.28125 109.355469 565.128906 C 108.070312 566.796875 106.140625 567.675781 104.1875 567.675781 " fill-opacity="1" fill-rule="nonzero"/><path fill="#986795" d="M 119.683594 547.515625 C 118.300781 547.515625 116.90625 547.074219 115.722656 546.167969 C 112.867188 543.964844 112.324219 539.871094 114.527344 537.015625 C 115.8125 535.347656 117.742188 534.46875 119.691406 534.46875 C 121.078125 534.46875 122.484375 534.917969 123.664062 535.828125 C 126.519531 538.019531 127.054688 542.121094 124.859375 544.96875 C 123.574219 546.636719 121.636719 547.515625 119.683594 547.515625 " fill-opacity="1" fill-rule="nonzero"/><path fill="#986795" d="M 135.195312 527.355469 C 133.804688 527.355469 132.410156 526.90625 131.21875 525.996094 C 128.363281 523.804688 127.835938 519.710938 130.023438 516.863281 C 131.308594 515.1875 133.246094 514.308594 135.203125 514.308594 C 136.589844 514.308594 137.984375 514.757812 139.175781 515.667969 C 142.023438 517.859375 142.558594 521.953125 140.363281 524.808594 C 139.085938 526.476562 137.148438 527.355469 135.195312 527.355469 " fill-opacity="1" fill-rule="nonzero"/><path fill="#ffffff" d="M 43.210938 636.0625 C 46.066406 638.257812 46.601562 642.347656 44.40625 645.203125 C 42.210938 648.0625 38.117188 648.585938 35.269531 646.402344 C 32.40625 644.199219 31.871094 640.105469 34.074219 637.257812 C 36.265625 634.402344 40.359375 633.867188 43.210938 636.0625 " fill-opacity="1" fill-rule="nonzero"/><path fill="#ffffff" d="M 58.722656 615.894531 C 61.578125 618.097656 62.113281 622.1875 59.917969 625.042969 C 57.714844 627.902344 53.628906 628.433594 50.765625 626.242188 C 47.917969 624.046875 47.382812 619.953125 49.578125 617.097656 C 51.777344 614.242188 55.863281 613.707031 58.722656 615.894531 " fill-opacity="1" fill-rule="nonzero"/><path fill="#ffffff" d="M 74.222656 595.734375 C 77.082031 597.933594 77.617188 602.027344 75.421875 604.882812 C 73.226562 607.730469 69.132812 608.265625 66.277344 606.082031 C 63.421875 603.878906 62.886719 599.792969 65.082031 596.929688 C 67.273438 594.082031 71.375 593.546875 74.222656 595.734375 " fill-opacity="1" fill-rule="nonzero"/><path fill="#ffffff" d="M 89.726562 575.582031 C 92.59375 577.773438 93.128906 581.867188 90.925781 584.722656 C 88.730469 587.570312 84.628906 588.113281 81.789062 585.921875 C 78.925781 583.71875 78.390625 579.625 80.589844 576.777344 C 82.785156 573.921875 86.871094 573.386719 89.726562 575.582031 " fill-opacity="1" fill-rule="nonzero"/><path fill="#ffffff" d="M 105.238281 555.421875 C 108.097656 557.613281 108.621094 561.707031 106.429688 564.5625 C 104.234375 567.417969 100.148438 567.953125 97.285156 565.761719 C 94.429688 563.558594 93.894531 559.464844 96.09375 556.609375 C 98.289062 553.753906 102.382812 553.21875 105.238281 555.421875 " fill-opacity="1" fill-rule="nonzero"/><path fill="#ffffff" d="M 120.734375 535.261719 C 123.601562 537.453125 124.132812 541.546875 121.941406 544.402344 C 119.738281 547.257812 115.644531 547.792969 112.796875 545.589844 C 109.9375 543.398438 109.40625 539.296875 111.605469 536.457031 C 113.792969 533.59375 117.886719 533.058594 120.734375 535.261719 " fill-opacity="1" fill-rule="nonzero"/><path fill="#ffffff" d="M 136.246094 515.101562 C 139.101562 517.292969 139.636719 521.386719 137.445312 524.242188 C 135.242188 527.097656 131.15625 527.625 128.292969 525.429688 C 125.441406 523.238281 124.910156 519.144531 127.109375 516.296875 C 129.304688 513.433594 133.398438 512.898438 136.246094 515.101562 " fill-opacity="1" fill-rule="nonzero"/><path fill="#e9e9e9" d="M 310.984375 649.273438 L 209.839844 780.800781 L 45.898438 654.753906 L 147.058594 523.230469 L 310.984375 649.273438 " fill-opacity="1" fill-rule="nonzero"/><path fill="#bc7fba" d="M 209.839844 780.800781 L 196.960938 770.898438 L 209.839844 780.800781 L 310.984375 649.273438 L 209.839844 780.800781 " fill-opacity="1" fill-rule="nonzero"/><path fill="#d6d5d5" d="M 209.839844 780.800781 L 196.960938 770.898438 C 207.675781 757.34375 220.285156 745.394531 230.929688 731.773438 C 242.960938 716.351562 252.558594 697.261719 253.367188 677.394531 C 254.179688 657.609375 246.65625 639.398438 235.730469 623.203125 L 249.390625 605.441406 L 248.867188 605.035156 L 235.339844 622.628906 C 232.277344 618.128906 228.949219 613.789062 225.46875 609.613281 L 236.386719 595.4375 L 235.851562 595.03125 L 225.03125 609.097656 C 221.570312 604.964844 217.953125 601 214.300781 597.210938 L 223.363281 585.425781 L 222.828125 585.019531 L 213.828125 596.722656 C 212.878906 595.742188 211.914062 594.769531 210.957031 593.8125 C 208.1875 591.027344 205.339844 588.328125 202.433594 585.707031 L 210.351562 575.421875 L 209.824219 575.015625 L 201.941406 585.257812 C 199.523438 583.097656 197.054688 580.980469 194.558594 578.90625 L 192.804688 571.304688 L 197.335938 565.417969 L 196.808594 565.011719 L 192.613281 570.46875 L 189.179688 555.621094 L 310.984375 649.273438 L 209.839844 780.800781 M 167.238281 558.738281 C 165.875 557.828125 164.5 556.921875 163.128906 556.019531 L 165.808594 552.539062 L 167.238281 558.738281 M 162.570312 555.652344 C 153.585938 549.796875 144.402344 544.195312 135.195312 538.667969 L 147.058594 523.230469 L 161.628906 534.429688 L 165.609375 551.695312 L 162.570312 555.652344 " fill-opacity="1" fill-rule="nonzero"/><path fill="#bdbcbc" d="M 60.539062 662.476562 L 158.285156 535.386719 L 157.757812 534.980469 L 60.011719 662.078125 " fill-opacity="1" fill-rule="nonzero"/><path fill="#bdbcbc" d="M 73.554688 672.488281 L 171.300781 545.398438 L 170.773438 544.992188 L 73.027344 672.082031 L 73.554688 672.488281 " fill-opacity="1" fill-rule="nonzero"/><path fill="#bdbcbc" d="M 86.566406 682.492188 L 184.320312 555.40625 L 183.785156 554.996094 L 86.042969 682.085938 L 86.566406 682.492188 " fill-opacity="1" fill-rule="nonzero"/><path fill="#bdbcbc" d="M 99.582031 692.5 L 197.335938 565.417969 L 196.808594 565.011719 L 99.054688 692.089844 L 99.582031 692.5 " fill-opacity="1" fill-rule="nonzero"/><path fill="#bdbcbc" d="M 112.597656 702.511719 L 210.351562 575.421875 L 209.824219 575.015625 L 112.070312 702.105469 L 112.597656 702.511719 " fill-opacity="1" fill-rule="nonzero"/><path fill="#bdbcbc" d="M 125.609375 712.515625 L 223.363281 585.425781 L 222.828125 585.019531 L 125.082031 712.109375 L 125.609375 712.515625 " fill-opacity="1" fill-rule="nonzero"/><path fill="#bdbcbc" d="M 138.632812 722.519531 L 236.386719 595.4375 L 235.851562 595.03125 L 138.105469 722.113281 L 138.632812 722.519531 " fill-opacity="1" fill-rule="nonzero"/><path fill="#bdbcbc" d="M 151.648438 732.53125 L 249.390625 605.441406 L 248.867188 605.035156 L 151.121094 732.125 L 151.648438 732.53125 " fill-opacity="1" fill-rule="nonzero"/><path fill="#bdbcbc" d="M 164.660156 742.535156 L 262.40625 615.445312 L 261.878906 615.039062 L 164.132812 742.128906 " fill-opacity="1" fill-rule="nonzero"/><path fill="#bdbcbc" d="M 177.675781 752.550781 L 275.429688 625.453125 L 274.894531 625.050781 L 177.148438 752.140625 " fill-opacity="1" fill-rule="nonzero"/><path fill="#bdbcbc" d="M 190.695312 762.546875 L 288.441406 635.464844 L 287.90625 635.058594 L 190.171875 762.144531 " fill-opacity="1" fill-rule="nonzero"/><path fill="#bdbcbc" d="M 203.710938 772.558594 L 301.457031 645.46875 L 300.929688 645.0625 L 203.183594 772.152344 " fill-opacity="1" fill-rule="nonzero"/><path fill="#fcd3a7" d="M 194.972656 629.800781 L 205.738281 627.316406 L 203.191406 665.398438 L 184.21875 632.28125 L 194.972656 629.800781 " fill-opacity="1" fill-rule="nonzero"/><path fill="#f9b271" d="M 200.558594 654.003906 L 194.972656 629.800781 L 205.738281 627.316406 L 204.007812 653.207031 L 200.558594 654.003906 M 199.480469 630.890625 C 200.496094 630.890625 201.429688 631.1875 201.964844 632.136719 C 202.570312 633.214844 202.722656 634.554688 202.890625 635.75 C 203.160156 637.65625 203.175781 639.636719 203.449219 641.542969 C 203.710938 638.839844 204.191406 636.125 204.359375 633.414062 C 204.429688 632.214844 204.867188 629.855469 203.089844 629.527344 C 202.730469 629.464844 202.378906 629.441406 202.019531 629.441406 C 201.253906 629.441406 200.488281 629.566406 199.722656 629.6875 C 199.226562 629.765625 198.722656 629.839844 198.253906 630.023438 C 197.988281 630.117188 197.351562 630.421875 197.558594 630.78125 C 197.65625 630.964844 197.902344 631.011719 198.191406 631.011719 C 198.597656 631.011719 199.082031 630.910156 199.304688 630.890625 C 199.363281 630.890625 199.417969 630.890625 199.480469 630.890625 " fill-opacity="1" fill-rule="nonzero"/><path fill="#918f8f" d="M 197.121094 654.800781 L 203.191406 665.398438 L 204.007812 653.207031 L 197.121094 654.800781 " fill-opacity="1" fill-rule="nonzero"/><path fill="#f35b54" d="M 148.648438 478.1875 L 170.167969 473.222656 L 205.738281 627.316406 L 184.21875 632.28125 L 148.648438 478.1875 " fill-opacity="1" fill-rule="nonzero"/><path fill="#ef2e33" d="M 200.351562 628.5625 L 164.78125 474.460938 L 170.167969 473.222656 L 205.738281 627.316406 L 200.351562 628.554688 M 169.488281 477.953125 C 169.382812 477.953125 169.28125 477.96875 169.183594 477.984375 C 168.292969 478.105469 169.050781 480.210938 169.175781 480.617188 C 169.617188 482.054688 170.023438 483.441406 170.285156 484.925781 C 170.5 486.140625 170.667969 487.367188 170.851562 488.582031 C 171.109375 490.183594 171.363281 491.78125 171.683594 493.367188 C 172.066406 495.242188 172.289062 497.195312 172.933594 499 C 173.207031 499.789062 173.550781 500.660156 173.996094 501.378906 C 174.125 501.578125 174.277344 501.730469 174.425781 501.730469 C 174.53125 501.730469 174.625 501.671875 174.722656 501.527344 C 175.128906 500.914062 174.828125 499.917969 174.714844 499.253906 C 174.53125 498.171875 174.324219 497.078125 174.109375 495.992188 C 173.917969 495.003906 173.703125 494.03125 173.5 493.046875 C 173.117188 491.175781 172.75 489.300781 172.375 487.433594 C 172.273438 486.898438 172.167969 486.371094 172.050781 485.84375 C 171.585938 483.730469 171.300781 481.527344 170.691406 479.445312 C 170.566406 479 170.550781 478.457031 170.152344 478.152344 C 169.960938 478.011719 169.71875 477.953125 169.488281 477.953125 " fill-opacity="1" fill-rule="nonzero"/><path fill="#de534c" d="M 184.21875 632.28125 L 186.972656 631.640625 L 186.972656 631.648438 L 184.21875 632.28125 M 187.992188 631.410156 L 188.964844 631.1875 L 187.992188 631.410156 " fill-opacity="1" fill-rule="nonzero"/><path fill="#b4433c" d="M 186.972656 631.648438 L 186.972656 631.640625 L 187.992188 631.410156 L 186.972656 631.648438 " fill-opacity="1" fill-rule="nonzero"/><path fill="#f25142" d="M 184.21875 632.28125 L 186.972656 631.648438 L 187.992188 631.410156 L 188.964844 631.1875 L 184.21875 632.28125 " fill-opacity="1" fill-rule="nonzero"/><path fill="#ef2e33" d="M 184.21875 632.28125 L 180.148438 614.679688 L 179.957031 613.84375 L 175.367188 593.96875 L 175.175781 593.132812 L 170.589844 573.25 L 170.398438 572.414062 L 165.808594 552.539062 L 165.609375 551.695312 L 148.648438 478.1875 L 153.386719 477.09375 L 188.964844 631.1875 L 187.992188 631.410156 L 186.972656 631.640625 L 184.21875 632.28125 M 176.136719 588.273438 C 176.03125 588.273438 175.917969 588.335938 175.808594 588.488281 C 175.503906 588.921875 175.769531 589.574219 175.855469 590.039062 C 176.78125 595.191406 177.9375 600.320312 178.925781 605.457031 C 179.535156 608.5625 180.585938 611.625 180.984375 614.761719 C 181.144531 616.03125 181.335938 617.265625 181.808594 618.460938 C 181.96875 618.878906 182.460938 620.058594 183.019531 620.058594 C 183.078125 620.058594 183.125 620.050781 183.171875 620.035156 C 183.308594 619.980469 183.445312 619.859375 183.570312 619.644531 C 184.386719 618.328125 183.101562 616.484375 182.628906 615.273438 C 181.808594 613.164062 181.402344 610.835938 180.984375 608.617188 C 180.652344 606.824219 180.339844 605.019531 180.003906 603.214844 C 179.292969 599.433594 178.050781 595.636719 177.417969 591.785156 C 177.261719 590.785156 177.125 589.773438 176.710938 588.847656 C 176.597656 588.601562 176.375 588.273438 176.136719 588.273438 " fill-opacity="1" fill-rule="nonzero"/><path fill="#bdbcbc" d="M 144.480469 460.148438 L 148.648438 478.1875 L 170.167969 473.222656 L 166 455.183594 L 144.480469 460.148438 " fill-opacity="1" fill-rule="nonzero"/><path fill="#b4433c" d="M 148.648438 478.1875 L 153.386719 477.09375 L 148.648438 478.1875 " fill-opacity="1" fill-rule="nonzero"/><path fill="#908e8e" d="M 148.648438 478.1875 L 144.480469 460.148438 L 144.527344 460.140625 L 149.230469 459.054688 L 153.386719 477.09375 L 148.648438 478.1875 " fill-opacity="1" fill-rule="nonzero"/><path fill="#908e8e" d="M 164.78125 474.460938 L 160.617188 456.429688 L 165.945312 455.199219 C 165.945312 455.199219 165.945312 455.199219 165.945312 455.191406 L 166 455.183594 L 170.167969 473.222656 L 164.78125 474.460938 " fill-opacity="1" fill-rule="nonzero"/><path fill="#f4f4f4" d="M 165.945312 455.199219 C 165.898438 454.851562 165.839844 454.507812 165.761719 454.15625 C 164.390625 448.210938 158.460938 444.511719 152.515625 445.882812 C 146.570312 447.253906 142.871094 453.183594 144.242188 459.125 C 144.320312 459.46875 144.417969 459.8125 144.527344 460.140625 L 165.945312 455.199219 " fill-opacity="1" fill-rule="nonzero"/><path fill="#cac9ca" d="M 144.527344 460.140625 C 144.417969 459.8125 144.320312 459.46875 144.242188 459.125 C 144.050781 458.289062 143.953125 457.449219 143.953125 456.628906 C 143.953125 451.601562 147.410156 447.054688 152.515625 445.882812 C 153.355469 445.691406 154.183594 445.59375 155.007812 445.59375 C 158.09375 445.59375 161 446.894531 163.050781 449.089844 C 161.539062 448.601562 159.945312 448.355469 158.355469 448.355469 C 155.230469 448.355469 152.109375 449.328125 149.644531 451.410156 C 146.980469 453.660156 145.710938 456.707031 145.488281 459.917969 L 144.527344 460.140625 M 151.496094 447.007812 C 151.039062 447.007812 150.503906 447.398438 150.179688 447.597656 C 148.566406 448.554688 146.980469 449.945312 145.820312 451.417969 C 145.085938 452.359375 144.289062 453.667969 144.730469 454.914062 C 144.945312 455.503906 145.152344 455.734375 145.359375 455.734375 C 145.65625 455.734375 145.933594 455.257812 146.164062 454.660156 C 146.699219 453.328125 146.996094 451.898438 147.871094 450.726562 C 148.511719 449.886719 149.316406 449.195312 150.234375 448.675781 C 150.695312 448.417969 151.183594 448.21875 151.671875 448.011719 C 152.015625 447.871094 152.292969 447.566406 151.980469 447.222656 C 151.847656 447.070312 151.679688 447.007812 151.496094 447.007812 " fill-opacity="1" fill-rule="nonzero"/><path fill="#868485" d="M 202.875 664.839844 L 197.121094 654.800781 L 202.875 664.839844 " fill-opacity="1" fill-rule="nonzero"/><path fill="#706d6e" d="M 202.984375 665.039062 L 202.875 664.839844 L 202.976562 665.023438 L 202.984375 665.039062 " fill-opacity="1" fill-rule="nonzero"/><path fill="#595657" d="M 202.976562 665.023438 L 202.875 664.839844 L 197.121094 654.800781 L 200.449219 654.035156 L 202.976562 665.023438 " fill-opacity="1" fill-rule="nonzero"/><path fill="#fcd7b3" d="M 203.449219 641.542969 C 203.175781 639.636719 203.160156 637.65625 202.890625 635.75 C 202.722656 634.554688 202.570312 633.214844 201.964844 632.136719 C 201.429688 631.1875 200.496094 630.890625 199.480469 630.890625 C 199.417969 630.890625 199.363281 630.890625 199.304688 630.890625 C 199.082031 630.910156 198.597656 631.011719 198.191406 631.011719 C 197.902344 631.011719 197.65625 630.964844 197.558594 630.78125 C 197.351562 630.421875 197.988281 630.117188 198.253906 630.023438 C 198.722656 629.839844 199.226562 629.765625 199.722656 629.6875 C 200.488281 629.566406 201.253906 629.441406 202.019531 629.441406 C 202.378906 629.441406 202.730469 629.464844 203.089844 629.527344 C 204.867188 629.855469 204.429688 632.214844 204.359375 633.414062 C 204.191406 636.125 203.710938 638.839844 203.449219 641.542969 " fill-opacity="1" fill-rule="nonzero"/><path fill="#f78f7c" d="M 183.019531 620.058594 C 182.460938 620.058594 181.96875 618.878906 181.808594 618.460938 C 181.335938 617.265625 181.144531 616.03125 180.984375 614.761719 C 180.585938 611.625 179.535156 608.5625 178.925781 605.457031 C 177.9375 600.320312 176.78125 595.191406 175.855469 590.039062 C 175.769531 589.574219 175.503906 588.921875 175.808594 588.488281 C 175.917969 588.335938 176.03125 588.273438 176.136719 588.273438 C 176.375 588.273438 176.597656 588.601562 176.710938 588.847656 C 177.125 589.773438 177.261719 590.785156 177.417969 591.785156 C 178.050781 595.636719 179.292969 599.433594 180.003906 603.214844 C 180.339844 605.019531 180.652344 606.824219 180.984375 608.617188 C 181.402344 610.835938 181.808594 613.164062 182.628906 615.273438 C 183.101562 616.484375 184.386719 618.328125 183.570312 619.644531 C 183.445312 619.859375 183.308594 619.980469 183.171875 620.035156 C 183.125 620.050781 183.078125 620.058594 183.019531 620.058594 " fill-opacity="1" fill-rule="nonzero"/><path fill="#f78f7c" d="M 174.425781 501.730469 C 174.277344 501.730469 174.125 501.578125 173.996094 501.378906 C 173.550781 500.660156 173.207031 499.789062 172.933594 499 C 172.289062 497.195312 172.066406 495.242188 171.683594 493.367188 C 171.363281 491.78125 171.109375 490.183594 170.851562 488.582031 C 170.667969 487.367188 170.5 486.140625 170.285156 484.925781 C 170.023438 483.441406 169.617188 482.054688 169.175781 480.617188 C 169.050781 480.210938 168.292969 478.105469 169.183594 477.984375 C 169.28125 477.96875 169.382812 477.953125 169.488281 477.953125 C 169.71875 477.953125 169.960938 478.011719 170.152344 478.152344 C 170.550781 478.457031 170.566406 479 170.691406 479.445312 C 171.300781 481.527344 171.585938 483.730469 172.050781 485.84375 C 172.167969 486.371094 172.273438 486.898438 172.375 487.433594 C 172.75 489.300781 173.117188 491.175781 173.5 493.046875 C 173.703125 494.03125 173.917969 495.003906 174.109375 495.992188 C 174.324219 497.078125 174.53125 498.171875 174.714844 499.253906 C 174.828125 499.917969 175.128906 500.914062 174.722656 501.527344 C 174.625 501.671875 174.53125 501.730469 174.425781 501.730469 " fill-opacity="1" fill-rule="nonzero"/><path fill="#e5e5e5" d="M 145.359375 455.734375 C 145.152344 455.734375 144.945312 455.503906 144.730469 454.914062 C 144.289062 453.667969 145.085938 452.359375 145.820312 451.417969 C 146.980469 449.945312 148.566406 448.554688 150.179688 447.597656 C 150.503906 447.398438 151.039062 447.007812 151.496094 447.007812 C 151.679688 447.007812 151.847656 447.070312 151.980469 447.222656 C 152.292969 447.566406 152.015625 447.871094 151.671875 448.011719 C 151.183594 448.21875 150.695312 448.417969 150.234375 448.675781 C 149.316406 449.195312 148.511719 449.886719 147.871094 450.726562 C 146.996094 451.898438 146.699219 453.328125 146.164062 454.660156 C 145.933594 455.257812 145.65625 455.734375 145.359375 455.734375 " fill-opacity="1" fill-rule="nonzero"/></svg>