<?xml version="1.0" standalone="no"?>
<!DOCTYPE svg PUBLIC "-//W3C//DTD SVG 20010904//EN"
 "http://www.w3.org/TR/2001/REC-SVG-20010904/DTD/svg10.dtd">
<svg version="1.0" xmlns="http://www.w3.org/2000/svg"
 width="1080.000000pt" height="1080.000000pt" viewBox="0 0 1080.000000 1080.000000"
 preserveAspectRatio="xMidYMid meet">
<metadata>
Created by potrace 1.14, written by Peter Selinger 2001-2017
</metadata>
<g transform="translate(0.000000,1080.000000) scale(0.100000,-0.100000)"
fill="#000000" stroke="none">
<path d="M0 5400 l0 -5400 5400 0 5400 0 0 5400 0 5400 -5400 0 -5400 0 0
-5400z m5815 2937 c50 -9 114 -20 144 -26 92 -19 262 -80 353 -128 89 -47 243
-164 266 -202 7 -11 16 -21 21 -21 9 0 37 86 86 260 15 52 31 99 36 104 5 6
25 4 50 -4 l41 -14 -6 -70 c-37 -423 -60 -1029 -49 -1338 l6 -197 -29 -11
c-16 -7 -40 -12 -54 -13 -23 -2 -25 2 -32 58 -31 264 -115 588 -204 788 -162
366 -383 583 -679 669 -69 20 -102 23 -240 23 -172 0 -244 -14 -368 -69 -217
-95 -426 -349 -572 -691 -90 -210 -155 -433 -214 -735 -72 -364 -94 -614 -94
-1060 -1 -459 22 -725 89 -1060 135 -664 373 -1071 730 -1246 148 -73 256 -96
469 -101 142 -4 199 -2 270 12 239 45 428 147 597 324 163 170 277 371 365
643 28 87 53 148 61 148 22 0 92 -52 92 -70 0 -66 -107 -364 -189 -527 -285
-569 -835 -873 -1577 -873 -490 0 -896 110 -1223 332 -98 66 -119 84 -219 180
-191 185 -371 457 -471 711 -34 85 -118 349 -131 412 -62 295 -85 463 -101
740 -23 420 18 895 108 1235 88 336 210 620 368 860 165 251 382 473 627 641
108 74 316 175 459 223 125 42 297 80 429 95 52 6 109 13 125 15 76 10 574 -3
660 -17z m1785 -4212 c198 -53 349 -213 405 -430 21 -78 20 -251 0 -330 -50
-195 -180 -341 -370 -415 -52 -21 -77 -24 -185 -24 -112 1 -132 3 -195 28 -93
36 -151 75 -218 144 -171 180 -208 500 -85 735 69 132 220 251 369 291 70 19
210 20 279 1z"/>
</g>
</svg>
