<svg xmlns="http://www.w3.org/2000/svg" xmlns:xlink="http://www.w3.org/1999/xlink" width="1080" zoomAndPan="magnify" viewBox="0 0 810 809.999993" height="1080" preserveAspectRatio="xMidYMid meet" version="1.0"><defs><clipPath id="9b81cc5d2c"><path d="M 15.300781 15.300781 L 794.550781 15.300781 L 794.550781 794.550781 L 15.300781 794.550781 Z M 15.300781 15.300781 " clip-rule="nonzero"/></clipPath></defs><rect x="-81" width="972" fill="#ffffff" y="-80.999999" height="971.999992" fill-opacity="1"/><rect x="-81" width="972" fill="#ffffff" y="-80.999999" height="971.999992" fill-opacity="1"/><path fill="#00d300" d="M 404.972656 793.628906 C 190.328125 793.628906 16.320312 619.621094 16.320312 404.972656 C 16.320312 190.324219 190.328125 16.320312 404.972656 16.320312 C 619.621094 16.320312 793.625 190.328125 793.625 404.972656 C 793.625 619.621094 619.621094 793.628906 404.972656 793.628906 Z M 404.972656 793.628906 " fill-opacity="1" fill-rule="nonzero"/><g clip-path="url(#9b81cc5d2c)"><path stroke-linecap="butt" transform="matrix(2.037788, 0, 0, 2.037788, 15.30204, 15.302056)" fill="none" stroke-linejoin="miter" d="M 191.222397 381.947008 C 85.890252 381.947008 0.499695 296.556451 0.499695 191.222389 C 0.499695 85.888327 85.890252 0.499687 191.222397 0.499687 C 296.556459 0.499687 381.945099 85.890244 381.945099 191.222389 C 381.945099 296.556451 296.556459 381.947008 191.222397 381.947008 Z M 191.222397 381.947008 " stroke="#3fb24f" stroke-width="1" stroke-opacity="1" stroke-miterlimit="10"/></g><path fill="#ffffff" d="M 325.445312 647.433594 L 157.914062 429.839844 L 222.5 380.113281 L 327.738281 516.800781 L 588.34375 201.847656 L 651.144531 253.8125 Z M 325.445312 647.433594 " fill-opacity="1" fill-rule="nonzero"/></svg>