<svg xmlns="http://www.w3.org/2000/svg" xmlns:xlink="http://www.w3.org/1999/xlink" width="1080" zoomAndPan="magnify" viewBox="0 0 810 809.999993" height="1080" preserveAspectRatio="xMidYMid meet" version="1.0"><defs><clipPath id="957e7cd775"><path d="M 34.042969 34.042969 L 775.792969 34.042969 L 775.792969 775.792969 L 34.042969 775.792969 Z M 34.042969 34.042969 " clip-rule="nonzero"/></clipPath></defs><g clip-path="url(#957e7cd775)"><path fill="#0fb73b" d="M 775.816406 404.917969 C 775.816406 410.988281 775.664062 417.054688 775.367188 423.117188 C 775.070312 429.179688 774.625 435.230469 774.027344 441.273438 C 773.433594 447.3125 772.691406 453.335938 771.800781 459.339844 C 770.910156 465.34375 769.871094 471.324219 768.6875 477.277344 C 767.503906 483.230469 766.175781 489.152344 764.699219 495.039062 C 763.222656 500.925781 761.605469 506.773438 759.84375 512.582031 C 758.082031 518.390625 756.179688 524.15625 754.132812 529.871094 C 752.089844 535.585938 749.90625 541.246094 747.582031 546.855469 C 745.257812 552.460938 742.800781 558.011719 740.203125 563.496094 C 737.609375 568.984375 734.882812 574.40625 732.019531 579.757812 C 729.160156 585.109375 726.167969 590.390625 723.046875 595.597656 C 719.925781 600.804688 716.679688 605.929688 713.308594 610.976562 C 709.933594 616.023438 706.441406 620.984375 702.824219 625.859375 C 699.210938 630.738281 695.476562 635.519531 691.625 640.210938 C 687.773438 644.90625 683.8125 649.5 679.734375 653.996094 C 675.65625 658.496094 671.472656 662.890625 667.183594 667.183594 C 662.890625 671.472656 658.496094 675.65625 653.996094 679.734375 C 649.5 683.8125 644.90625 687.773438 640.210938 691.625 C 635.519531 695.476562 630.738281 699.210938 625.859375 702.824219 C 620.984375 706.441406 616.023438 709.933594 610.976562 713.308594 C 605.929688 716.679688 600.804688 719.925781 595.597656 723.046875 C 590.390625 726.167969 585.109375 729.160156 579.757812 732.019531 C 574.40625 734.882812 568.984375 737.609375 563.496094 740.203125 C 558.011719 742.800781 552.460938 745.257812 546.855469 747.582031 C 541.246094 749.90625 535.585938 752.089844 529.871094 754.132812 C 524.15625 756.179688 518.390625 758.082031 512.582031 759.84375 C 506.773438 761.605469 500.925781 763.222656 495.039062 764.699219 C 489.152344 766.175781 483.230469 767.503906 477.277344 768.6875 C 471.324219 769.871094 465.34375 770.910156 459.339844 771.800781 C 453.335938 772.691406 447.3125 773.433594 441.273438 774.027344 C 435.230469 774.625 429.179688 775.070312 423.117188 775.367188 C 417.054688 775.664062 410.988281 775.816406 404.917969 775.816406 C 398.847656 775.816406 392.78125 775.664062 386.71875 775.367188 C 380.65625 775.070312 374.605469 774.625 368.5625 774.027344 C 362.523438 773.433594 356.5 772.691406 350.496094 771.800781 C 344.492188 770.910156 338.511719 769.871094 332.558594 768.6875 C 326.605469 767.503906 320.6875 766.175781 314.796875 764.699219 C 308.910156 763.222656 303.0625 761.605469 297.253906 759.84375 C 291.445312 758.082031 285.683594 756.179688 279.96875 754.132812 C 274.253906 752.089844 268.589844 749.90625 262.984375 747.582031 C 257.375 745.257812 251.828125 742.800781 246.339844 740.203125 C 240.851562 737.609375 235.433594 734.882812 230.078125 732.019531 C 224.726562 729.160156 219.445312 726.167969 214.238281 723.046875 C 209.03125 719.925781 203.90625 716.679688 198.859375 713.308594 C 193.8125 709.933594 188.851562 706.441406 183.976562 702.824219 C 179.101562 699.210938 174.316406 695.476562 169.625 691.625 C 164.933594 687.773438 160.335938 683.8125 155.839844 679.734375 C 151.34375 675.65625 146.945312 671.472656 142.65625 667.183594 C 138.363281 662.890625 134.179688 658.496094 130.101562 653.996094 C 126.027344 649.5 122.0625 644.90625 118.210938 640.210938 C 114.359375 635.519531 110.628906 630.738281 107.011719 625.859375 C 103.394531 620.984375 99.902344 616.023438 96.53125 610.976562 C 93.15625 605.929688 89.910156 600.804688 86.789062 595.597656 C 83.667969 590.390625 80.679688 585.109375 77.816406 579.757812 C 74.957031 574.40625 72.226562 568.984375 69.632812 563.496094 C 67.035156 558.011719 64.578125 552.460938 62.253906 546.855469 C 59.933594 541.246094 57.75 535.585938 55.703125 529.871094 C 53.660156 524.15625 51.753906 518.390625 49.992188 512.582031 C 48.230469 506.773438 46.613281 500.925781 45.136719 495.039062 C 43.664062 489.152344 42.332031 483.230469 41.148438 477.277344 C 39.964844 471.324219 38.925781 465.34375 38.035156 459.339844 C 37.144531 453.335938 36.402344 447.3125 35.808594 441.273438 C 35.214844 435.230469 34.765625 429.179688 34.46875 423.117188 C 34.171875 417.054688 34.023438 410.988281 34.023438 404.917969 C 34.023438 398.847656 34.171875 392.78125 34.46875 386.71875 C 34.765625 380.65625 35.214844 374.605469 35.808594 368.5625 C 36.402344 362.523438 37.144531 356.5 38.035156 350.496094 C 38.925781 344.492188 39.964844 338.511719 41.148438 332.558594 C 42.332031 326.605469 43.664062 320.6875 45.136719 314.796875 C 46.613281 308.910156 48.230469 303.0625 49.992188 297.253906 C 51.753906 291.445312 53.660156 285.683594 55.703125 279.96875 C 57.75 274.253906 59.933594 268.589844 62.253906 262.984375 C 64.578125 257.375 67.035156 251.828125 69.632812 246.339844 C 72.226562 240.851562 74.957031 235.433594 77.816406 230.078125 C 80.679688 224.726562 83.667969 219.445312 86.789062 214.238281 C 89.910156 209.03125 93.15625 203.90625 96.53125 198.859375 C 99.902344 193.8125 103.394531 188.851562 107.011719 183.976562 C 110.628906 179.101562 114.359375 174.316406 118.210938 169.625 C 122.0625 164.933594 126.027344 160.335938 130.101562 155.839844 C 134.179688 151.34375 138.363281 146.949219 142.65625 142.65625 C 146.949219 138.363281 151.34375 134.179688 155.839844 130.101562 C 160.335938 126.027344 164.933594 122.0625 169.625 118.210938 C 174.316406 114.359375 179.101562 110.628906 183.976562 107.011719 C 188.851562 103.394531 193.8125 99.902344 198.859375 96.53125 C 203.90625 93.15625 209.03125 89.910156 214.238281 86.789062 C 219.445312 83.667969 224.726562 80.679688 230.078125 77.816406 C 235.433594 74.957031 240.851562 72.226562 246.339844 69.632812 C 251.828125 67.035156 257.375 64.578125 262.984375 62.253906 C 268.589844 59.933594 274.253906 57.75 279.96875 55.703125 C 285.683594 53.660156 291.445312 51.753906 297.253906 49.992188 C 303.0625 48.230469 308.910156 46.613281 314.796875 45.136719 C 320.6875 43.664062 326.605469 42.332031 332.558594 41.148438 C 338.511719 39.964844 344.492188 38.925781 350.496094 38.035156 C 356.5 37.144531 362.523438 36.402344 368.5625 35.808594 C 374.605469 35.214844 380.65625 34.765625 386.71875 34.46875 C 392.78125 34.171875 398.847656 34.023438 404.917969 34.023438 C 410.988281 34.023438 417.054688 34.171875 423.117188 34.46875 C 429.179688 34.765625 435.230469 35.214844 441.273438 35.808594 C 447.3125 36.402344 453.335938 37.144531 459.339844 38.035156 C 465.34375 38.925781 471.324219 39.964844 477.277344 41.148438 C 483.230469 42.332031 489.152344 43.664062 495.039062 45.136719 C 500.925781 46.613281 506.773438 48.230469 512.582031 49.992188 C 518.390625 51.753906 524.15625 53.660156 529.871094 55.703125 C 535.585938 57.75 541.246094 59.933594 546.855469 62.253906 C 552.460938 64.578125 558.011719 67.035156 563.496094 69.632812 C 568.984375 72.226562 574.40625 74.957031 579.757812 77.816406 C 585.109375 80.679688 590.390625 83.667969 595.597656 86.789062 C 600.804688 89.910156 605.929688 93.15625 610.976562 96.53125 C 616.023438 99.902344 620.984375 103.394531 625.859375 107.011719 C 630.738281 110.628906 635.519531 114.359375 640.210938 118.210938 C 644.90625 122.0625 649.5 126.027344 653.996094 130.101562 C 658.496094 134.179688 662.890625 138.363281 667.183594 142.65625 C 671.472656 146.949219 675.65625 151.34375 679.734375 155.839844 C 683.8125 160.335938 687.773438 164.933594 691.625 169.625 C 695.476562 174.316406 699.210938 179.101562 702.824219 183.976562 C 706.441406 188.851562 709.933594 193.8125 713.308594 198.859375 C 716.679688 203.90625 719.925781 209.03125 723.046875 214.238281 C 726.167969 219.445312 729.160156 224.726562 732.019531 230.078125 C 734.882812 235.433594 737.609375 240.851562 740.203125 246.339844 C 742.800781 251.828125 745.257812 257.375 747.582031 262.984375 C 749.90625 268.589844 752.089844 274.253906 754.132812 279.96875 C 756.179688 285.683594 758.082031 291.445312 759.84375 297.253906 C 761.605469 303.0625 763.222656 308.910156 764.699219 314.796875 C 766.175781 320.6875 767.503906 326.605469 768.6875 332.558594 C 769.871094 338.511719 770.910156 344.492188 771.800781 350.496094 C 772.691406 356.5 773.433594 362.523438 774.027344 368.5625 C 774.625 374.605469 775.070312 380.65625 775.367188 386.71875 C 775.664062 392.78125 775.816406 398.847656 775.816406 404.917969 Z M 775.816406 404.917969 " fill-opacity="1" fill-rule="nonzero"/></g><path fill="#ffffff" d="M 404.917969 685.660156 C 367.027344 685.660156 330.257812 678.234375 295.636719 663.589844 C 262.203125 649.449219 232.179688 629.207031 206.40625 603.433594 C 180.628906 577.65625 160.386719 547.632812 146.246094 514.199219 C 131.601562 479.578125 124.175781 442.808594 124.175781 404.917969 C 124.175781 367.027344 131.601562 330.257812 146.246094 295.636719 C 160.386719 262.203125 180.628906 232.179688 206.40625 206.40625 C 232.179688 180.628906 262.203125 160.386719 295.636719 146.246094 C 330.257812 131.601562 367.027344 124.175781 404.917969 124.175781 C 442.808594 124.175781 479.578125 131.601562 514.203125 146.246094 C 547.632812 160.386719 577.65625 180.628906 603.433594 206.40625 C 629.207031 232.179688 649.449219 262.203125 663.589844 295.636719 C 678.234375 330.257812 685.660156 367.027344 685.660156 404.917969 C 685.660156 442.808594 678.234375 479.578125 663.589844 514.199219 C 649.449219 547.632812 629.207031 577.65625 603.433594 603.433594 C 577.65625 629.207031 547.632812 649.449219 514.203125 663.589844 C 479.578125 678.234375 442.808594 685.660156 404.917969 685.660156 Z M 404.917969 161.859375 C 339.996094 161.859375 278.957031 187.140625 233.050781 233.050781 C 187.140625 278.957031 161.859375 339.996094 161.859375 404.917969 C 161.859375 469.84375 187.140625 530.878906 233.050781 576.789062 C 278.957031 622.695312 339.996094 647.980469 404.917969 647.980469 C 469.84375 647.980469 530.878906 622.699219 576.789062 576.789062 C 622.695312 530.882812 647.980469 469.84375 647.980469 404.917969 C 647.980469 339.996094 622.695312 278.957031 576.789062 233.050781 C 530.878906 187.144531 469.84375 161.859375 404.917969 161.859375 Z M 404.917969 161.859375 " fill-opacity="1" fill-rule="nonzero"/><path fill="#ffffff" d="M 527.878906 514.492188 L 530.722656 511.644531 C 544.722656 497.648438 542.855469 474.445312 526.800781 462.867188 L 503.136719 445.796875 C 488.074219 434.933594 467.351562 436.597656 454.21875 449.734375 L 451.023438 452.929688 C 442.175781 461.777344 428.535156 463.742188 417.570312 457.710938 C 390.269531 442.691406 368.507812 420.78125 352.28125 391.96875 C 346.058594 380.917969 347.871094 367.089844 356.839844 358.117188 L 359.722656 355.234375 C 372.855469 342.101562 374.523438 321.378906 363.65625 306.316406 L 346.589844 282.652344 C 335.007812 266.597656 311.804688 264.734375 297.808594 278.730469 L 295.769531 280.769531 C 266.722656 309.816406 261.320312 354.984375 282.734375 390.042969 C 317.839844 447.523438 362.898438 493.496094 418.394531 527.398438 C 453.53125 548.859375 498.765625 543.605469 527.878906 514.492188 Z M 527.878906 514.492188 " fill-opacity="1" fill-rule="nonzero"/></svg>