<svg xmlns="http://www.w3.org/2000/svg" xmlns:xlink="http://www.w3.org/1999/xlink" width="1080" zoomAndPan="magnify" viewBox="0 0 810 809.999993" height="1080" preserveAspectRatio="xMidYMid meet" version="1.0"><path fill="#ff3d00" d="M 757.789062 586.902344 C 750.4375 625.488281 719.203125 654.890625 680.613281 660.402344 C 619.976562 669.589844 518.914062 680.613281 404.988281 680.613281 C 292.902344 680.613281 191.839844 669.589844 129.363281 660.402344 C 90.777344 654.890625 59.539062 625.488281 52.1875 586.902344 C 44.839844 544.640625 37.488281 482.164062 37.488281 404.988281 C 37.488281 327.816406 44.839844 265.339844 52.1875 223.078125 C 59.539062 184.488281 90.777344 155.089844 129.363281 149.578125 C 190 140.390625 291.0625 129.363281 404.988281 129.363281 C 518.914062 129.363281 618.140625 140.390625 680.613281 149.578125 C 719.203125 155.089844 750.4375 184.488281 757.789062 223.078125 C 765.140625 265.339844 774.328125 327.816406 774.328125 404.988281 C 772.488281 482.164062 765.140625 544.640625 757.789062 586.902344 Z M 757.789062 586.902344 " fill-opacity="1" fill-rule="nonzero"/><path fill="#ffffff" d="M 331.488281 533.613281 L 331.488281 276.363281 L 551.988281 404.988281 Z M 331.488281 533.613281 " fill-opacity="1" fill-rule="nonzero"/></svg>